<svg width="1363" height="163" viewBox="0 0 1363 163" fill="none" xmlns="http://www.w3.org/2000/svg">
<path d="M0 15C0 6.71573 6.71573 0 15 0H37V163H15C6.71573 163 0 156.284 0 148V15Z" fill="#424242"/>
<rect width="1097" height="163" transform="translate(37)" fill="#F0F0F0"/>
<path d="M98.0391 43.9375V61H94.5234V43.9375H98.0391ZM104.836 51.2266V53.9688H97.0781V51.2266H104.836ZM105.656 43.9375V46.6914H97.0781V43.9375H105.656ZM111.047 48.3203V61H107.66V48.3203H111.047ZM107.449 45.0156C107.449 44.5234 107.621 44.1172 107.965 43.7969C108.309 43.4766 108.77 43.3164 109.348 43.3164C109.918 43.3164 110.375 43.4766 110.719 43.7969C111.07 44.1172 111.246 44.5234 111.246 45.0156C111.246 45.5078 111.07 45.9141 110.719 46.2344C110.375 46.5547 109.918 46.7148 109.348 46.7148C108.77 46.7148 108.309 46.5547 107.965 46.2344C107.621 45.9141 107.449 45.5078 107.449 45.0156ZM117.141 51.0273V61H113.766V48.3203H116.93L117.141 51.0273ZM116.648 54.2148H115.734C115.734 53.2773 115.855 52.4336 116.098 51.6836C116.34 50.9258 116.68 50.2812 117.117 49.75C117.555 49.2109 118.074 48.8008 118.676 48.5195C119.285 48.2305 119.965 48.0859 120.715 48.0859C121.309 48.0859 121.852 48.1719 122.344 48.3438C122.836 48.5156 123.258 48.7891 123.609 49.1641C123.969 49.5391 124.242 50.0352 124.43 50.6523C124.625 51.2695 124.723 52.0234 124.723 52.9141V61H121.324V52.9023C121.324 52.3398 121.246 51.9023 121.09 51.5898C120.934 51.2773 120.703 51.0586 120.398 50.9336C120.102 50.8008 119.734 50.7344 119.297 50.7344C118.844 50.7344 118.449 50.8242 118.113 51.0039C117.785 51.1836 117.512 51.4336 117.293 51.7539C117.082 52.0664 116.922 52.4336 116.812 52.8555C116.703 53.2773 116.648 53.7305 116.648 54.2148ZM134.133 58.1406V52.4922C134.133 52.0859 134.066 51.7383 133.934 51.4492C133.801 51.1523 133.594 50.9219 133.312 50.7578C133.039 50.5938 132.684 50.5117 132.246 50.5117C131.871 50.5117 131.547 50.5781 131.273 50.7109C131 50.8359 130.789 51.0195 130.641 51.2617C130.492 51.4961 130.418 51.7734 130.418 52.0938H127.043C127.043 51.5547 127.168 51.043 127.418 50.5586C127.668 50.0742 128.031 49.6484 128.508 49.2812C128.984 48.9062 129.551 48.6133 130.207 48.4023C130.871 48.1914 131.613 48.0859 132.434 48.0859C133.418 48.0859 134.293 48.25 135.059 48.5781C135.824 48.9062 136.426 49.3984 136.863 50.0547C137.309 50.7109 137.531 51.5312 137.531 52.5156V57.9414C137.531 58.6367 137.574 59.207 137.66 59.6523C137.746 60.0898 137.871 60.4727 138.035 60.8008V61H134.625C134.461 60.6562 134.336 60.2266 134.25 59.7109C134.172 59.1875 134.133 58.6641 134.133 58.1406ZM134.578 53.2773L134.602 55.1875H132.715C132.27 55.1875 131.883 55.2383 131.555 55.3398C131.227 55.4414 130.957 55.5859 130.746 55.7734C130.535 55.9531 130.379 56.1641 130.277 56.4062C130.184 56.6484 130.137 56.9141 130.137 57.2031C130.137 57.4922 130.203 57.7539 130.336 57.9883C130.469 58.2148 130.66 58.3945 130.91 58.5273C131.16 58.6523 131.453 58.7148 131.789 58.7148C132.297 58.7148 132.738 58.6133 133.113 58.4102C133.488 58.207 133.777 57.957 133.98 57.6602C134.191 57.3633 134.301 57.082 134.309 56.8164L135.199 58.2461C135.074 58.5664 134.902 58.8984 134.684 59.2422C134.473 59.5859 134.203 59.9102 133.875 60.2148C133.547 60.5117 133.152 60.7578 132.691 60.9531C132.23 61.1406 131.684 61.2344 131.051 61.2344C130.246 61.2344 129.516 61.0742 128.859 60.7539C128.211 60.4258 127.695 59.9766 127.312 59.4062C126.938 58.8281 126.75 58.1719 126.75 57.4375C126.75 56.7734 126.875 56.1836 127.125 55.668C127.375 55.1523 127.742 54.7188 128.227 54.3672C128.719 54.0078 129.332 53.7383 130.066 53.5586C130.801 53.3711 131.652 53.2773 132.621 53.2773H134.578ZM143.438 51.0273V61H140.062V48.3203H143.227L143.438 51.0273ZM142.945 54.2148H142.031C142.031 53.2773 142.152 52.4336 142.395 51.6836C142.637 50.9258 142.977 50.2812 143.414 49.75C143.852 49.2109 144.371 48.8008 144.973 48.5195C145.582 48.2305 146.262 48.0859 147.012 48.0859C147.605 48.0859 148.148 48.1719 148.641 48.3438C149.133 48.5156 149.555 48.7891 149.906 49.1641C150.266 49.5391 150.539 50.0352 150.727 50.6523C150.922 51.2695 151.02 52.0234 151.02 52.9141V61H147.621V52.9023C147.621 52.3398 147.543 51.9023 147.387 51.5898C147.23 51.2773 147 51.0586 146.695 50.9336C146.398 50.8008 146.031 50.7344 145.594 50.7344C145.141 50.7344 144.746 50.8242 144.41 51.0039C144.082 51.1836 143.809 51.4336 143.59 51.7539C143.379 52.0664 143.219 52.4336 143.109 52.8555C143 53.2773 142.945 53.7305 142.945 54.2148ZM158.824 58.5977C159.238 58.5977 159.605 58.5195 159.926 58.3633C160.246 58.1992 160.496 57.9727 160.676 57.6836C160.863 57.3867 160.961 57.0391 160.969 56.6406H164.145C164.137 57.5312 163.898 58.3242 163.43 59.0195C162.961 59.707 162.332 60.25 161.543 60.6484C160.754 61.0391 159.871 61.2344 158.895 61.2344C157.91 61.2344 157.051 61.0703 156.316 60.7422C155.59 60.4141 154.984 59.9609 154.5 59.3828C154.016 58.7969 153.652 58.1172 153.41 57.3438C153.168 56.5625 153.047 55.7266 153.047 54.8359V54.4961C153.047 53.5977 153.168 52.7617 153.41 51.9883C153.652 51.207 154.016 50.5273 154.5 49.9492C154.984 49.3633 155.59 48.9062 156.316 48.5781C157.043 48.25 157.895 48.0859 158.871 48.0859C159.91 48.0859 160.82 48.2852 161.602 48.6836C162.391 49.082 163.008 49.6523 163.453 50.3945C163.906 51.1289 164.137 52 164.145 53.0078H160.969C160.961 52.5859 160.871 52.2031 160.699 51.8594C160.535 51.5156 160.293 51.2422 159.973 51.0391C159.66 50.8281 159.273 50.7227 158.812 50.7227C158.32 50.7227 157.918 50.8281 157.605 51.0391C157.293 51.2422 157.051 51.5234 156.879 51.8828C156.707 52.2344 156.586 52.6367 156.516 53.0898C156.453 53.5352 156.422 54.0039 156.422 54.4961V54.8359C156.422 55.3281 156.453 55.8008 156.516 56.2539C156.578 56.707 156.695 57.1094 156.867 57.4609C157.047 57.8125 157.293 58.0898 157.605 58.293C157.918 58.4961 158.324 58.5977 158.824 58.5977ZM169.664 48.3203V61H166.277V48.3203H169.664ZM166.066 45.0156C166.066 44.5234 166.238 44.1172 166.582 43.7969C166.926 43.4766 167.387 43.3164 167.965 43.3164C168.535 43.3164 168.992 43.4766 169.336 43.7969C169.688 44.1172 169.863 44.5234 169.863 45.0156C169.863 45.5078 169.688 45.9141 169.336 46.2344C168.992 46.5547 168.535 46.7148 167.965 46.7148C167.387 46.7148 166.926 46.5547 166.582 46.2344C166.238 45.9141 166.066 45.5078 166.066 45.0156ZM179.297 58.1406V52.4922C179.297 52.0859 179.23 51.7383 179.098 51.4492C178.965 51.1523 178.758 50.9219 178.477 50.7578C178.203 50.5938 177.848 50.5117 177.41 50.5117C177.035 50.5117 176.711 50.5781 176.438 50.7109C176.164 50.8359 175.953 51.0195 175.805 51.2617C175.656 51.4961 175.582 51.7734 175.582 52.0938H172.207C172.207 51.5547 172.332 51.043 172.582 50.5586C172.832 50.0742 173.195 49.6484 173.672 49.2812C174.148 48.9062 174.715 48.6133 175.371 48.4023C176.035 48.1914 176.777 48.0859 177.598 48.0859C178.582 48.0859 179.457 48.25 180.223 48.5781C180.988 48.9062 181.59 49.3984 182.027 50.0547C182.473 50.7109 182.695 51.5312 182.695 52.5156V57.9414C182.695 58.6367 182.738 59.207 182.824 59.6523C182.91 60.0898 183.035 60.4727 183.199 60.8008V61H179.789C179.625 60.6562 179.5 60.2266 179.414 59.7109C179.336 59.1875 179.297 58.6641 179.297 58.1406ZM179.742 53.2773L179.766 55.1875H177.879C177.434 55.1875 177.047 55.2383 176.719 55.3398C176.391 55.4414 176.121 55.5859 175.91 55.7734C175.699 55.9531 175.543 56.1641 175.441 56.4062C175.348 56.6484 175.301 56.9141 175.301 57.2031C175.301 57.4922 175.367 57.7539 175.5 57.9883C175.633 58.2148 175.824 58.3945 176.074 58.5273C176.324 58.6523 176.617 58.7148 176.953 58.7148C177.461 58.7148 177.902 58.6133 178.277 58.4102C178.652 58.207 178.941 57.957 179.145 57.6602C179.355 57.3633 179.465 57.082 179.473 56.8164L180.363 58.2461C180.238 58.5664 180.066 58.8984 179.848 59.2422C179.637 59.5859 179.367 59.9102 179.039 60.2148C178.711 60.5117 178.316 60.7578 177.855 60.9531C177.395 61.1406 176.848 61.2344 176.215 61.2344C175.41 61.2344 174.68 61.0742 174.023 60.7539C173.375 60.4258 172.859 59.9766 172.477 59.4062C172.102 58.8281 171.914 58.1719 171.914 57.4375C171.914 56.7734 172.039 56.1836 172.289 55.668C172.539 55.1523 172.906 54.7188 173.391 54.3672C173.883 54.0078 174.496 53.7383 175.23 53.5586C175.965 53.3711 176.816 53.2773 177.785 53.2773H179.742ZM188.859 43V61H185.473V43H188.859ZM197.836 43.9375H204.199C205.504 43.9375 206.625 44.1328 207.562 44.5234C208.508 44.9141 209.234 45.4922 209.742 46.2578C210.25 47.0234 210.504 47.9648 210.504 49.082C210.504 49.9961 210.348 50.7812 210.035 51.4375C209.73 52.0859 209.297 52.6289 208.734 53.0664C208.18 53.4961 207.527 53.8398 206.777 54.0977L205.664 54.6836H200.133L200.109 51.9414H204.223C204.84 51.9414 205.352 51.832 205.758 51.6133C206.164 51.3945 206.469 51.0898 206.672 50.6992C206.883 50.3086 206.988 49.8555 206.988 49.3398C206.988 48.793 206.887 48.3203 206.684 47.9219C206.48 47.5234 206.172 47.2188 205.758 47.0078C205.344 46.7969 204.824 46.6914 204.199 46.6914H201.352V61H197.836V43.9375ZM207.375 61L203.484 53.3945L207.199 53.3711L211.137 60.8359V61H207.375ZM216.562 48.3203V61H213.176V48.3203H216.562ZM212.965 45.0156C212.965 44.5234 213.137 44.1172 213.48 43.7969C213.824 43.4766 214.285 43.3164 214.863 43.3164C215.434 43.3164 215.891 43.4766 216.234 43.7969C216.586 44.1172 216.762 44.5234 216.762 45.0156C216.762 45.5078 216.586 45.9141 216.234 46.2344C215.891 46.5547 215.434 46.7148 214.863 46.7148C214.285 46.7148 213.824 46.5547 213.48 46.2344C213.137 45.9141 212.965 45.5078 212.965 45.0156ZM226.207 57.4961C226.207 57.2539 226.137 57.0352 225.996 56.8398C225.855 56.6445 225.594 56.4648 225.211 56.3008C224.836 56.1289 224.293 55.9727 223.582 55.832C222.941 55.6914 222.344 55.5156 221.789 55.3047C221.242 55.0859 220.766 54.8242 220.359 54.5195C219.961 54.2148 219.648 53.8555 219.422 53.4414C219.195 53.0195 219.082 52.5391 219.082 52C219.082 51.4688 219.195 50.9688 219.422 50.5C219.656 50.0312 219.988 49.6172 220.418 49.2578C220.855 48.8906 221.387 48.6055 222.012 48.4023C222.645 48.1914 223.355 48.0859 224.145 48.0859C225.246 48.0859 226.191 48.2617 226.98 48.6133C227.777 48.9648 228.387 49.4492 228.809 50.0664C229.238 50.6758 229.453 51.3711 229.453 52.1523H226.078C226.078 51.8242 226.008 51.5312 225.867 51.2734C225.734 51.0078 225.523 50.8008 225.234 50.6523C224.953 50.4961 224.586 50.418 224.133 50.418C223.758 50.418 223.434 50.4844 223.16 50.6172C222.887 50.7422 222.676 50.9141 222.527 51.1328C222.387 51.3438 222.316 51.5781 222.316 51.8359C222.316 52.0312 222.355 52.207 222.434 52.3633C222.52 52.5117 222.656 52.6484 222.844 52.7734C223.031 52.8984 223.273 53.0156 223.57 53.125C223.875 53.2266 224.25 53.3203 224.695 53.4062C225.609 53.5938 226.426 53.8398 227.145 54.1445C227.863 54.4414 228.434 54.8477 228.855 55.3633C229.277 55.8711 229.488 56.5391 229.488 57.3672C229.488 57.9297 229.363 58.4453 229.113 58.9141C228.863 59.3828 228.504 59.793 228.035 60.1445C227.566 60.4883 227.004 60.7578 226.348 60.9531C225.699 61.1406 224.969 61.2344 224.156 61.2344C222.977 61.2344 221.977 61.0234 221.156 60.6016C220.344 60.1797 219.727 59.6445 219.305 58.9961C218.891 58.3398 218.684 57.668 218.684 56.9805H221.883C221.898 57.4414 222.016 57.8125 222.234 58.0938C222.461 58.375 222.746 58.5781 223.09 58.7031C223.441 58.8281 223.82 58.8906 224.227 58.8906C224.664 58.8906 225.027 58.832 225.316 58.7148C225.605 58.5898 225.824 58.4258 225.973 58.2227C226.129 58.0117 226.207 57.7695 226.207 57.4961ZM235.055 42.9883V61H231.68V42.9883H235.055ZM243.047 48.3203L237.539 54.6016L234.586 57.5898L233.355 55.1523L235.699 52.1758L238.992 48.3203H243.047ZM239.543 61L235.793 55.1406L238.125 53.1016L243.434 61H239.543ZM250.688 43.9375H257.051C258.355 43.9375 259.477 44.1328 260.414 44.5234C261.359 44.9141 262.086 45.4922 262.594 46.2578C263.102 47.0234 263.355 47.9648 263.355 49.082C263.355 49.9961 263.199 50.7812 262.887 51.4375C262.582 52.0859 262.148 52.6289 261.586 53.0664C261.031 53.4961 260.379 53.8398 259.629 54.0977L258.516 54.6836H252.984L252.961 51.9414H257.074C257.691 51.9414 258.203 51.832 258.609 51.6133C259.016 51.3945 259.32 51.0898 259.523 50.6992C259.734 50.3086 259.84 49.8555 259.84 49.3398C259.84 48.793 259.738 48.3203 259.535 47.9219C259.332 47.5234 259.023 47.2188 258.609 47.0078C258.195 46.7969 257.676 46.6914 257.051 46.6914H254.203V61H250.688V43.9375ZM260.227 61L256.336 53.3945L260.051 53.3711L263.988 60.8359V61H260.227ZM272.695 58.1406V52.4922C272.695 52.0859 272.629 51.7383 272.496 51.4492C272.363 51.1523 272.156 50.9219 271.875 50.7578C271.602 50.5938 271.246 50.5117 270.809 50.5117C270.434 50.5117 270.109 50.5781 269.836 50.7109C269.562 50.8359 269.352 51.0195 269.203 51.2617C269.055 51.4961 268.98 51.7734 268.98 52.0938H265.605C265.605 51.5547 265.73 51.043 265.98 50.5586C266.23 50.0742 266.594 49.6484 267.07 49.2812C267.547 48.9062 268.113 48.6133 268.77 48.4023C269.434 48.1914 270.176 48.0859 270.996 48.0859C271.98 48.0859 272.855 48.25 273.621 48.5781C274.387 48.9062 274.988 49.3984 275.426 50.0547C275.871 50.7109 276.094 51.5312 276.094 52.5156V57.9414C276.094 58.6367 276.137 59.207 276.223 59.6523C276.309 60.0898 276.434 60.4727 276.598 60.8008V61H273.188C273.023 60.6562 272.898 60.2266 272.812 59.7109C272.734 59.1875 272.695 58.6641 272.695 58.1406ZM273.141 53.2773L273.164 55.1875H271.277C270.832 55.1875 270.445 55.2383 270.117 55.3398C269.789 55.4414 269.52 55.5859 269.309 55.7734C269.098 55.9531 268.941 56.1641 268.84 56.4062C268.746 56.6484 268.699 56.9141 268.699 57.2031C268.699 57.4922 268.766 57.7539 268.898 57.9883C269.031 58.2148 269.223 58.3945 269.473 58.5273C269.723 58.6523 270.016 58.7148 270.352 58.7148C270.859 58.7148 271.301 58.6133 271.676 58.4102C272.051 58.207 272.34 57.957 272.543 57.6602C272.754 57.3633 272.863 57.082 272.871 56.8164L273.762 58.2461C273.637 58.5664 273.465 58.8984 273.246 59.2422C273.035 59.5859 272.766 59.9102 272.438 60.2148C272.109 60.5117 271.715 60.7578 271.254 60.9531C270.793 61.1406 270.246 61.2344 269.613 61.2344C268.809 61.2344 268.078 61.0742 267.422 60.7539C266.773 60.4258 266.258 59.9766 265.875 59.4062C265.5 58.8281 265.312 58.1719 265.312 57.4375C265.312 56.7734 265.438 56.1836 265.688 55.668C265.938 55.1523 266.305 54.7188 266.789 54.3672C267.281 54.0078 267.895 53.7383 268.629 53.5586C269.363 53.3711 270.215 53.2773 271.184 53.2773H273.141ZM286.184 58.2344V43H289.582V61H286.523L286.184 58.2344ZM278.168 54.8125V54.5664C278.168 53.5977 278.277 52.7188 278.496 51.9297C278.715 51.1328 279.035 50.4492 279.457 49.8789C279.879 49.3086 280.398 48.8672 281.016 48.5547C281.633 48.2422 282.336 48.0859 283.125 48.0859C283.867 48.0859 284.516 48.2422 285.07 48.5547C285.633 48.8672 286.109 49.3125 286.5 49.8906C286.898 50.4609 287.219 51.1367 287.461 51.918C287.703 52.6914 287.879 53.5391 287.988 54.4609V55C287.879 55.8828 287.703 56.7031 287.461 57.4609C287.219 58.2188 286.898 58.8828 286.5 59.4531C286.109 60.0156 285.633 60.4531 285.07 60.7656C284.508 61.0781 283.852 61.2344 283.102 61.2344C282.312 61.2344 281.609 61.0742 280.992 60.7539C280.383 60.4336 279.867 59.9844 279.445 59.4062C279.031 58.8281 278.715 58.1484 278.496 57.3672C278.277 56.5859 278.168 55.7344 278.168 54.8125ZM281.543 54.5664V54.8125C281.543 55.3359 281.582 55.8242 281.66 56.2773C281.746 56.7305 281.883 57.1328 282.07 57.4844C282.266 57.8281 282.516 58.0977 282.82 58.293C283.133 58.4805 283.512 58.5742 283.957 58.5742C284.535 58.5742 285.012 58.4453 285.387 58.1875C285.762 57.9219 286.047 57.5586 286.242 57.0977C286.445 56.6367 286.562 56.1055 286.594 55.5039V53.9688C286.57 53.4766 286.5 53.0352 286.383 52.6445C286.273 52.2461 286.109 51.9062 285.891 51.625C285.68 51.3438 285.414 51.125 285.094 50.9688C284.781 50.8125 284.41 50.7344 283.98 50.7344C283.543 50.7344 283.168 50.8359 282.855 51.0391C282.543 51.2344 282.289 51.5039 282.094 51.8477C281.906 52.1914 281.766 52.5977 281.672 53.0664C281.586 53.5273 281.543 54.0273 281.543 54.5664ZM299.062 58.1406V52.4922C299.062 52.0859 298.996 51.7383 298.863 51.4492C298.73 51.1523 298.523 50.9219 298.242 50.7578C297.969 50.5938 297.613 50.5117 297.176 50.5117C296.801 50.5117 296.477 50.5781 296.203 50.7109C295.93 50.8359 295.719 51.0195 295.57 51.2617C295.422 51.4961 295.348 51.7734 295.348 52.0938H291.973C291.973 51.5547 292.098 51.043 292.348 50.5586C292.598 50.0742 292.961 49.6484 293.438 49.2812C293.914 48.9062 294.48 48.6133 295.137 48.4023C295.801 48.1914 296.543 48.0859 297.363 48.0859C298.348 48.0859 299.223 48.25 299.988 48.5781C300.754 48.9062 301.355 49.3984 301.793 50.0547C302.238 50.7109 302.461 51.5312 302.461 52.5156V57.9414C302.461 58.6367 302.504 59.207 302.59 59.6523C302.676 60.0898 302.801 60.4727 302.965 60.8008V61H299.555C299.391 60.6562 299.266 60.2266 299.18 59.7109C299.102 59.1875 299.062 58.6641 299.062 58.1406ZM299.508 53.2773L299.531 55.1875H297.645C297.199 55.1875 296.812 55.2383 296.484 55.3398C296.156 55.4414 295.887 55.5859 295.676 55.7734C295.465 55.9531 295.309 56.1641 295.207 56.4062C295.113 56.6484 295.066 56.9141 295.066 57.2031C295.066 57.4922 295.133 57.7539 295.266 57.9883C295.398 58.2148 295.59 58.3945 295.84 58.5273C296.09 58.6523 296.383 58.7148 296.719 58.7148C297.227 58.7148 297.668 58.6133 298.043 58.4102C298.418 58.207 298.707 57.957 298.91 57.6602C299.121 57.3633 299.23 57.082 299.238 56.8164L300.129 58.2461C300.004 58.5664 299.832 58.8984 299.613 59.2422C299.402 59.5859 299.133 59.9102 298.805 60.2148C298.477 60.5117 298.082 60.7578 297.621 60.9531C297.16 61.1406 296.613 61.2344 295.98 61.2344C295.176 61.2344 294.445 61.0742 293.789 60.7539C293.141 60.4258 292.625 59.9766 292.242 59.4062C291.867 58.8281 291.68 58.1719 291.68 57.4375C291.68 56.7734 291.805 56.1836 292.055 55.668C292.305 55.1523 292.672 54.7188 293.156 54.3672C293.648 54.0078 294.262 53.7383 294.996 53.5586C295.73 53.3711 296.582 53.2773 297.551 53.2773H299.508ZM308.438 51.0859V61H305.062V48.3203H308.238L308.438 51.0859ZM312.258 48.2383L312.199 51.3672C312.035 51.3438 311.836 51.3242 311.602 51.3086C311.375 51.2852 311.168 51.2734 310.98 51.2734C310.504 51.2734 310.09 51.3359 309.738 51.4609C309.395 51.5781 309.105 51.7539 308.871 51.9883C308.645 52.2227 308.473 52.5078 308.355 52.8438C308.246 53.1797 308.184 53.5625 308.168 53.9922L307.488 53.7812C307.488 52.9609 307.57 52.207 307.734 51.5195C307.898 50.8242 308.137 50.2188 308.449 49.7031C308.77 49.1875 309.16 48.7891 309.621 48.5078C310.082 48.2266 310.609 48.0859 311.203 48.0859C311.391 48.0859 311.582 48.1016 311.777 48.1328C311.973 48.1562 312.133 48.1914 312.258 48.2383Z" fill="#888888"/>
<path d="M104.344 84.875V119H96.1406V84.875H104.344ZM117.727 99.0078V119H109.828V93.6406H117.234L117.727 99.0078ZM116.766 105.453L114.961 105.5C114.961 103.719 115.172 102.078 115.594 100.578C116.016 99.0781 116.641 97.7734 117.469 96.6641C118.297 95.5547 119.312 94.6953 120.516 94.0859C121.734 93.4766 123.141 93.1719 124.734 93.1719C125.844 93.1719 126.852 93.3438 127.758 93.6875C128.664 94.0156 129.445 94.5391 130.102 95.2578C130.758 95.9609 131.258 96.8828 131.602 98.0234C131.961 99.1484 132.141 100.5 132.141 102.078V119H124.242V103.086C124.242 102.008 124.117 101.195 123.867 100.648C123.633 100.102 123.289 99.7344 122.836 99.5469C122.383 99.3594 121.828 99.2656 121.172 99.2656C120.484 99.2656 119.867 99.4219 119.32 99.7344C118.773 100.047 118.305 100.484 117.914 101.047C117.539 101.594 117.25 102.242 117.047 102.992C116.859 103.742 116.766 104.562 116.766 105.453ZM131.25 105.453L129.047 105.5C129.047 103.719 129.242 102.078 129.633 100.578C130.039 99.0781 130.641 97.7734 131.438 96.6641C132.25 95.5547 133.258 94.6953 134.461 94.0859C135.664 93.4766 137.062 93.1719 138.656 93.1719C139.812 93.1719 140.875 93.3438 141.844 93.6875C142.812 94.0312 143.648 94.5859 144.352 95.3516C145.055 96.1172 145.602 97.1328 145.992 98.3984C146.383 99.6484 146.578 101.195 146.578 103.039V119H138.656V103.039C138.656 101.992 138.531 101.203 138.281 100.672C138.047 100.125 137.703 99.7578 137.25 99.5703C136.797 99.3672 136.258 99.2656 135.633 99.2656C134.883 99.2656 134.234 99.4219 133.688 99.7344C133.141 100.047 132.68 100.484 132.305 101.047C131.945 101.594 131.68 102.242 131.508 102.992C131.336 103.742 131.25 104.562 131.25 105.453ZM159.07 98.5156V128.75H151.172V93.6406H158.531L159.07 98.5156ZM174.633 106.016V106.508C174.633 108.352 174.422 110.062 174 111.641C173.578 113.219 172.953 114.594 172.125 115.766C171.297 116.938 170.266 117.852 169.031 118.508C167.812 119.148 166.398 119.469 164.789 119.469C163.273 119.469 161.969 119.133 160.875 118.461C159.781 117.789 158.867 116.859 158.133 115.672C157.398 114.484 156.805 113.125 156.352 111.594C155.898 110.062 155.539 108.445 155.273 106.742V106.109C155.539 104.281 155.898 102.586 156.352 101.023C156.805 99.4453 157.398 98.0703 158.133 96.8984C158.867 95.7266 159.773 94.8125 160.852 94.1562C161.945 93.5 163.25 93.1719 164.766 93.1719C166.375 93.1719 167.789 93.4766 169.008 94.0859C170.242 94.6953 171.273 95.5703 172.102 96.7109C172.945 97.8359 173.578 99.1875 174 100.766C174.422 102.344 174.633 104.094 174.633 106.016ZM166.734 106.508V106.016C166.734 105.031 166.664 104.133 166.523 103.32C166.383 102.492 166.156 101.773 165.844 101.164C165.547 100.555 165.148 100.086 164.648 99.7578C164.148 99.4297 163.531 99.2656 162.797 99.2656C161.953 99.2656 161.242 99.3984 160.664 99.6641C160.102 99.9141 159.648 100.305 159.305 100.836C158.977 101.352 158.742 102 158.602 102.781C158.477 103.547 158.422 104.445 158.438 105.477V107.398C158.406 108.586 158.523 109.633 158.789 110.539C159.055 111.43 159.516 112.125 160.172 112.625C160.828 113.125 161.719 113.375 162.844 113.375C163.594 113.375 164.219 113.203 164.719 112.859C165.219 112.5 165.617 112.008 165.914 111.383C166.211 110.742 166.422 110.008 166.547 109.18C166.672 108.352 166.734 107.461 166.734 106.508ZM186.492 83V119H178.57V83H186.492ZM203.648 119.469C201.586 119.469 199.742 119.148 198.117 118.508C196.492 117.852 195.117 116.953 193.992 115.812C192.883 114.672 192.031 113.359 191.438 111.875C190.859 110.391 190.57 108.82 190.57 107.164V106.273C190.57 104.414 190.828 102.695 191.344 101.117C191.859 99.5234 192.625 98.1328 193.641 96.9453C194.656 95.7578 195.93 94.8359 197.461 94.1797C198.992 93.5078 200.773 93.1719 202.805 93.1719C204.602 93.1719 206.211 93.4609 207.633 94.0391C209.055 94.6172 210.258 95.4453 211.242 96.5234C212.242 97.6016 213 98.9062 213.516 100.438C214.047 101.969 214.312 103.688 214.312 105.594V108.805H193.594V103.859H206.602V103.25C206.617 102.406 206.469 101.688 206.156 101.094C205.859 100.5 205.422 100.047 204.844 99.7344C204.266 99.4219 203.562 99.2656 202.734 99.2656C201.875 99.2656 201.164 99.4531 200.602 99.8281C200.055 100.203 199.625 100.719 199.312 101.375C199.016 102.016 198.805 102.758 198.68 103.602C198.555 104.445 198.492 105.336 198.492 106.273V107.164C198.492 108.102 198.617 108.953 198.867 109.719C199.133 110.484 199.508 111.141 199.992 111.688C200.492 112.219 201.086 112.633 201.773 112.93C202.477 113.227 203.273 113.375 204.164 113.375C205.242 113.375 206.305 113.172 207.352 112.766C208.398 112.359 209.297 111.688 210.047 110.75L213.633 115.016C213.117 115.75 212.383 116.461 211.43 117.148C210.492 117.836 209.367 118.398 208.055 118.836C206.742 119.258 205.273 119.469 203.648 119.469ZM225.492 99.0078V119H217.594V93.6406H225L225.492 99.0078ZM224.531 105.453L222.727 105.5C222.727 103.719 222.938 102.078 223.359 100.578C223.781 99.0781 224.406 97.7734 225.234 96.6641C226.062 95.5547 227.078 94.6953 228.281 94.0859C229.5 93.4766 230.906 93.1719 232.5 93.1719C233.609 93.1719 234.617 93.3438 235.523 93.6875C236.43 94.0156 237.211 94.5391 237.867 95.2578C238.523 95.9609 239.023 96.8828 239.367 98.0234C239.727 99.1484 239.906 100.5 239.906 102.078V119H232.008V103.086C232.008 102.008 231.883 101.195 231.633 100.648C231.398 100.102 231.055 99.7344 230.602 99.5469C230.148 99.3594 229.594 99.2656 228.938 99.2656C228.25 99.2656 227.633 99.4219 227.086 99.7344C226.539 100.047 226.07 100.484 225.68 101.047C225.305 101.594 225.016 102.242 224.812 102.992C224.625 103.742 224.531 104.562 224.531 105.453ZM239.016 105.453L236.812 105.5C236.812 103.719 237.008 102.078 237.398 100.578C237.805 99.0781 238.406 97.7734 239.203 96.6641C240.016 95.5547 241.023 94.6953 242.227 94.0859C243.43 93.4766 244.828 93.1719 246.422 93.1719C247.578 93.1719 248.641 93.3438 249.609 93.6875C250.578 94.0312 251.414 94.5859 252.117 95.3516C252.82 96.1172 253.367 97.1328 253.758 98.3984C254.148 99.6484 254.344 101.195 254.344 103.039V119H246.422V103.039C246.422 101.992 246.297 101.203 246.047 100.672C245.812 100.125 245.469 99.7578 245.016 99.5703C244.562 99.3672 244.023 99.2656 243.398 99.2656C242.648 99.2656 242 99.4219 241.453 99.7344C240.906 100.047 240.445 100.484 240.07 101.047C239.711 101.594 239.445 102.242 239.273 102.992C239.102 103.742 239.016 104.562 239.016 105.453ZM271.148 119.469C269.086 119.469 267.242 119.148 265.617 118.508C263.992 117.852 262.617 116.953 261.492 115.812C260.383 114.672 259.531 113.359 258.938 111.875C258.359 110.391 258.07 108.82 258.07 107.164V106.273C258.07 104.414 258.328 102.695 258.844 101.117C259.359 99.5234 260.125 98.1328 261.141 96.9453C262.156 95.7578 263.43 94.8359 264.961 94.1797C266.492 93.5078 268.273 93.1719 270.305 93.1719C272.102 93.1719 273.711 93.4609 275.133 94.0391C276.555 94.6172 277.758 95.4453 278.742 96.5234C279.742 97.6016 280.5 98.9062 281.016 100.438C281.547 101.969 281.812 103.688 281.812 105.594V108.805H261.094V103.859H274.102V103.25C274.117 102.406 273.969 101.688 273.656 101.094C273.359 100.5 272.922 100.047 272.344 99.7344C271.766 99.4219 271.062 99.2656 270.234 99.2656C269.375 99.2656 268.664 99.4531 268.102 99.8281C267.555 100.203 267.125 100.719 266.812 101.375C266.516 102.016 266.305 102.758 266.18 103.602C266.055 104.445 265.992 105.336 265.992 106.273V107.164C265.992 108.102 266.117 108.953 266.367 109.719C266.633 110.484 267.008 111.141 267.492 111.688C267.992 112.219 268.586 112.633 269.273 112.93C269.977 113.227 270.773 113.375 271.664 113.375C272.742 113.375 273.805 113.172 274.852 112.766C275.898 112.359 276.797 111.688 277.547 110.75L281.133 115.016C280.617 115.75 279.883 116.461 278.93 117.148C277.992 117.836 276.867 118.398 275.555 118.836C274.242 119.258 272.773 119.469 271.148 119.469ZM292.781 99.0547V119H284.883V93.6406H292.289L292.781 99.0547ZM291.844 105.453L289.992 105.5C289.992 103.562 290.227 101.836 290.695 100.32C291.164 98.7891 291.828 97.4922 292.688 96.4297C293.547 95.3672 294.57 94.5625 295.758 94.0156C296.961 93.4531 298.297 93.1719 299.766 93.1719C300.938 93.1719 302.008 93.3438 302.977 93.6875C303.961 94.0312 304.805 94.5859 305.508 95.3516C306.227 96.1172 306.773 97.1328 307.148 98.3984C307.539 99.6484 307.734 101.195 307.734 103.039V119H299.789V103.016C299.789 102 299.648 101.227 299.367 100.695C299.086 100.148 298.68 99.7734 298.148 99.5703C297.617 99.3672 296.969 99.2656 296.203 99.2656C295.391 99.2656 294.703 99.4219 294.141 99.7344C293.578 100.047 293.125 100.484 292.781 101.047C292.453 101.594 292.211 102.242 292.055 102.992C291.914 103.742 291.844 104.562 291.844 105.453ZM325.477 93.6406V99.125H310.195V93.6406H325.477ZM313.406 87.3359H321.305V110.727C321.305 111.398 321.383 111.922 321.539 112.297C321.695 112.656 321.961 112.914 322.336 113.07C322.727 113.211 323.242 113.281 323.883 113.281C324.336 113.281 324.711 113.273 325.008 113.258C325.305 113.227 325.586 113.188 325.852 113.141V118.789C325.18 119.008 324.477 119.172 323.742 119.281C323.008 119.406 322.227 119.469 321.398 119.469C319.711 119.469 318.266 119.203 317.062 118.672C315.875 118.141 314.969 117.305 314.344 116.164C313.719 115.023 313.406 113.539 313.406 111.711V87.3359ZM341.789 112.625V102.172C341.789 101.453 341.688 100.836 341.484 100.32C341.281 99.8047 340.961 99.4062 340.523 99.125C340.086 98.8281 339.5 98.6797 338.766 98.6797C338.172 98.6797 337.664 98.7812 337.242 98.9844C336.82 99.1875 336.5 99.4922 336.281 99.8984C336.062 100.305 335.953 100.82 335.953 101.445H328.055C328.055 100.273 328.312 99.1875 328.828 98.1875C329.359 97.1719 330.109 96.2891 331.078 95.5391C332.062 94.7891 333.234 94.2109 334.594 93.8047C335.969 93.3828 337.5 93.1719 339.188 93.1719C341.203 93.1719 343 93.5078 344.578 94.1797C346.172 94.8516 347.43 95.8594 348.352 97.2031C349.273 98.5312 349.734 100.203 349.734 102.219V112.602C349.734 114.258 349.828 115.516 350.016 116.375C350.203 117.219 350.469 117.961 350.812 118.602V119H342.891C342.516 118.219 342.234 117.266 342.047 116.141C341.875 115 341.789 113.828 341.789 112.625ZM342.75 103.508L342.797 107.727H339.305C338.57 107.727 337.945 107.828 337.43 108.031C336.93 108.234 336.523 108.516 336.211 108.875C335.914 109.219 335.695 109.609 335.555 110.047C335.43 110.484 335.367 110.945 335.367 111.43C335.367 111.898 335.477 112.32 335.695 112.695C335.93 113.055 336.242 113.336 336.633 113.539C337.023 113.742 337.461 113.844 337.945 113.844C338.82 113.844 339.562 113.68 340.172 113.352C340.797 113.008 341.273 112.594 341.602 112.109C341.93 111.625 342.094 111.172 342.094 110.75L343.828 113.984C343.516 114.609 343.156 115.242 342.75 115.883C342.359 116.523 341.867 117.117 341.273 117.664C340.695 118.195 339.984 118.633 339.141 118.977C338.297 119.305 337.273 119.469 336.07 119.469C334.508 119.469 333.07 119.148 331.758 118.508C330.461 117.867 329.422 116.977 328.641 115.836C327.859 114.68 327.469 113.352 327.469 111.852C327.469 110.539 327.703 109.367 328.172 108.336C328.656 107.305 329.383 106.43 330.352 105.711C331.32 104.992 332.555 104.445 334.055 104.07C335.555 103.695 337.32 103.508 339.352 103.508H342.75ZM367.477 93.6406V99.125H352.195V93.6406H367.477ZM355.406 87.3359H363.305V110.727C363.305 111.398 363.383 111.922 363.539 112.297C363.695 112.656 363.961 112.914 364.336 113.07C364.727 113.211 365.242 113.281 365.883 113.281C366.336 113.281 366.711 113.273 367.008 113.258C367.305 113.227 367.586 113.188 367.852 113.141V118.789C367.18 119.008 366.477 119.172 365.742 119.281C365.008 119.406 364.227 119.469 363.398 119.469C361.711 119.469 360.266 119.203 359.062 118.672C357.875 118.141 356.969 117.305 356.344 116.164C355.719 115.023 355.406 113.539 355.406 111.711V87.3359ZM378.961 93.6406V119H371.039V93.6406H378.961ZM370.57 87.1016C370.57 85.9766 370.977 85.0547 371.789 84.3359C372.602 83.6172 373.656 83.2578 374.953 83.2578C376.25 83.2578 377.305 83.6172 378.117 84.3359C378.93 85.0547 379.336 85.9766 379.336 87.1016C379.336 88.2266 378.93 89.1484 378.117 89.8672C377.305 90.5859 376.25 90.9453 374.953 90.9453C373.656 90.9453 372.602 90.5859 371.789 89.8672C370.977 89.1484 370.57 88.2266 370.57 87.1016ZM382.852 106.578V106.086C382.852 104.227 383.117 102.516 383.648 100.953C384.18 99.375 384.961 98.0078 385.992 96.8516C387.023 95.6953 388.297 94.7969 389.812 94.1562C391.328 93.5 393.078 93.1719 395.062 93.1719C397.062 93.1719 398.82 93.5 400.336 94.1562C401.867 94.7969 403.148 95.6953 404.18 96.8516C405.211 98.0078 405.992 99.375 406.523 100.953C407.055 102.516 407.32 104.227 407.32 106.086V106.578C407.32 108.422 407.055 110.133 406.523 111.711C405.992 113.273 405.211 114.641 404.18 115.812C403.148 116.969 401.875 117.867 400.359 118.508C398.844 119.148 397.094 119.469 395.109 119.469C393.125 119.469 391.367 119.148 389.836 118.508C388.305 117.867 387.023 116.969 385.992 115.812C384.961 114.641 384.18 113.273 383.648 111.711C383.117 110.133 382.852 108.422 382.852 106.578ZM390.75 106.086V106.578C390.75 107.531 390.82 108.422 390.961 109.25C391.102 110.078 391.336 110.805 391.664 111.43C391.992 112.039 392.438 112.516 393 112.859C393.562 113.203 394.266 113.375 395.109 113.375C395.938 113.375 396.625 113.203 397.172 112.859C397.734 112.516 398.18 112.039 398.508 111.43C398.836 110.805 399.07 110.078 399.211 109.25C399.352 108.422 399.422 107.531 399.422 106.578V106.086C399.422 105.164 399.352 104.297 399.211 103.484C399.07 102.656 398.836 101.93 398.508 101.305C398.18 100.664 397.734 100.164 397.172 99.8047C396.609 99.4453 395.906 99.2656 395.062 99.2656C394.234 99.2656 393.539 99.4453 392.977 99.8047C392.43 100.164 391.992 100.664 391.664 101.305C391.336 101.93 391.102 102.656 390.961 103.484C390.82 104.297 390.75 105.164 390.75 106.086ZM418.594 99.0547V119H410.695V93.6406H418.102L418.594 99.0547ZM417.656 105.453L415.805 105.5C415.805 103.562 416.039 101.836 416.508 100.32C416.977 98.7891 417.641 97.4922 418.5 96.4297C419.359 95.3672 420.383 94.5625 421.57 94.0156C422.773 93.4531 424.109 93.1719 425.578 93.1719C426.75 93.1719 427.82 93.3438 428.789 93.6875C429.773 94.0312 430.617 94.5859 431.32 95.3516C432.039 96.1172 432.586 97.1328 432.961 98.3984C433.352 99.6484 433.547 101.195 433.547 103.039V119H425.602V103.016C425.602 102 425.461 101.227 425.18 100.695C424.898 100.148 424.492 99.7734 423.961 99.5703C423.43 99.3672 422.781 99.2656 422.016 99.2656C421.203 99.2656 420.516 99.4219 419.953 99.7344C419.391 100.047 418.938 100.484 418.594 101.047C418.266 101.594 418.023 102.242 417.867 102.992C417.727 103.742 417.656 104.562 417.656 105.453Z" fill="black"/>
<path d="M1134 0H1348C1356.28 0 1363 6.71573 1363 15V148C1363 156.284 1356.28 163 1348 163H1134V0Z" fill="#28EEA7"/>
<path d="M1280.07 47.5H1216.93L1214.5 49.9286V113.071L1216.93 115.5H1280.07L1282.5 113.071V49.9286L1280.07 47.5ZM1277.64 110.643H1233.93V100.929H1245.1C1246.56 103.843 1249.96 105.786 1253.36 105.786C1258.7 105.786 1263.07 101.414 1263.07 96.0714C1263.07 90.7286 1258.7 86.3571 1253.36 86.3571C1248.01 86.3571 1243.64 90.7286 1243.64 96.0714H1229.07V110.643H1219.36V52.3571H1229.07V63.5286C1226.16 64.9857 1224.21 68.3857 1224.21 71.7857C1224.21 77.1286 1228.59 81.5 1233.93 81.5C1239.27 81.5 1243.64 77.1286 1243.64 71.7857H1253.36C1253.36 77.1286 1257.73 81.5 1263.07 81.5C1268.41 81.5 1272.79 77.1286 1272.79 71.7857C1272.79 66.4429 1268.41 62.0714 1263.07 62.0714C1259.67 62.0714 1256.27 64.0143 1254.81 66.9286H1242.19C1240.73 64.0143 1237.33 62.0714 1233.93 62.0714V52.3571H1277.64V110.643ZM1248.5 96.0714C1248.5 93.1571 1250.44 91.2143 1253.36 91.2143C1256.27 91.2143 1258.21 93.1571 1258.21 96.0714C1258.21 98.9857 1256.27 100.929 1253.36 100.929C1250.44 100.929 1248.5 98.9857 1248.5 96.0714ZM1233.93 66.9286C1236.84 66.9286 1238.79 68.8714 1238.79 71.7857C1238.79 74.7 1236.84 76.6429 1233.93 76.6429C1231.01 76.6429 1229.07 74.7 1229.07 71.7857C1229.07 68.8714 1231.01 66.9286 1233.93 66.9286ZM1263.07 66.9286C1265.99 66.9286 1267.93 68.8714 1267.93 71.7857C1267.93 74.7 1265.99 76.6429 1263.07 76.6429C1260.16 76.6429 1258.21 74.7 1258.21 71.7857C1258.21 68.8714 1260.16 66.9286 1263.07 66.9286Z" fill="white"/>
</svg>
