<svg width="1363" height="163" viewBox="0 0 1363 163" fill="none" xmlns="http://www.w3.org/2000/svg">
<path d="M0 15C0 6.71573 6.71573 0 15 0H37V163H15C6.71573 163 0 156.284 0 148V15Z" fill="#424242"/>
<rect width="1097" height="163" transform="translate(37)" fill="#F0F0F0"/>
<path d="M101.906 53.9219L94.3945 51.2383V48.0859L104.602 52.375V54.6367L101.906 53.9219ZM94.3945 56.1719L101.918 53.4297L104.602 52.7852V55.0352L94.3945 59.3242V56.1719ZM116.414 43.9375V61H112.898V43.9375H116.414ZM123.211 51.2266V53.9688H115.453V51.2266H123.211ZM124.031 43.9375V46.6914H115.453V43.9375H124.031ZM129.422 48.3203V61H126.035V48.3203H129.422ZM125.824 45.0156C125.824 44.5234 125.996 44.1172 126.34 43.7969C126.684 43.4766 127.145 43.3164 127.723 43.3164C128.293 43.3164 128.75 43.4766 129.094 43.7969C129.445 44.1172 129.621 44.5234 129.621 45.0156C129.621 45.5078 129.445 45.9141 129.094 46.2344C128.75 46.5547 128.293 46.7148 127.723 46.7148C127.145 46.7148 126.684 46.5547 126.34 46.2344C125.996 45.9141 125.824 45.5078 125.824 45.0156ZM135.516 51.0273V61H132.141V48.3203H135.305L135.516 51.0273ZM135.023 54.2148H134.109C134.109 53.2773 134.23 52.4336 134.473 51.6836C134.715 50.9258 135.055 50.2812 135.492 49.75C135.93 49.2109 136.449 48.8008 137.051 48.5195C137.66 48.2305 138.34 48.0859 139.09 48.0859C139.684 48.0859 140.227 48.1719 140.719 48.3438C141.211 48.5156 141.633 48.7891 141.984 49.1641C142.344 49.5391 142.617 50.0352 142.805 50.6523C143 51.2695 143.098 52.0234 143.098 52.9141V61H139.699V52.9023C139.699 52.3398 139.621 51.9023 139.465 51.5898C139.309 51.2773 139.078 51.0586 138.773 50.9336C138.477 50.8008 138.109 50.7344 137.672 50.7344C137.219 50.7344 136.824 50.8242 136.488 51.0039C136.16 51.1836 135.887 51.4336 135.668 51.7539C135.457 52.0664 135.297 52.4336 135.188 52.8555C135.078 53.2773 135.023 53.7305 135.023 54.2148ZM152.508 58.1406V52.4922C152.508 52.0859 152.441 51.7383 152.309 51.4492C152.176 51.1523 151.969 50.9219 151.688 50.7578C151.414 50.5938 151.059 50.5117 150.621 50.5117C150.246 50.5117 149.922 50.5781 149.648 50.7109C149.375 50.8359 149.164 51.0195 149.016 51.2617C148.867 51.4961 148.793 51.7734 148.793 52.0938H145.418C145.418 51.5547 145.543 51.043 145.793 50.5586C146.043 50.0742 146.406 49.6484 146.883 49.2812C147.359 48.9062 147.926 48.6133 148.582 48.4023C149.246 48.1914 149.988 48.0859 150.809 48.0859C151.793 48.0859 152.668 48.25 153.434 48.5781C154.199 48.9062 154.801 49.3984 155.238 50.0547C155.684 50.7109 155.906 51.5312 155.906 52.5156V57.9414C155.906 58.6367 155.949 59.207 156.035 59.6523C156.121 60.0898 156.246 60.4727 156.41 60.8008V61H153C152.836 60.6562 152.711 60.2266 152.625 59.7109C152.547 59.1875 152.508 58.6641 152.508 58.1406ZM152.953 53.2773L152.977 55.1875H151.09C150.645 55.1875 150.258 55.2383 149.93 55.3398C149.602 55.4414 149.332 55.5859 149.121 55.7734C148.91 55.9531 148.754 56.1641 148.652 56.4062C148.559 56.6484 148.512 56.9141 148.512 57.2031C148.512 57.4922 148.578 57.7539 148.711 57.9883C148.844 58.2148 149.035 58.3945 149.285 58.5273C149.535 58.6523 149.828 58.7148 150.164 58.7148C150.672 58.7148 151.113 58.6133 151.488 58.4102C151.863 58.207 152.152 57.957 152.355 57.6602C152.566 57.3633 152.676 57.082 152.684 56.8164L153.574 58.2461C153.449 58.5664 153.277 58.8984 153.059 59.2422C152.848 59.5859 152.578 59.9102 152.25 60.2148C151.922 60.5117 151.527 60.7578 151.066 60.9531C150.605 61.1406 150.059 61.2344 149.426 61.2344C148.621 61.2344 147.891 61.0742 147.234 60.7539C146.586 60.4258 146.07 59.9766 145.688 59.4062C145.312 58.8281 145.125 58.1719 145.125 57.4375C145.125 56.7734 145.25 56.1836 145.5 55.668C145.75 55.1523 146.117 54.7188 146.602 54.3672C147.094 54.0078 147.707 53.7383 148.441 53.5586C149.176 53.3711 150.027 53.2773 150.996 53.2773H152.953ZM161.812 51.0273V61H158.438V48.3203H161.602L161.812 51.0273ZM161.32 54.2148H160.406C160.406 53.2773 160.527 52.4336 160.77 51.6836C161.012 50.9258 161.352 50.2812 161.789 49.75C162.227 49.2109 162.746 48.8008 163.348 48.5195C163.957 48.2305 164.637 48.0859 165.387 48.0859C165.98 48.0859 166.523 48.1719 167.016 48.3438C167.508 48.5156 167.93 48.7891 168.281 49.1641C168.641 49.5391 168.914 50.0352 169.102 50.6523C169.297 51.2695 169.395 52.0234 169.395 52.9141V61H165.996V52.9023C165.996 52.3398 165.918 51.9023 165.762 51.5898C165.605 51.2773 165.375 51.0586 165.07 50.9336C164.773 50.8008 164.406 50.7344 163.969 50.7344C163.516 50.7344 163.121 50.8242 162.785 51.0039C162.457 51.1836 162.184 51.4336 161.965 51.7539C161.754 52.0664 161.594 52.4336 161.484 52.8555C161.375 53.2773 161.32 53.7305 161.32 54.2148ZM177.199 58.5977C177.613 58.5977 177.98 58.5195 178.301 58.3633C178.621 58.1992 178.871 57.9727 179.051 57.6836C179.238 57.3867 179.336 57.0391 179.344 56.6406H182.52C182.512 57.5312 182.273 58.3242 181.805 59.0195C181.336 59.707 180.707 60.25 179.918 60.6484C179.129 61.0391 178.246 61.2344 177.27 61.2344C176.285 61.2344 175.426 61.0703 174.691 60.7422C173.965 60.4141 173.359 59.9609 172.875 59.3828C172.391 58.7969 172.027 58.1172 171.785 57.3438C171.543 56.5625 171.422 55.7266 171.422 54.8359V54.4961C171.422 53.5977 171.543 52.7617 171.785 51.9883C172.027 51.207 172.391 50.5273 172.875 49.9492C173.359 49.3633 173.965 48.9062 174.691 48.5781C175.418 48.25 176.27 48.0859 177.246 48.0859C178.285 48.0859 179.195 48.2852 179.977 48.6836C180.766 49.082 181.383 49.6523 181.828 50.3945C182.281 51.1289 182.512 52 182.52 53.0078H179.344C179.336 52.5859 179.246 52.2031 179.074 51.8594C178.91 51.5156 178.668 51.2422 178.348 51.0391C178.035 50.8281 177.648 50.7227 177.188 50.7227C176.695 50.7227 176.293 50.8281 175.98 51.0391C175.668 51.2422 175.426 51.5234 175.254 51.8828C175.082 52.2344 174.961 52.6367 174.891 53.0898C174.828 53.5352 174.797 54.0039 174.797 54.4961V54.8359C174.797 55.3281 174.828 55.8008 174.891 56.2539C174.953 56.707 175.07 57.1094 175.242 57.4609C175.422 57.8125 175.668 58.0898 175.98 58.293C176.293 58.4961 176.699 58.5977 177.199 58.5977ZM188.039 48.3203V61H184.652V48.3203H188.039ZM184.441 45.0156C184.441 44.5234 184.613 44.1172 184.957 43.7969C185.301 43.4766 185.762 43.3164 186.34 43.3164C186.91 43.3164 187.367 43.4766 187.711 43.7969C188.062 44.1172 188.238 44.5234 188.238 45.0156C188.238 45.5078 188.062 45.9141 187.711 46.2344C187.367 46.5547 186.91 46.7148 186.34 46.7148C185.762 46.7148 185.301 46.5547 184.957 46.2344C184.613 45.9141 184.441 45.5078 184.441 45.0156ZM197.672 58.1406V52.4922C197.672 52.0859 197.605 51.7383 197.473 51.4492C197.34 51.1523 197.133 50.9219 196.852 50.7578C196.578 50.5938 196.223 50.5117 195.785 50.5117C195.41 50.5117 195.086 50.5781 194.812 50.7109C194.539 50.8359 194.328 51.0195 194.18 51.2617C194.031 51.4961 193.957 51.7734 193.957 52.0938H190.582C190.582 51.5547 190.707 51.043 190.957 50.5586C191.207 50.0742 191.57 49.6484 192.047 49.2812C192.523 48.9062 193.09 48.6133 193.746 48.4023C194.41 48.1914 195.152 48.0859 195.973 48.0859C196.957 48.0859 197.832 48.25 198.598 48.5781C199.363 48.9062 199.965 49.3984 200.402 50.0547C200.848 50.7109 201.07 51.5312 201.07 52.5156V57.9414C201.07 58.6367 201.113 59.207 201.199 59.6523C201.285 60.0898 201.41 60.4727 201.574 60.8008V61H198.164C198 60.6562 197.875 60.2266 197.789 59.7109C197.711 59.1875 197.672 58.6641 197.672 58.1406ZM198.117 53.2773L198.141 55.1875H196.254C195.809 55.1875 195.422 55.2383 195.094 55.3398C194.766 55.4414 194.496 55.5859 194.285 55.7734C194.074 55.9531 193.918 56.1641 193.816 56.4062C193.723 56.6484 193.676 56.9141 193.676 57.2031C193.676 57.4922 193.742 57.7539 193.875 57.9883C194.008 58.2148 194.199 58.3945 194.449 58.5273C194.699 58.6523 194.992 58.7148 195.328 58.7148C195.836 58.7148 196.277 58.6133 196.652 58.4102C197.027 58.207 197.316 57.957 197.52 57.6602C197.73 57.3633 197.84 57.082 197.848 56.8164L198.738 58.2461C198.613 58.5664 198.441 58.8984 198.223 59.2422C198.012 59.5859 197.742 59.9102 197.414 60.2148C197.086 60.5117 196.691 60.7578 196.23 60.9531C195.77 61.1406 195.223 61.2344 194.59 61.2344C193.785 61.2344 193.055 61.0742 192.398 60.7539C191.75 60.4258 191.234 59.9766 190.852 59.4062C190.477 58.8281 190.289 58.1719 190.289 57.4375C190.289 56.7734 190.414 56.1836 190.664 55.668C190.914 55.1523 191.281 54.7188 191.766 54.3672C192.258 54.0078 192.871 53.7383 193.605 53.5586C194.34 53.3711 195.191 53.2773 196.16 53.2773H198.117ZM207.234 43V61H203.848V43H207.234ZM216.211 43.9375H222.574C223.879 43.9375 225 44.1328 225.938 44.5234C226.883 44.9141 227.609 45.4922 228.117 46.2578C228.625 47.0234 228.879 47.9648 228.879 49.082C228.879 49.9961 228.723 50.7812 228.41 51.4375C228.105 52.0859 227.672 52.6289 227.109 53.0664C226.555 53.4961 225.902 53.8398 225.152 54.0977L224.039 54.6836H218.508L218.484 51.9414H222.598C223.215 51.9414 223.727 51.832 224.133 51.6133C224.539 51.3945 224.844 51.0898 225.047 50.6992C225.258 50.3086 225.363 49.8555 225.363 49.3398C225.363 48.793 225.262 48.3203 225.059 47.9219C224.855 47.5234 224.547 47.2188 224.133 47.0078C223.719 46.7969 223.199 46.6914 222.574 46.6914H219.727V61H216.211V43.9375ZM225.75 61L221.859 53.3945L225.574 53.3711L229.512 60.8359V61H225.75ZM234.938 48.3203V61H231.551V48.3203H234.938ZM231.34 45.0156C231.34 44.5234 231.512 44.1172 231.855 43.7969C232.199 43.4766 232.66 43.3164 233.238 43.3164C233.809 43.3164 234.266 43.4766 234.609 43.7969C234.961 44.1172 235.137 44.5234 235.137 45.0156C235.137 45.5078 234.961 45.9141 234.609 46.2344C234.266 46.5547 233.809 46.7148 233.238 46.7148C232.66 46.7148 232.199 46.5547 231.855 46.2344C231.512 45.9141 231.34 45.5078 231.34 45.0156ZM244.582 57.4961C244.582 57.2539 244.512 57.0352 244.371 56.8398C244.23 56.6445 243.969 56.4648 243.586 56.3008C243.211 56.1289 242.668 55.9727 241.957 55.832C241.316 55.6914 240.719 55.5156 240.164 55.3047C239.617 55.0859 239.141 54.8242 238.734 54.5195C238.336 54.2148 238.023 53.8555 237.797 53.4414C237.57 53.0195 237.457 52.5391 237.457 52C237.457 51.4688 237.57 50.9688 237.797 50.5C238.031 50.0312 238.363 49.6172 238.793 49.2578C239.23 48.8906 239.762 48.6055 240.387 48.4023C241.02 48.1914 241.73 48.0859 242.52 48.0859C243.621 48.0859 244.566 48.2617 245.355 48.6133C246.152 48.9648 246.762 49.4492 247.184 50.0664C247.613 50.6758 247.828 51.3711 247.828 52.1523H244.453C244.453 51.8242 244.383 51.5312 244.242 51.2734C244.109 51.0078 243.898 50.8008 243.609 50.6523C243.328 50.4961 242.961 50.418 242.508 50.418C242.133 50.418 241.809 50.4844 241.535 50.6172C241.262 50.7422 241.051 50.9141 240.902 51.1328C240.762 51.3438 240.691 51.5781 240.691 51.8359C240.691 52.0312 240.73 52.207 240.809 52.3633C240.895 52.5117 241.031 52.6484 241.219 52.7734C241.406 52.8984 241.648 53.0156 241.945 53.125C242.25 53.2266 242.625 53.3203 243.07 53.4062C243.984 53.5938 244.801 53.8398 245.52 54.1445C246.238 54.4414 246.809 54.8477 247.23 55.3633C247.652 55.8711 247.863 56.5391 247.863 57.3672C247.863 57.9297 247.738 58.4453 247.488 58.9141C247.238 59.3828 246.879 59.793 246.41 60.1445C245.941 60.4883 245.379 60.7578 244.723 60.9531C244.074 61.1406 243.344 61.2344 242.531 61.2344C241.352 61.2344 240.352 61.0234 239.531 60.6016C238.719 60.1797 238.102 59.6445 237.68 58.9961C237.266 58.3398 237.059 57.668 237.059 56.9805H240.258C240.273 57.4414 240.391 57.8125 240.609 58.0938C240.836 58.375 241.121 58.5781 241.465 58.7031C241.816 58.8281 242.195 58.8906 242.602 58.8906C243.039 58.8906 243.402 58.832 243.691 58.7148C243.98 58.5898 244.199 58.4258 244.348 58.2227C244.504 58.0117 244.582 57.7695 244.582 57.4961ZM253.43 42.9883V61H250.055V42.9883H253.43ZM261.422 48.3203L255.914 54.6016L252.961 57.5898L251.73 55.1523L254.074 52.1758L257.367 48.3203H261.422ZM257.918 61L254.168 55.1406L256.5 53.1016L261.809 61H257.918ZM269.062 43.9375H275.426C276.73 43.9375 277.852 44.1328 278.789 44.5234C279.734 44.9141 280.461 45.4922 280.969 46.2578C281.477 47.0234 281.73 47.9648 281.73 49.082C281.73 49.9961 281.574 50.7812 281.262 51.4375C280.957 52.0859 280.523 52.6289 279.961 53.0664C279.406 53.4961 278.754 53.8398 278.004 54.0977L276.891 54.6836H271.359L271.336 51.9414H275.449C276.066 51.9414 276.578 51.832 276.984 51.6133C277.391 51.3945 277.695 51.0898 277.898 50.6992C278.109 50.3086 278.215 49.8555 278.215 49.3398C278.215 48.793 278.113 48.3203 277.91 47.9219C277.707 47.5234 277.398 47.2188 276.984 47.0078C276.57 46.7969 276.051 46.6914 275.426 46.6914H272.578V61H269.062V43.9375ZM278.602 61L274.711 53.3945L278.426 53.3711L282.363 60.8359V61H278.602ZM291.07 58.1406V52.4922C291.07 52.0859 291.004 51.7383 290.871 51.4492C290.738 51.1523 290.531 50.9219 290.25 50.7578C289.977 50.5938 289.621 50.5117 289.184 50.5117C288.809 50.5117 288.484 50.5781 288.211 50.7109C287.938 50.8359 287.727 51.0195 287.578 51.2617C287.43 51.4961 287.355 51.7734 287.355 52.0938H283.98C283.98 51.5547 284.105 51.043 284.355 50.5586C284.605 50.0742 284.969 49.6484 285.445 49.2812C285.922 48.9062 286.488 48.6133 287.145 48.4023C287.809 48.1914 288.551 48.0859 289.371 48.0859C290.355 48.0859 291.23 48.25 291.996 48.5781C292.762 48.9062 293.363 49.3984 293.801 50.0547C294.246 50.7109 294.469 51.5312 294.469 52.5156V57.9414C294.469 58.6367 294.512 59.207 294.598 59.6523C294.684 60.0898 294.809 60.4727 294.973 60.8008V61H291.562C291.398 60.6562 291.273 60.2266 291.188 59.7109C291.109 59.1875 291.07 58.6641 291.07 58.1406ZM291.516 53.2773L291.539 55.1875H289.652C289.207 55.1875 288.82 55.2383 288.492 55.3398C288.164 55.4414 287.895 55.5859 287.684 55.7734C287.473 55.9531 287.316 56.1641 287.215 56.4062C287.121 56.6484 287.074 56.9141 287.074 57.2031C287.074 57.4922 287.141 57.7539 287.273 57.9883C287.406 58.2148 287.598 58.3945 287.848 58.5273C288.098 58.6523 288.391 58.7148 288.727 58.7148C289.234 58.7148 289.676 58.6133 290.051 58.4102C290.426 58.207 290.715 57.957 290.918 57.6602C291.129 57.3633 291.238 57.082 291.246 56.8164L292.137 58.2461C292.012 58.5664 291.84 58.8984 291.621 59.2422C291.41 59.5859 291.141 59.9102 290.812 60.2148C290.484 60.5117 290.09 60.7578 289.629 60.9531C289.168 61.1406 288.621 61.2344 287.988 61.2344C287.184 61.2344 286.453 61.0742 285.797 60.7539C285.148 60.4258 284.633 59.9766 284.25 59.4062C283.875 58.8281 283.688 58.1719 283.688 57.4375C283.688 56.7734 283.812 56.1836 284.062 55.668C284.312 55.1523 284.68 54.7188 285.164 54.3672C285.656 54.0078 286.27 53.7383 287.004 53.5586C287.738 53.3711 288.59 53.2773 289.559 53.2773H291.516ZM304.559 58.2344V43H307.957V61H304.898L304.559 58.2344ZM296.543 54.8125V54.5664C296.543 53.5977 296.652 52.7188 296.871 51.9297C297.09 51.1328 297.41 50.4492 297.832 49.8789C298.254 49.3086 298.773 48.8672 299.391 48.5547C300.008 48.2422 300.711 48.0859 301.5 48.0859C302.242 48.0859 302.891 48.2422 303.445 48.5547C304.008 48.8672 304.484 49.3125 304.875 49.8906C305.273 50.4609 305.594 51.1367 305.836 51.918C306.078 52.6914 306.254 53.5391 306.363 54.4609V55C306.254 55.8828 306.078 56.7031 305.836 57.4609C305.594 58.2188 305.273 58.8828 304.875 59.4531C304.484 60.0156 304.008 60.4531 303.445 60.7656C302.883 61.0781 302.227 61.2344 301.477 61.2344C300.688 61.2344 299.984 61.0742 299.367 60.7539C298.758 60.4336 298.242 59.9844 297.82 59.4062C297.406 58.8281 297.09 58.1484 296.871 57.3672C296.652 56.5859 296.543 55.7344 296.543 54.8125ZM299.918 54.5664V54.8125C299.918 55.3359 299.957 55.8242 300.035 56.2773C300.121 56.7305 300.258 57.1328 300.445 57.4844C300.641 57.8281 300.891 58.0977 301.195 58.293C301.508 58.4805 301.887 58.5742 302.332 58.5742C302.91 58.5742 303.387 58.4453 303.762 58.1875C304.137 57.9219 304.422 57.5586 304.617 57.0977C304.82 56.6367 304.938 56.1055 304.969 55.5039V53.9688C304.945 53.4766 304.875 53.0352 304.758 52.6445C304.648 52.2461 304.484 51.9062 304.266 51.625C304.055 51.3438 303.789 51.125 303.469 50.9688C303.156 50.8125 302.785 50.7344 302.355 50.7344C301.918 50.7344 301.543 50.8359 301.23 51.0391C300.918 51.2344 300.664 51.5039 300.469 51.8477C300.281 52.1914 300.141 52.5977 300.047 53.0664C299.961 53.5273 299.918 54.0273 299.918 54.5664ZM317.438 58.1406V52.4922C317.438 52.0859 317.371 51.7383 317.238 51.4492C317.105 51.1523 316.898 50.9219 316.617 50.7578C316.344 50.5938 315.988 50.5117 315.551 50.5117C315.176 50.5117 314.852 50.5781 314.578 50.7109C314.305 50.8359 314.094 51.0195 313.945 51.2617C313.797 51.4961 313.723 51.7734 313.723 52.0938H310.348C310.348 51.5547 310.473 51.043 310.723 50.5586C310.973 50.0742 311.336 49.6484 311.812 49.2812C312.289 48.9062 312.855 48.6133 313.512 48.4023C314.176 48.1914 314.918 48.0859 315.738 48.0859C316.723 48.0859 317.598 48.25 318.363 48.5781C319.129 48.9062 319.73 49.3984 320.168 50.0547C320.613 50.7109 320.836 51.5312 320.836 52.5156V57.9414C320.836 58.6367 320.879 59.207 320.965 59.6523C321.051 60.0898 321.176 60.4727 321.34 60.8008V61H317.93C317.766 60.6562 317.641 60.2266 317.555 59.7109C317.477 59.1875 317.438 58.6641 317.438 58.1406ZM317.883 53.2773L317.906 55.1875H316.02C315.574 55.1875 315.188 55.2383 314.859 55.3398C314.531 55.4414 314.262 55.5859 314.051 55.7734C313.84 55.9531 313.684 56.1641 313.582 56.4062C313.488 56.6484 313.441 56.9141 313.441 57.2031C313.441 57.4922 313.508 57.7539 313.641 57.9883C313.773 58.2148 313.965 58.3945 314.215 58.5273C314.465 58.6523 314.758 58.7148 315.094 58.7148C315.602 58.7148 316.043 58.6133 316.418 58.4102C316.793 58.207 317.082 57.957 317.285 57.6602C317.496 57.3633 317.605 57.082 317.613 56.8164L318.504 58.2461C318.379 58.5664 318.207 58.8984 317.988 59.2422C317.777 59.5859 317.508 59.9102 317.18 60.2148C316.852 60.5117 316.457 60.7578 315.996 60.9531C315.535 61.1406 314.988 61.2344 314.355 61.2344C313.551 61.2344 312.82 61.0742 312.164 60.7539C311.516 60.4258 311 59.9766 310.617 59.4062C310.242 58.8281 310.055 58.1719 310.055 57.4375C310.055 56.7734 310.18 56.1836 310.43 55.668C310.68 55.1523 311.047 54.7188 311.531 54.3672C312.023 54.0078 312.637 53.7383 313.371 53.5586C314.105 53.3711 314.957 53.2773 315.926 53.2773H317.883ZM326.812 51.0859V61H323.438V48.3203H326.613L326.812 51.0859ZM330.633 48.2383L330.574 51.3672C330.41 51.3438 330.211 51.3242 329.977 51.3086C329.75 51.2852 329.543 51.2734 329.355 51.2734C328.879 51.2734 328.465 51.3359 328.113 51.4609C327.77 51.5781 327.48 51.7539 327.246 51.9883C327.02 52.2227 326.848 52.5078 326.73 52.8438C326.621 53.1797 326.559 53.5625 326.543 53.9922L325.863 53.7812C325.863 52.9609 325.945 52.207 326.109 51.5195C326.273 50.8242 326.512 50.2188 326.824 49.7031C327.145 49.1875 327.535 48.7891 327.996 48.5078C328.457 48.2266 328.984 48.0859 329.578 48.0859C329.766 48.0859 329.957 48.1016 330.152 48.1328C330.348 48.1562 330.508 48.1914 330.633 48.2383Z" fill="#888888"/>
<path d="M118.594 98.4219V104.75H101.086V98.4219H118.594ZM103.828 84.875V119H95.6016V84.875H103.828ZM124.125 84.875V119H115.922V84.875H124.125ZM127.992 106.578V106.086C127.992 104.227 128.258 102.516 128.789 100.953C129.32 99.375 130.102 98.0078 131.133 96.8516C132.164 95.6953 133.438 94.7969 134.953 94.1562C136.469 93.5 138.219 93.1719 140.203 93.1719C142.203 93.1719 143.961 93.5 145.477 94.1562C147.008 94.7969 148.289 95.6953 149.32 96.8516C150.352 98.0078 151.133 99.375 151.664 100.953C152.195 102.516 152.461 104.227 152.461 106.086V106.578C152.461 108.422 152.195 110.133 151.664 111.711C151.133 113.273 150.352 114.641 149.32 115.812C148.289 116.969 147.016 117.867 145.5 118.508C143.984 119.148 142.234 119.469 140.25 119.469C138.266 119.469 136.508 119.148 134.977 118.508C133.445 117.867 132.164 116.969 131.133 115.812C130.102 114.641 129.32 113.273 128.789 111.711C128.258 110.133 127.992 108.422 127.992 106.578ZM135.891 106.086V106.578C135.891 107.531 135.961 108.422 136.102 109.25C136.242 110.078 136.477 110.805 136.805 111.43C137.133 112.039 137.578 112.516 138.141 112.859C138.703 113.203 139.406 113.375 140.25 113.375C141.078 113.375 141.766 113.203 142.312 112.859C142.875 112.516 143.32 112.039 143.648 111.43C143.977 110.805 144.211 110.078 144.352 109.25C144.492 108.422 144.562 107.531 144.562 106.578V106.086C144.562 105.164 144.492 104.297 144.352 103.484C144.211 102.656 143.977 101.93 143.648 101.305C143.32 100.664 142.875 100.164 142.312 99.8047C141.75 99.4453 141.047 99.2656 140.203 99.2656C139.375 99.2656 138.68 99.4453 138.117 99.8047C137.57 100.164 137.133 100.664 136.805 101.305C136.477 101.93 136.242 102.656 136.102 103.484C135.961 104.297 135.891 105.164 135.891 106.086ZM163.688 111.453L168.375 93.6406H173.32L171.562 102.57L166.922 119H162.961L163.688 111.453ZM161.836 93.6406L164.742 111.312L165.07 119H160.266L154.266 93.6406H161.836ZM177.492 110.938L180.422 93.6406H187.992L182.039 119H177.234L177.492 110.938ZM173.883 93.6406L178.617 111.406L179.344 119H175.336L170.789 102.617L169.102 93.6406H173.883ZM218.297 84.875V119H210.07V84.875H218.297ZM228.562 84.875V91.2266H200.039V84.875H228.562ZM225.773 106.578V106.086C225.773 104.227 226.039 102.516 226.57 100.953C227.102 99.375 227.883 98.0078 228.914 96.8516C229.945 95.6953 231.219 94.7969 232.734 94.1562C234.25 93.5 236 93.1719 237.984 93.1719C239.984 93.1719 241.742 93.5 243.258 94.1562C244.789 94.7969 246.07 95.6953 247.102 96.8516C248.133 98.0078 248.914 99.375 249.445 100.953C249.977 102.516 250.242 104.227 250.242 106.086V106.578C250.242 108.422 249.977 110.133 249.445 111.711C248.914 113.273 248.133 114.641 247.102 115.812C246.07 116.969 244.797 117.867 243.281 118.508C241.766 119.148 240.016 119.469 238.031 119.469C236.047 119.469 234.289 119.148 232.758 118.508C231.227 117.867 229.945 116.969 228.914 115.812C227.883 114.641 227.102 113.273 226.57 111.711C226.039 110.133 225.773 108.422 225.773 106.578ZM233.672 106.086V106.578C233.672 107.531 233.742 108.422 233.883 109.25C234.023 110.078 234.258 110.805 234.586 111.43C234.914 112.039 235.359 112.516 235.922 112.859C236.484 113.203 237.188 113.375 238.031 113.375C238.859 113.375 239.547 113.203 240.094 112.859C240.656 112.516 241.102 112.039 241.43 111.43C241.758 110.805 241.992 110.078 242.133 109.25C242.273 108.422 242.344 107.531 242.344 106.578V106.086C242.344 105.164 242.273 104.297 242.133 103.484C241.992 102.656 241.758 101.93 241.43 101.305C241.102 100.664 240.656 100.164 240.094 99.8047C239.531 99.4453 238.828 99.2656 237.984 99.2656C237.156 99.2656 236.461 99.4453 235.898 99.8047C235.352 100.164 234.914 100.664 234.586 101.305C234.258 101.93 234.023 102.656 233.883 103.484C233.742 104.297 233.672 105.164 233.672 106.086ZM266.086 84.875H279.516C282.141 84.875 284.422 85.2656 286.359 86.0469C288.297 86.8281 289.789 87.9844 290.836 89.5156C291.898 91.0469 292.43 92.9375 292.43 95.1875C292.43 97.1406 292.125 98.7734 291.516 100.086C290.906 101.398 290.055 102.484 288.961 103.344C287.883 104.188 286.625 104.883 285.188 105.43L282.492 106.953H271.219L271.172 100.602H279.516C280.562 100.602 281.43 100.414 282.117 100.039C282.805 99.6641 283.32 99.1328 283.664 98.4453C284.023 97.7422 284.203 96.9062 284.203 95.9375C284.203 94.9531 284.023 94.1094 283.664 93.4062C283.305 92.7031 282.773 92.1641 282.07 91.7891C281.383 91.4141 280.531 91.2266 279.516 91.2266H274.312V119H266.086V84.875ZM284.766 119L277.219 103.906L285.938 103.859L293.578 118.648V119H284.766ZM311.836 112.836V93.6406H319.758V119H312.352L311.836 112.836ZM312.586 107.68L314.648 107.633C314.648 109.336 314.445 110.914 314.039 112.367C313.633 113.805 313.031 115.055 312.234 116.117C311.453 117.18 310.484 118.008 309.328 118.602C308.188 119.18 306.867 119.469 305.367 119.469C304.117 119.469 302.969 119.297 301.922 118.953C300.891 118.594 300 118.039 299.25 117.289C298.5 116.523 297.914 115.547 297.492 114.359C297.086 113.156 296.883 111.719 296.883 110.047V93.6406H304.781V110.094C304.781 110.656 304.852 111.141 304.992 111.547C305.133 111.953 305.336 112.297 305.602 112.578C305.867 112.844 306.195 113.047 306.586 113.188C306.992 113.312 307.453 113.375 307.969 113.375C309.156 113.375 310.086 113.125 310.758 112.625C311.43 112.125 311.898 111.445 312.164 110.586C312.445 109.727 312.586 108.758 312.586 107.68ZM331.875 99.0547V119H323.977V93.6406H331.383L331.875 99.0547ZM330.938 105.453L329.086 105.5C329.086 103.562 329.32 101.836 329.789 100.32C330.258 98.7891 330.922 97.4922 331.781 96.4297C332.641 95.3672 333.664 94.5625 334.852 94.0156C336.055 93.4531 337.391 93.1719 338.859 93.1719C340.031 93.1719 341.102 93.3438 342.07 93.6875C343.055 94.0312 343.898 94.5859 344.602 95.3516C345.32 96.1172 345.867 97.1328 346.242 98.3984C346.633 99.6484 346.828 101.195 346.828 103.039V119H338.883V103.016C338.883 102 338.742 101.227 338.461 100.695C338.18 100.148 337.773 99.7734 337.242 99.5703C336.711 99.3672 336.062 99.2656 335.297 99.2656C334.484 99.2656 333.797 99.4219 333.234 99.7344C332.672 100.047 332.219 100.484 331.875 101.047C331.547 101.594 331.305 102.242 331.148 102.992C331.008 103.742 330.938 104.562 330.938 105.453ZM363.773 108.195H357.047C357.047 106.82 357.141 105.609 357.328 104.562C357.531 103.5 357.875 102.547 358.359 101.703C358.844 100.859 359.5 100.078 360.328 99.3594C361.062 98.75 361.695 98.1641 362.227 97.6016C362.758 97.0391 363.164 96.4688 363.445 95.8906C363.727 95.3125 363.867 94.6953 363.867 94.0391C363.867 93.2266 363.75 92.5625 363.516 92.0469C363.297 91.5312 362.961 91.1484 362.508 90.8984C362.07 90.6328 361.516 90.5 360.844 90.5C360.297 90.5 359.781 90.6328 359.297 90.8984C358.828 91.1641 358.445 91.5781 358.148 92.1406C357.852 92.6875 357.688 93.4141 357.656 94.3203H349.711C349.758 91.9922 350.273 90.1016 351.258 88.6484C352.258 87.1797 353.586 86.1094 355.242 85.4375C356.914 84.75 358.781 84.4062 360.844 84.4062C363.125 84.4062 365.086 84.7578 366.727 85.4609C368.367 86.1641 369.625 87.2109 370.5 88.6016C371.375 89.9766 371.812 91.6719 371.812 93.6875C371.812 95.0312 371.555 96.2031 371.039 97.2031C370.539 98.1875 369.859 99.1094 369 99.9688C368.156 100.812 367.211 101.719 366.164 102.688C365.258 103.484 364.641 104.297 364.312 105.125C363.984 105.938 363.805 106.961 363.773 108.195ZM356.086 115.32C356.086 114.195 356.492 113.258 357.305 112.508C358.117 111.742 359.172 111.359 360.469 111.359C361.766 111.359 362.82 111.742 363.633 112.508C364.445 113.258 364.852 114.195 364.852 115.32C364.852 116.445 364.445 117.391 363.633 118.156C362.82 118.906 361.766 119.281 360.469 119.281C359.172 119.281 358.117 118.906 357.305 118.156C356.492 117.391 356.086 116.445 356.086 115.32Z" fill="black"/>
<path d="M1134 0H1348C1356.28 0 1363 6.71573 1363 15V148C1363 156.284 1356.28 163 1348 163H1134V0Z" fill="#4653C9"/>
<path d="M1260.62 78.8847C1263.81 78.8847 1266.93 79.805 1269.59 81.5293C1272.25 83.2536 1274.32 85.7044 1275.54 88.5718C1276.76 91.4391 1277.08 94.5943 1276.46 97.6383C1275.84 100.682 1274.3 103.478 1272.04 105.673C1269.78 107.868 1266.9 109.362 1263.77 109.968C1260.63 110.573 1257.39 110.262 1254.43 109.075C1251.48 107.887 1248.96 105.876 1247.18 103.295C1245.41 100.714 1244.46 97.6806 1244.46 94.5769C1244.46 90.4151 1246.16 86.4237 1249.19 83.4808C1252.22 80.538 1256.33 78.8847 1260.62 78.8847ZM1260.62 73.6539C1256.36 73.6539 1252.19 74.881 1248.65 77.1801C1245.11 79.4791 1242.35 82.7469 1240.72 86.57C1239.09 90.3932 1238.66 94.6001 1239.49 98.6588C1240.32 102.717 1242.37 106.446 1245.39 109.372C1248.4 112.298 1252.24 114.291 1256.41 115.098C1260.59 115.905 1264.92 115.491 1268.86 113.907C1272.79 112.324 1276.16 109.642 1278.52 106.201C1280.89 102.76 1282.15 98.7151 1282.15 94.5769C1282.15 89.0278 1279.88 83.706 1275.85 79.7821C1271.81 75.8583 1266.33 73.6539 1260.62 73.6539Z" fill="white"/>
<path d="M1274.08 47.5H1220.23C1218.8 47.5 1217.43 48.0511 1216.42 49.0321C1215.41 50.013 1214.85 51.3435 1214.85 52.7307V105.038C1214.85 106.426 1215.41 107.756 1216.42 108.737C1217.43 109.718 1218.8 110.269 1220.23 110.269H1231V105.038H1220.23V68.423H1279.46V52.7307C1279.46 51.3435 1278.89 50.013 1277.88 49.0321C1276.87 48.0511 1275.5 47.5 1274.08 47.5ZM1220.23 63.1922V52.7307H1274.08V63.1922H1220.23Z" fill="white"/>
<path d="M1255.23 86.731V102.423L1268.69 94.5771L1255.23 86.731Z" fill="white"/>
</svg>
