<svg width="1363" height="163" viewBox="0 0 1363 163" fill="none" xmlns="http://www.w3.org/2000/svg">
<path d="M0 15C0 6.71573 6.71573 0 15 0H37V163H15C6.71573 163 0 156.284 0 148V15Z" fill="#424242"/>
<rect width="1097" height="163" transform="translate(37)" fill="#F0F0F0"/>
<path d="M98.0391 43.9375V61H94.5234V43.9375H98.0391ZM104.836 51.2266V53.9688H97.0781V51.2266H104.836ZM105.656 43.9375V46.6914H97.0781V43.9375H105.656ZM111.047 48.3203V61H107.66V48.3203H111.047ZM107.449 45.0156C107.449 44.5234 107.621 44.1172 107.965 43.7969C108.309 43.4766 108.77 43.3164 109.348 43.3164C109.918 43.3164 110.375 43.4766 110.719 43.7969C111.07 44.1172 111.246 44.5234 111.246 45.0156C111.246 45.5078 111.07 45.9141 110.719 46.2344C110.375 46.5547 109.918 46.7148 109.348 46.7148C108.77 46.7148 108.309 46.5547 107.965 46.2344C107.621 45.9141 107.449 45.5078 107.449 45.0156ZM117.141 51.0273V61H113.766V48.3203H116.93L117.141 51.0273ZM116.648 54.2148H115.734C115.734 53.2773 115.855 52.4336 116.098 51.6836C116.34 50.9258 116.68 50.2812 117.117 49.75C117.555 49.2109 118.074 48.8008 118.676 48.5195C119.285 48.2305 119.965 48.0859 120.715 48.0859C121.309 48.0859 121.852 48.1719 122.344 48.3438C122.836 48.5156 123.258 48.7891 123.609 49.1641C123.969 49.5391 124.242 50.0352 124.43 50.6523C124.625 51.2695 124.723 52.0234 124.723 52.9141V61H121.324V52.9023C121.324 52.3398 121.246 51.9023 121.09 51.5898C120.934 51.2773 120.703 51.0586 120.398 50.9336C120.102 50.8008 119.734 50.7344 119.297 50.7344C118.844 50.7344 118.449 50.8242 118.113 51.0039C117.785 51.1836 117.512 51.4336 117.293 51.7539C117.082 52.0664 116.922 52.4336 116.812 52.8555C116.703 53.2773 116.648 53.7305 116.648 54.2148ZM134.133 58.1406V52.4922C134.133 52.0859 134.066 51.7383 133.934 51.4492C133.801 51.1523 133.594 50.9219 133.312 50.7578C133.039 50.5938 132.684 50.5117 132.246 50.5117C131.871 50.5117 131.547 50.5781 131.273 50.7109C131 50.8359 130.789 51.0195 130.641 51.2617C130.492 51.4961 130.418 51.7734 130.418 52.0938H127.043C127.043 51.5547 127.168 51.043 127.418 50.5586C127.668 50.0742 128.031 49.6484 128.508 49.2812C128.984 48.9062 129.551 48.6133 130.207 48.4023C130.871 48.1914 131.613 48.0859 132.434 48.0859C133.418 48.0859 134.293 48.25 135.059 48.5781C135.824 48.9062 136.426 49.3984 136.863 50.0547C137.309 50.7109 137.531 51.5312 137.531 52.5156V57.9414C137.531 58.6367 137.574 59.207 137.66 59.6523C137.746 60.0898 137.871 60.4727 138.035 60.8008V61H134.625C134.461 60.6562 134.336 60.2266 134.25 59.7109C134.172 59.1875 134.133 58.6641 134.133 58.1406ZM134.578 53.2773L134.602 55.1875H132.715C132.27 55.1875 131.883 55.2383 131.555 55.3398C131.227 55.4414 130.957 55.5859 130.746 55.7734C130.535 55.9531 130.379 56.1641 130.277 56.4062C130.184 56.6484 130.137 56.9141 130.137 57.2031C130.137 57.4922 130.203 57.7539 130.336 57.9883C130.469 58.2148 130.66 58.3945 130.91 58.5273C131.16 58.6523 131.453 58.7148 131.789 58.7148C132.297 58.7148 132.738 58.6133 133.113 58.4102C133.488 58.207 133.777 57.957 133.98 57.6602C134.191 57.3633 134.301 57.082 134.309 56.8164L135.199 58.2461C135.074 58.5664 134.902 58.8984 134.684 59.2422C134.473 59.5859 134.203 59.9102 133.875 60.2148C133.547 60.5117 133.152 60.7578 132.691 60.9531C132.23 61.1406 131.684 61.2344 131.051 61.2344C130.246 61.2344 129.516 61.0742 128.859 60.7539C128.211 60.4258 127.695 59.9766 127.312 59.4062C126.938 58.8281 126.75 58.1719 126.75 57.4375C126.75 56.7734 126.875 56.1836 127.125 55.668C127.375 55.1523 127.742 54.7188 128.227 54.3672C128.719 54.0078 129.332 53.7383 130.066 53.5586C130.801 53.3711 131.652 53.2773 132.621 53.2773H134.578ZM143.438 51.0273V61H140.062V48.3203H143.227L143.438 51.0273ZM142.945 54.2148H142.031C142.031 53.2773 142.152 52.4336 142.395 51.6836C142.637 50.9258 142.977 50.2812 143.414 49.75C143.852 49.2109 144.371 48.8008 144.973 48.5195C145.582 48.2305 146.262 48.0859 147.012 48.0859C147.605 48.0859 148.148 48.1719 148.641 48.3438C149.133 48.5156 149.555 48.7891 149.906 49.1641C150.266 49.5391 150.539 50.0352 150.727 50.6523C150.922 51.2695 151.02 52.0234 151.02 52.9141V61H147.621V52.9023C147.621 52.3398 147.543 51.9023 147.387 51.5898C147.23 51.2773 147 51.0586 146.695 50.9336C146.398 50.8008 146.031 50.7344 145.594 50.7344C145.141 50.7344 144.746 50.8242 144.41 51.0039C144.082 51.1836 143.809 51.4336 143.59 51.7539C143.379 52.0664 143.219 52.4336 143.109 52.8555C143 53.2773 142.945 53.7305 142.945 54.2148ZM158.824 58.5977C159.238 58.5977 159.605 58.5195 159.926 58.3633C160.246 58.1992 160.496 57.9727 160.676 57.6836C160.863 57.3867 160.961 57.0391 160.969 56.6406H164.145C164.137 57.5312 163.898 58.3242 163.43 59.0195C162.961 59.707 162.332 60.25 161.543 60.6484C160.754 61.0391 159.871 61.2344 158.895 61.2344C157.91 61.2344 157.051 61.0703 156.316 60.7422C155.59 60.4141 154.984 59.9609 154.5 59.3828C154.016 58.7969 153.652 58.1172 153.41 57.3438C153.168 56.5625 153.047 55.7266 153.047 54.8359V54.4961C153.047 53.5977 153.168 52.7617 153.41 51.9883C153.652 51.207 154.016 50.5273 154.5 49.9492C154.984 49.3633 155.59 48.9062 156.316 48.5781C157.043 48.25 157.895 48.0859 158.871 48.0859C159.91 48.0859 160.82 48.2852 161.602 48.6836C162.391 49.082 163.008 49.6523 163.453 50.3945C163.906 51.1289 164.137 52 164.145 53.0078H160.969C160.961 52.5859 160.871 52.2031 160.699 51.8594C160.535 51.5156 160.293 51.2422 159.973 51.0391C159.66 50.8281 159.273 50.7227 158.812 50.7227C158.32 50.7227 157.918 50.8281 157.605 51.0391C157.293 51.2422 157.051 51.5234 156.879 51.8828C156.707 52.2344 156.586 52.6367 156.516 53.0898C156.453 53.5352 156.422 54.0039 156.422 54.4961V54.8359C156.422 55.3281 156.453 55.8008 156.516 56.2539C156.578 56.707 156.695 57.1094 156.867 57.4609C157.047 57.8125 157.293 58.0898 157.605 58.293C157.918 58.4961 158.324 58.5977 158.824 58.5977ZM169.664 48.3203V61H166.277V48.3203H169.664ZM166.066 45.0156C166.066 44.5234 166.238 44.1172 166.582 43.7969C166.926 43.4766 167.387 43.3164 167.965 43.3164C168.535 43.3164 168.992 43.4766 169.336 43.7969C169.688 44.1172 169.863 44.5234 169.863 45.0156C169.863 45.5078 169.688 45.9141 169.336 46.2344C168.992 46.5547 168.535 46.7148 167.965 46.7148C167.387 46.7148 166.926 46.5547 166.582 46.2344C166.238 45.9141 166.066 45.5078 166.066 45.0156ZM179.297 58.1406V52.4922C179.297 52.0859 179.23 51.7383 179.098 51.4492C178.965 51.1523 178.758 50.9219 178.477 50.7578C178.203 50.5938 177.848 50.5117 177.41 50.5117C177.035 50.5117 176.711 50.5781 176.438 50.7109C176.164 50.8359 175.953 51.0195 175.805 51.2617C175.656 51.4961 175.582 51.7734 175.582 52.0938H172.207C172.207 51.5547 172.332 51.043 172.582 50.5586C172.832 50.0742 173.195 49.6484 173.672 49.2812C174.148 48.9062 174.715 48.6133 175.371 48.4023C176.035 48.1914 176.777 48.0859 177.598 48.0859C178.582 48.0859 179.457 48.25 180.223 48.5781C180.988 48.9062 181.59 49.3984 182.027 50.0547C182.473 50.7109 182.695 51.5312 182.695 52.5156V57.9414C182.695 58.6367 182.738 59.207 182.824 59.6523C182.91 60.0898 183.035 60.4727 183.199 60.8008V61H179.789C179.625 60.6562 179.5 60.2266 179.414 59.7109C179.336 59.1875 179.297 58.6641 179.297 58.1406ZM179.742 53.2773L179.766 55.1875H177.879C177.434 55.1875 177.047 55.2383 176.719 55.3398C176.391 55.4414 176.121 55.5859 175.91 55.7734C175.699 55.9531 175.543 56.1641 175.441 56.4062C175.348 56.6484 175.301 56.9141 175.301 57.2031C175.301 57.4922 175.367 57.7539 175.5 57.9883C175.633 58.2148 175.824 58.3945 176.074 58.5273C176.324 58.6523 176.617 58.7148 176.953 58.7148C177.461 58.7148 177.902 58.6133 178.277 58.4102C178.652 58.207 178.941 57.957 179.145 57.6602C179.355 57.3633 179.465 57.082 179.473 56.8164L180.363 58.2461C180.238 58.5664 180.066 58.8984 179.848 59.2422C179.637 59.5859 179.367 59.9102 179.039 60.2148C178.711 60.5117 178.316 60.7578 177.855 60.9531C177.395 61.1406 176.848 61.2344 176.215 61.2344C175.41 61.2344 174.68 61.0742 174.023 60.7539C173.375 60.4258 172.859 59.9766 172.477 59.4062C172.102 58.8281 171.914 58.1719 171.914 57.4375C171.914 56.7734 172.039 56.1836 172.289 55.668C172.539 55.1523 172.906 54.7188 173.391 54.3672C173.883 54.0078 174.496 53.7383 175.23 53.5586C175.965 53.3711 176.816 53.2773 177.785 53.2773H179.742ZM188.859 43V61H185.473V43H188.859ZM197.836 43.9375H204.199C205.504 43.9375 206.625 44.1328 207.562 44.5234C208.508 44.9141 209.234 45.4922 209.742 46.2578C210.25 47.0234 210.504 47.9648 210.504 49.082C210.504 49.9961 210.348 50.7812 210.035 51.4375C209.73 52.0859 209.297 52.6289 208.734 53.0664C208.18 53.4961 207.527 53.8398 206.777 54.0977L205.664 54.6836H200.133L200.109 51.9414H204.223C204.84 51.9414 205.352 51.832 205.758 51.6133C206.164 51.3945 206.469 51.0898 206.672 50.6992C206.883 50.3086 206.988 49.8555 206.988 49.3398C206.988 48.793 206.887 48.3203 206.684 47.9219C206.48 47.5234 206.172 47.2188 205.758 47.0078C205.344 46.7969 204.824 46.6914 204.199 46.6914H201.352V61H197.836V43.9375ZM207.375 61L203.484 53.3945L207.199 53.3711L211.137 60.8359V61H207.375ZM216.562 48.3203V61H213.176V48.3203H216.562ZM212.965 45.0156C212.965 44.5234 213.137 44.1172 213.48 43.7969C213.824 43.4766 214.285 43.3164 214.863 43.3164C215.434 43.3164 215.891 43.4766 216.234 43.7969C216.586 44.1172 216.762 44.5234 216.762 45.0156C216.762 45.5078 216.586 45.9141 216.234 46.2344C215.891 46.5547 215.434 46.7148 214.863 46.7148C214.285 46.7148 213.824 46.5547 213.48 46.2344C213.137 45.9141 212.965 45.5078 212.965 45.0156ZM226.207 57.4961C226.207 57.2539 226.137 57.0352 225.996 56.8398C225.855 56.6445 225.594 56.4648 225.211 56.3008C224.836 56.1289 224.293 55.9727 223.582 55.832C222.941 55.6914 222.344 55.5156 221.789 55.3047C221.242 55.0859 220.766 54.8242 220.359 54.5195C219.961 54.2148 219.648 53.8555 219.422 53.4414C219.195 53.0195 219.082 52.5391 219.082 52C219.082 51.4688 219.195 50.9688 219.422 50.5C219.656 50.0312 219.988 49.6172 220.418 49.2578C220.855 48.8906 221.387 48.6055 222.012 48.4023C222.645 48.1914 223.355 48.0859 224.145 48.0859C225.246 48.0859 226.191 48.2617 226.98 48.6133C227.777 48.9648 228.387 49.4492 228.809 50.0664C229.238 50.6758 229.453 51.3711 229.453 52.1523H226.078C226.078 51.8242 226.008 51.5312 225.867 51.2734C225.734 51.0078 225.523 50.8008 225.234 50.6523C224.953 50.4961 224.586 50.418 224.133 50.418C223.758 50.418 223.434 50.4844 223.16 50.6172C222.887 50.7422 222.676 50.9141 222.527 51.1328C222.387 51.3438 222.316 51.5781 222.316 51.8359C222.316 52.0312 222.355 52.207 222.434 52.3633C222.52 52.5117 222.656 52.6484 222.844 52.7734C223.031 52.8984 223.273 53.0156 223.57 53.125C223.875 53.2266 224.25 53.3203 224.695 53.4062C225.609 53.5938 226.426 53.8398 227.145 54.1445C227.863 54.4414 228.434 54.8477 228.855 55.3633C229.277 55.8711 229.488 56.5391 229.488 57.3672C229.488 57.9297 229.363 58.4453 229.113 58.9141C228.863 59.3828 228.504 59.793 228.035 60.1445C227.566 60.4883 227.004 60.7578 226.348 60.9531C225.699 61.1406 224.969 61.2344 224.156 61.2344C222.977 61.2344 221.977 61.0234 221.156 60.6016C220.344 60.1797 219.727 59.6445 219.305 58.9961C218.891 58.3398 218.684 57.668 218.684 56.9805H221.883C221.898 57.4414 222.016 57.8125 222.234 58.0938C222.461 58.375 222.746 58.5781 223.09 58.7031C223.441 58.8281 223.82 58.8906 224.227 58.8906C224.664 58.8906 225.027 58.832 225.316 58.7148C225.605 58.5898 225.824 58.4258 225.973 58.2227C226.129 58.0117 226.207 57.7695 226.207 57.4961ZM235.055 42.9883V61H231.68V42.9883H235.055ZM243.047 48.3203L237.539 54.6016L234.586 57.5898L233.355 55.1523L235.699 52.1758L238.992 48.3203H243.047ZM239.543 61L235.793 55.1406L238.125 53.1016L243.434 61H239.543ZM250.688 43.9375H257.051C258.355 43.9375 259.477 44.1328 260.414 44.5234C261.359 44.9141 262.086 45.4922 262.594 46.2578C263.102 47.0234 263.355 47.9648 263.355 49.082C263.355 49.9961 263.199 50.7812 262.887 51.4375C262.582 52.0859 262.148 52.6289 261.586 53.0664C261.031 53.4961 260.379 53.8398 259.629 54.0977L258.516 54.6836H252.984L252.961 51.9414H257.074C257.691 51.9414 258.203 51.832 258.609 51.6133C259.016 51.3945 259.32 51.0898 259.523 50.6992C259.734 50.3086 259.84 49.8555 259.84 49.3398C259.84 48.793 259.738 48.3203 259.535 47.9219C259.332 47.5234 259.023 47.2188 258.609 47.0078C258.195 46.7969 257.676 46.6914 257.051 46.6914H254.203V61H250.688V43.9375ZM260.227 61L256.336 53.3945L260.051 53.3711L263.988 60.8359V61H260.227ZM272.695 58.1406V52.4922C272.695 52.0859 272.629 51.7383 272.496 51.4492C272.363 51.1523 272.156 50.9219 271.875 50.7578C271.602 50.5938 271.246 50.5117 270.809 50.5117C270.434 50.5117 270.109 50.5781 269.836 50.7109C269.562 50.8359 269.352 51.0195 269.203 51.2617C269.055 51.4961 268.98 51.7734 268.98 52.0938H265.605C265.605 51.5547 265.73 51.043 265.98 50.5586C266.23 50.0742 266.594 49.6484 267.07 49.2812C267.547 48.9062 268.113 48.6133 268.77 48.4023C269.434 48.1914 270.176 48.0859 270.996 48.0859C271.98 48.0859 272.855 48.25 273.621 48.5781C274.387 48.9062 274.988 49.3984 275.426 50.0547C275.871 50.7109 276.094 51.5312 276.094 52.5156V57.9414C276.094 58.6367 276.137 59.207 276.223 59.6523C276.309 60.0898 276.434 60.4727 276.598 60.8008V61H273.188C273.023 60.6562 272.898 60.2266 272.812 59.7109C272.734 59.1875 272.695 58.6641 272.695 58.1406ZM273.141 53.2773L273.164 55.1875H271.277C270.832 55.1875 270.445 55.2383 270.117 55.3398C269.789 55.4414 269.52 55.5859 269.309 55.7734C269.098 55.9531 268.941 56.1641 268.84 56.4062C268.746 56.6484 268.699 56.9141 268.699 57.2031C268.699 57.4922 268.766 57.7539 268.898 57.9883C269.031 58.2148 269.223 58.3945 269.473 58.5273C269.723 58.6523 270.016 58.7148 270.352 58.7148C270.859 58.7148 271.301 58.6133 271.676 58.4102C272.051 58.207 272.34 57.957 272.543 57.6602C272.754 57.3633 272.863 57.082 272.871 56.8164L273.762 58.2461C273.637 58.5664 273.465 58.8984 273.246 59.2422C273.035 59.5859 272.766 59.9102 272.438 60.2148C272.109 60.5117 271.715 60.7578 271.254 60.9531C270.793 61.1406 270.246 61.2344 269.613 61.2344C268.809 61.2344 268.078 61.0742 267.422 60.7539C266.773 60.4258 266.258 59.9766 265.875 59.4062C265.5 58.8281 265.312 58.1719 265.312 57.4375C265.312 56.7734 265.438 56.1836 265.688 55.668C265.938 55.1523 266.305 54.7188 266.789 54.3672C267.281 54.0078 267.895 53.7383 268.629 53.5586C269.363 53.3711 270.215 53.2773 271.184 53.2773H273.141ZM286.184 58.2344V43H289.582V61H286.523L286.184 58.2344ZM278.168 54.8125V54.5664C278.168 53.5977 278.277 52.7188 278.496 51.9297C278.715 51.1328 279.035 50.4492 279.457 49.8789C279.879 49.3086 280.398 48.8672 281.016 48.5547C281.633 48.2422 282.336 48.0859 283.125 48.0859C283.867 48.0859 284.516 48.2422 285.07 48.5547C285.633 48.8672 286.109 49.3125 286.5 49.8906C286.898 50.4609 287.219 51.1367 287.461 51.918C287.703 52.6914 287.879 53.5391 287.988 54.4609V55C287.879 55.8828 287.703 56.7031 287.461 57.4609C287.219 58.2188 286.898 58.8828 286.5 59.4531C286.109 60.0156 285.633 60.4531 285.07 60.7656C284.508 61.0781 283.852 61.2344 283.102 61.2344C282.312 61.2344 281.609 61.0742 280.992 60.7539C280.383 60.4336 279.867 59.9844 279.445 59.4062C279.031 58.8281 278.715 58.1484 278.496 57.3672C278.277 56.5859 278.168 55.7344 278.168 54.8125ZM281.543 54.5664V54.8125C281.543 55.3359 281.582 55.8242 281.66 56.2773C281.746 56.7305 281.883 57.1328 282.07 57.4844C282.266 57.8281 282.516 58.0977 282.82 58.293C283.133 58.4805 283.512 58.5742 283.957 58.5742C284.535 58.5742 285.012 58.4453 285.387 58.1875C285.762 57.9219 286.047 57.5586 286.242 57.0977C286.445 56.6367 286.562 56.1055 286.594 55.5039V53.9688C286.57 53.4766 286.5 53.0352 286.383 52.6445C286.273 52.2461 286.109 51.9062 285.891 51.625C285.68 51.3438 285.414 51.125 285.094 50.9688C284.781 50.8125 284.41 50.7344 283.98 50.7344C283.543 50.7344 283.168 50.8359 282.855 51.0391C282.543 51.2344 282.289 51.5039 282.094 51.8477C281.906 52.1914 281.766 52.5977 281.672 53.0664C281.586 53.5273 281.543 54.0273 281.543 54.5664ZM299.062 58.1406V52.4922C299.062 52.0859 298.996 51.7383 298.863 51.4492C298.73 51.1523 298.523 50.9219 298.242 50.7578C297.969 50.5938 297.613 50.5117 297.176 50.5117C296.801 50.5117 296.477 50.5781 296.203 50.7109C295.93 50.8359 295.719 51.0195 295.57 51.2617C295.422 51.4961 295.348 51.7734 295.348 52.0938H291.973C291.973 51.5547 292.098 51.043 292.348 50.5586C292.598 50.0742 292.961 49.6484 293.438 49.2812C293.914 48.9062 294.48 48.6133 295.137 48.4023C295.801 48.1914 296.543 48.0859 297.363 48.0859C298.348 48.0859 299.223 48.25 299.988 48.5781C300.754 48.9062 301.355 49.3984 301.793 50.0547C302.238 50.7109 302.461 51.5312 302.461 52.5156V57.9414C302.461 58.6367 302.504 59.207 302.59 59.6523C302.676 60.0898 302.801 60.4727 302.965 60.8008V61H299.555C299.391 60.6562 299.266 60.2266 299.18 59.7109C299.102 59.1875 299.062 58.6641 299.062 58.1406ZM299.508 53.2773L299.531 55.1875H297.645C297.199 55.1875 296.812 55.2383 296.484 55.3398C296.156 55.4414 295.887 55.5859 295.676 55.7734C295.465 55.9531 295.309 56.1641 295.207 56.4062C295.113 56.6484 295.066 56.9141 295.066 57.2031C295.066 57.4922 295.133 57.7539 295.266 57.9883C295.398 58.2148 295.59 58.3945 295.84 58.5273C296.09 58.6523 296.383 58.7148 296.719 58.7148C297.227 58.7148 297.668 58.6133 298.043 58.4102C298.418 58.207 298.707 57.957 298.91 57.6602C299.121 57.3633 299.23 57.082 299.238 56.8164L300.129 58.2461C300.004 58.5664 299.832 58.8984 299.613 59.2422C299.402 59.5859 299.133 59.9102 298.805 60.2148C298.477 60.5117 298.082 60.7578 297.621 60.9531C297.16 61.1406 296.613 61.2344 295.98 61.2344C295.176 61.2344 294.445 61.0742 293.789 60.7539C293.141 60.4258 292.625 59.9766 292.242 59.4062C291.867 58.8281 291.68 58.1719 291.68 57.4375C291.68 56.7734 291.805 56.1836 292.055 55.668C292.305 55.1523 292.672 54.7188 293.156 54.3672C293.648 54.0078 294.262 53.7383 294.996 53.5586C295.73 53.3711 296.582 53.2773 297.551 53.2773H299.508ZM308.438 51.0859V61H305.062V48.3203H308.238L308.438 51.0859ZM312.258 48.2383L312.199 51.3672C312.035 51.3438 311.836 51.3242 311.602 51.3086C311.375 51.2852 311.168 51.2734 310.98 51.2734C310.504 51.2734 310.09 51.3359 309.738 51.4609C309.395 51.5781 309.105 51.7539 308.871 51.9883C308.645 52.2227 308.473 52.5078 308.355 52.8438C308.246 53.1797 308.184 53.5625 308.168 53.9922L307.488 53.7812C307.488 52.9609 307.57 52.207 307.734 51.5195C307.898 50.8242 308.137 50.2188 308.449 49.7031C308.77 49.1875 309.16 48.7891 309.621 48.5078C310.082 48.2266 310.609 48.0859 311.203 48.0859C311.391 48.0859 311.582 48.1016 311.777 48.1328C311.973 48.1562 312.133 48.1914 312.258 48.2383Z" fill="#888888"/>
<path d="M109.219 107.422H100.734V101.07H109.219C110.375 101.07 111.312 100.875 112.031 100.484C112.75 100.094 113.273 99.5547 113.602 98.8672C113.945 98.1641 114.117 97.375 114.117 96.5C114.117 95.5625 113.945 94.6953 113.602 93.8984C113.273 93.1016 112.75 92.4609 112.031 91.9766C111.312 91.4766 110.375 91.2266 109.219 91.2266H103.828V119H95.6016V84.875H109.219C111.953 84.875 114.305 85.375 116.273 86.375C118.258 87.375 119.781 88.75 120.844 90.5C121.906 92.2344 122.438 94.2188 122.438 96.4531C122.438 98.6562 121.906 100.578 120.844 102.219C119.781 103.859 118.258 105.141 116.273 106.062C114.305 106.969 111.953 107.422 109.219 107.422ZM134.461 99.9219V119H126.562V93.6406H133.945L134.461 99.9219ZM141.961 93.4531L141.82 100.789C141.508 100.758 141.086 100.719 140.555 100.672C140.023 100.625 139.578 100.602 139.219 100.602C138.297 100.602 137.5 100.711 136.828 100.93C136.172 101.133 135.625 101.445 135.188 101.867C134.766 102.273 134.453 102.789 134.25 103.414C134.062 104.039 133.977 104.766 133.992 105.594L132.562 104.656C132.562 102.953 132.727 101.406 133.055 100.016C133.398 98.6094 133.883 97.3984 134.508 96.3828C135.133 95.3516 135.891 94.5625 136.781 94.0156C137.672 93.4531 138.672 93.1719 139.781 93.1719C140.172 93.1719 140.555 93.1953 140.93 93.2422C141.32 93.2891 141.664 93.3594 141.961 93.4531ZM142.852 106.578V106.086C142.852 104.227 143.117 102.516 143.648 100.953C144.18 99.375 144.961 98.0078 145.992 96.8516C147.023 95.6953 148.297 94.7969 149.812 94.1562C151.328 93.5 153.078 93.1719 155.062 93.1719C157.062 93.1719 158.82 93.5 160.336 94.1562C161.867 94.7969 163.148 95.6953 164.18 96.8516C165.211 98.0078 165.992 99.375 166.523 100.953C167.055 102.516 167.32 104.227 167.32 106.086V106.578C167.32 108.422 167.055 110.133 166.523 111.711C165.992 113.273 165.211 114.641 164.18 115.812C163.148 116.969 161.875 117.867 160.359 118.508C158.844 119.148 157.094 119.469 155.109 119.469C153.125 119.469 151.367 119.148 149.836 118.508C148.305 117.867 147.023 116.969 145.992 115.812C144.961 114.641 144.18 113.273 143.648 111.711C143.117 110.133 142.852 108.422 142.852 106.578ZM150.75 106.086V106.578C150.75 107.531 150.82 108.422 150.961 109.25C151.102 110.078 151.336 110.805 151.664 111.43C151.992 112.039 152.438 112.516 153 112.859C153.562 113.203 154.266 113.375 155.109 113.375C155.938 113.375 156.625 113.203 157.172 112.859C157.734 112.516 158.18 112.039 158.508 111.43C158.836 110.805 159.07 110.078 159.211 109.25C159.352 108.422 159.422 107.531 159.422 106.578V106.086C159.422 105.164 159.352 104.297 159.211 103.484C159.07 102.656 158.836 101.93 158.508 101.305C158.18 100.664 157.734 100.164 157.172 99.8047C156.609 99.4453 155.906 99.2656 155.062 99.2656C154.234 99.2656 153.539 99.4453 152.977 99.8047C152.43 100.164 151.992 100.664 151.664 101.305C151.336 101.93 151.102 102.656 150.961 103.484C150.82 104.297 150.75 105.164 150.75 106.086ZM171.422 93.6406H179.344V119.82C179.344 121.852 178.953 123.562 178.172 124.953C177.391 126.359 176.273 127.422 174.82 128.141C173.367 128.875 171.633 129.242 169.617 129.242C168.945 129.242 168.328 129.211 167.766 129.148C167.188 129.102 166.555 129 165.867 128.844V122.867C166.273 122.93 166.648 122.977 166.992 123.008C167.336 123.055 167.711 123.078 168.117 123.078C168.836 123.078 169.438 122.961 169.922 122.727C170.406 122.492 170.773 122.133 171.023 121.648C171.289 121.164 171.422 120.555 171.422 119.82V93.6406ZM170.836 87.1016C170.836 85.9766 171.242 85.0547 172.055 84.3359C172.867 83.6172 173.922 83.2578 175.219 83.2578C176.516 83.2578 177.57 83.6172 178.383 84.3359C179.195 85.0547 179.602 85.9766 179.602 87.1016C179.602 88.2266 179.195 89.1484 178.383 89.8672C177.57 90.5859 176.516 90.9453 175.219 90.9453C173.922 90.9453 172.867 90.5859 172.055 89.8672C171.242 89.1484 170.836 88.2266 170.836 87.1016ZM196.102 119.469C194.039 119.469 192.195 119.148 190.57 118.508C188.945 117.852 187.57 116.953 186.445 115.812C185.336 114.672 184.484 113.359 183.891 111.875C183.312 110.391 183.023 108.82 183.023 107.164V106.273C183.023 104.414 183.281 102.695 183.797 101.117C184.312 99.5234 185.078 98.1328 186.094 96.9453C187.109 95.7578 188.383 94.8359 189.914 94.1797C191.445 93.5078 193.227 93.1719 195.258 93.1719C197.055 93.1719 198.664 93.4609 200.086 94.0391C201.508 94.6172 202.711 95.4453 203.695 96.5234C204.695 97.6016 205.453 98.9062 205.969 100.438C206.5 101.969 206.766 103.688 206.766 105.594V108.805H186.047V103.859H199.055V103.25C199.07 102.406 198.922 101.688 198.609 101.094C198.312 100.5 197.875 100.047 197.297 99.7344C196.719 99.4219 196.016 99.2656 195.188 99.2656C194.328 99.2656 193.617 99.4531 193.055 99.8281C192.508 100.203 192.078 100.719 191.766 101.375C191.469 102.016 191.258 102.758 191.133 103.602C191.008 104.445 190.945 105.336 190.945 106.273V107.164C190.945 108.102 191.07 108.953 191.32 109.719C191.586 110.484 191.961 111.141 192.445 111.688C192.945 112.219 193.539 112.633 194.227 112.93C194.93 113.227 195.727 113.375 196.617 113.375C197.695 113.375 198.758 113.172 199.805 112.766C200.852 112.359 201.75 111.688 202.5 110.75L206.086 115.016C205.57 115.75 204.836 116.461 203.883 117.148C202.945 117.836 201.82 118.398 200.508 118.836C199.195 119.258 197.727 119.469 196.102 119.469ZM220.688 113.375C221.422 113.375 222.047 113.242 222.562 112.977C223.094 112.695 223.492 112.305 223.758 111.805C224.039 111.289 224.172 110.672 224.156 109.953H231.586C231.602 111.859 231.133 113.531 230.18 114.969C229.242 116.391 227.961 117.5 226.336 118.297C224.727 119.078 222.906 119.469 220.875 119.469C218.891 119.469 217.156 119.148 215.672 118.508C214.188 117.852 212.945 116.945 211.945 115.789C210.961 114.617 210.219 113.25 209.719 111.688C209.234 110.125 208.992 108.43 208.992 106.602V106.062C208.992 104.234 209.234 102.539 209.719 100.977C210.219 99.3984 210.961 98.0312 211.945 96.875C212.945 95.7031 214.18 94.7969 215.648 94.1562C217.133 93.5 218.859 93.1719 220.828 93.1719C222.938 93.1719 224.797 93.5703 226.406 94.3672C228.031 95.1641 229.305 96.3203 230.227 97.8359C231.148 99.3516 231.602 101.188 231.586 103.344H224.156C224.172 102.578 224.055 101.891 223.805 101.281C223.555 100.672 223.164 100.188 222.633 99.8281C222.117 99.4531 221.453 99.2656 220.641 99.2656C219.828 99.2656 219.172 99.4453 218.672 99.8047C218.172 100.164 217.789 100.664 217.523 101.305C217.273 101.93 217.102 102.648 217.008 103.461C216.93 104.273 216.891 105.141 216.891 106.062V106.602C216.891 107.539 216.93 108.422 217.008 109.25C217.102 110.062 217.281 110.781 217.547 111.406C217.812 112.016 218.195 112.5 218.695 112.859C219.195 113.203 219.859 113.375 220.688 113.375ZM248.32 93.6406V99.125H233.039V93.6406H248.32ZM236.25 87.3359H244.148V110.727C244.148 111.398 244.227 111.922 244.383 112.297C244.539 112.656 244.805 112.914 245.18 113.07C245.57 113.211 246.086 113.281 246.727 113.281C247.18 113.281 247.555 113.273 247.852 113.258C248.148 113.227 248.43 113.188 248.695 113.141V118.789C248.023 119.008 247.32 119.172 246.586 119.281C245.852 119.406 245.07 119.469 244.242 119.469C242.555 119.469 241.109 119.203 239.906 118.672C238.719 118.141 237.812 117.305 237.188 116.164C236.562 115.023 236.25 113.539 236.25 111.711V87.3359ZM277.406 107.422H268.922V101.07H277.406C278.562 101.07 279.5 100.875 280.219 100.484C280.938 100.094 281.461 99.5547 281.789 98.8672C282.133 98.1641 282.305 97.375 282.305 96.5C282.305 95.5625 282.133 94.6953 281.789 93.8984C281.461 93.1016 280.938 92.4609 280.219 91.9766C279.5 91.4766 278.562 91.2266 277.406 91.2266H272.016V119H263.789V84.875H277.406C280.141 84.875 282.492 85.375 284.461 86.375C286.445 87.375 287.969 88.75 289.031 90.5C290.094 92.2344 290.625 94.2188 290.625 96.4531C290.625 98.6562 290.094 100.578 289.031 102.219C287.969 103.859 286.445 105.141 284.461 106.062C282.492 106.969 280.141 107.422 277.406 107.422ZM302.414 83V119H294.516V83H302.414ZM301.477 105.453L299.625 105.5C299.625 103.719 299.844 102.078 300.281 100.578C300.719 99.0781 301.344 97.7734 302.156 96.6641C302.969 95.5547 303.945 94.6953 305.086 94.0859C306.227 93.4766 307.492 93.1719 308.883 93.1719C310.133 93.1719 311.273 93.3516 312.305 93.7109C313.352 94.0703 314.25 94.6484 315 95.4453C315.766 96.2422 316.352 97.2812 316.758 98.5625C317.18 99.8438 317.391 101.406 317.391 103.25V119H309.445V103.203C309.445 102.172 309.297 101.375 309 100.812C308.719 100.234 308.312 99.8359 307.781 99.6172C307.25 99.3828 306.602 99.2656 305.836 99.2656C304.914 99.2656 304.164 99.4219 303.586 99.7344C303.008 100.047 302.562 100.484 302.25 101.047C301.953 101.594 301.75 102.242 301.641 102.992C301.531 103.742 301.477 104.562 301.477 105.453ZM330.117 93.6406V119H322.195V93.6406H330.117ZM321.727 87.1016C321.727 85.9766 322.133 85.0547 322.945 84.3359C323.758 83.6172 324.812 83.2578 326.109 83.2578C327.406 83.2578 328.461 83.6172 329.273 84.3359C330.086 85.0547 330.492 85.9766 330.492 87.1016C330.492 88.2266 330.086 89.1484 329.273 89.8672C328.461 90.5859 327.406 90.9453 326.109 90.9453C324.812 90.9453 323.758 90.5859 322.945 89.8672C322.133 89.1484 321.727 88.2266 321.727 87.1016ZM343.336 83V119H335.414V83H343.336ZM347.227 106.578V106.086C347.227 104.227 347.492 102.516 348.023 100.953C348.555 99.375 349.336 98.0078 350.367 96.8516C351.398 95.6953 352.672 94.7969 354.188 94.1562C355.703 93.5 357.453 93.1719 359.438 93.1719C361.438 93.1719 363.195 93.5 364.711 94.1562C366.242 94.7969 367.523 95.6953 368.555 96.8516C369.586 98.0078 370.367 99.375 370.898 100.953C371.43 102.516 371.695 104.227 371.695 106.086V106.578C371.695 108.422 371.43 110.133 370.898 111.711C370.367 113.273 369.586 114.641 368.555 115.812C367.523 116.969 366.25 117.867 364.734 118.508C363.219 119.148 361.469 119.469 359.484 119.469C357.5 119.469 355.742 119.148 354.211 118.508C352.68 117.867 351.398 116.969 350.367 115.812C349.336 114.641 348.555 113.273 348.023 111.711C347.492 110.133 347.227 108.422 347.227 106.578ZM355.125 106.086V106.578C355.125 107.531 355.195 108.422 355.336 109.25C355.477 110.078 355.711 110.805 356.039 111.43C356.367 112.039 356.812 112.516 357.375 112.859C357.938 113.203 358.641 113.375 359.484 113.375C360.312 113.375 361 113.203 361.547 112.859C362.109 112.516 362.555 112.039 362.883 111.43C363.211 110.805 363.445 110.078 363.586 109.25C363.727 108.422 363.797 107.531 363.797 106.578V106.086C363.797 105.164 363.727 104.297 363.586 103.484C363.445 102.656 363.211 101.93 362.883 101.305C362.555 100.664 362.109 100.164 361.547 99.8047C360.984 99.4453 360.281 99.2656 359.438 99.2656C358.609 99.2656 357.914 99.4453 357.352 99.8047C356.805 100.164 356.367 100.664 356.039 101.305C355.711 101.93 355.477 102.656 355.336 103.484C355.195 104.297 355.125 105.164 355.125 106.086ZM388.5 111.875C388.5 111.438 388.352 111.062 388.055 110.75C387.773 110.422 387.273 110.125 386.555 109.859C385.836 109.578 384.828 109.297 383.531 109.016C382.297 108.75 381.133 108.398 380.039 107.961C378.961 107.523 378.016 106.992 377.203 106.367C376.391 105.742 375.75 105 375.281 104.141C374.828 103.281 374.602 102.297 374.602 101.188C374.602 100.109 374.828 99.0938 375.281 98.1406C375.75 97.1719 376.43 96.3203 377.32 95.5859C378.227 94.8359 379.328 94.25 380.625 93.8281C381.922 93.3906 383.398 93.1719 385.055 93.1719C387.336 93.1719 389.305 93.5234 390.961 94.2266C392.617 94.9141 393.891 95.8828 394.781 97.1328C395.688 98.3672 396.141 99.7969 396.141 101.422H388.242C388.242 100.781 388.133 100.234 387.914 99.7812C387.711 99.3281 387.375 98.9844 386.906 98.75C386.438 98.5 385.812 98.375 385.031 98.375C384.484 98.375 383.984 98.4766 383.531 98.6797C383.094 98.8828 382.742 99.1641 382.477 99.5234C382.211 99.8828 382.078 100.305 382.078 100.789C382.078 101.133 382.156 101.445 382.312 101.727C382.484 101.992 382.742 102.242 383.086 102.477C383.43 102.695 383.867 102.898 384.398 103.086C384.93 103.258 385.57 103.414 386.32 103.555C388.023 103.867 389.617 104.312 391.102 104.891C392.586 105.469 393.789 106.289 394.711 107.352C395.648 108.414 396.117 109.844 396.117 111.641C396.117 112.766 395.859 113.805 395.344 114.758C394.828 115.695 394.086 116.523 393.117 117.242C392.148 117.945 390.984 118.492 389.625 118.883C388.266 119.273 386.734 119.469 385.031 119.469C382.609 119.469 380.562 119.039 378.891 118.18C377.219 117.305 375.953 116.211 375.094 114.898C374.25 113.57 373.828 112.227 373.828 110.867H381.188C381.219 111.648 381.406 112.289 381.75 112.789C382.109 113.289 382.586 113.656 383.18 113.891C383.773 114.125 384.461 114.242 385.242 114.242C385.961 114.242 386.555 114.141 387.023 113.938C387.508 113.734 387.875 113.461 388.125 113.117C388.375 112.758 388.5 112.344 388.5 111.875ZM398.836 106.578V106.086C398.836 104.227 399.102 102.516 399.633 100.953C400.164 99.375 400.945 98.0078 401.977 96.8516C403.008 95.6953 404.281 94.7969 405.797 94.1562C407.312 93.5 409.062 93.1719 411.047 93.1719C413.047 93.1719 414.805 93.5 416.32 94.1562C417.852 94.7969 419.133 95.6953 420.164 96.8516C421.195 98.0078 421.977 99.375 422.508 100.953C423.039 102.516 423.305 104.227 423.305 106.086V106.578C423.305 108.422 423.039 110.133 422.508 111.711C421.977 113.273 421.195 114.641 420.164 115.812C419.133 116.969 417.859 117.867 416.344 118.508C414.828 119.148 413.078 119.469 411.094 119.469C409.109 119.469 407.352 119.148 405.82 118.508C404.289 117.867 403.008 116.969 401.977 115.812C400.945 114.641 400.164 113.273 399.633 111.711C399.102 110.133 398.836 108.422 398.836 106.578ZM406.734 106.086V106.578C406.734 107.531 406.805 108.422 406.945 109.25C407.086 110.078 407.32 110.805 407.648 111.43C407.977 112.039 408.422 112.516 408.984 112.859C409.547 113.203 410.25 113.375 411.094 113.375C411.922 113.375 412.609 113.203 413.156 112.859C413.719 112.516 414.164 112.039 414.492 111.43C414.82 110.805 415.055 110.078 415.195 109.25C415.336 108.422 415.406 107.531 415.406 106.578V106.086C415.406 105.164 415.336 104.297 415.195 103.484C415.055 102.656 414.82 101.93 414.492 101.305C414.164 100.664 413.719 100.164 413.156 99.8047C412.594 99.4453 411.891 99.2656 411.047 99.2656C410.219 99.2656 409.523 99.4453 408.961 99.8047C408.414 100.164 407.977 100.664 407.648 101.305C407.32 101.93 407.086 102.656 406.945 103.484C406.805 104.297 406.734 105.164 406.734 106.086ZM434.789 98.5156V128.75H426.891V93.6406H434.25L434.789 98.5156ZM450.352 106.016V106.508C450.352 108.352 450.141 110.062 449.719 111.641C449.297 113.219 448.672 114.594 447.844 115.766C447.016 116.938 445.984 117.852 444.75 118.508C443.531 119.148 442.117 119.469 440.508 119.469C438.992 119.469 437.688 119.133 436.594 118.461C435.5 117.789 434.586 116.859 433.852 115.672C433.117 114.484 432.523 113.125 432.07 111.594C431.617 110.062 431.258 108.445 430.992 106.742V106.109C431.258 104.281 431.617 102.586 432.07 101.023C432.523 99.4453 433.117 98.0703 433.852 96.8984C434.586 95.7266 435.492 94.8125 436.57 94.1562C437.664 93.5 438.969 93.1719 440.484 93.1719C442.094 93.1719 443.508 93.4766 444.727 94.0859C445.961 94.6953 446.992 95.5703 447.82 96.7109C448.664 97.8359 449.297 99.1875 449.719 100.766C450.141 102.344 450.352 104.094 450.352 106.016ZM442.453 106.508V106.016C442.453 105.031 442.383 104.133 442.242 103.32C442.102 102.492 441.875 101.773 441.562 101.164C441.266 100.555 440.867 100.086 440.367 99.7578C439.867 99.4297 439.25 99.2656 438.516 99.2656C437.672 99.2656 436.961 99.3984 436.383 99.6641C435.82 99.9141 435.367 100.305 435.023 100.836C434.695 101.352 434.461 102 434.32 102.781C434.195 103.547 434.141 104.445 434.156 105.477V107.398C434.125 108.586 434.242 109.633 434.508 110.539C434.773 111.43 435.234 112.125 435.891 112.625C436.547 113.125 437.438 113.375 438.562 113.375C439.312 113.375 439.938 113.203 440.438 112.859C440.938 112.5 441.336 112.008 441.633 111.383C441.93 110.742 442.141 110.008 442.266 109.18C442.391 108.352 442.453 107.461 442.453 106.508ZM461.602 83V119H453.703V83H461.602ZM460.664 105.453L458.812 105.5C458.812 103.719 459.031 102.078 459.469 100.578C459.906 99.0781 460.531 97.7734 461.344 96.6641C462.156 95.5547 463.133 94.6953 464.273 94.0859C465.414 93.4766 466.68 93.1719 468.07 93.1719C469.32 93.1719 470.461 93.3516 471.492 93.7109C472.539 94.0703 473.438 94.6484 474.188 95.4453C474.953 96.2422 475.539 97.2812 475.945 98.5625C476.367 99.8438 476.578 101.406 476.578 103.25V119H468.633V103.203C468.633 102.172 468.484 101.375 468.188 100.812C467.906 100.234 467.5 99.8359 466.969 99.6172C466.438 99.3828 465.789 99.2656 465.023 99.2656C464.102 99.2656 463.352 99.4219 462.773 99.7344C462.195 100.047 461.75 100.484 461.438 101.047C461.141 101.594 460.938 102.242 460.828 102.992C460.719 103.742 460.664 104.562 460.664 105.453ZM488.742 116.023L495.305 93.6406H503.789L493.594 122.773C493.375 123.414 493.086 124.102 492.727 124.836C492.367 125.586 491.875 126.297 491.25 126.969C490.625 127.641 489.82 128.188 488.836 128.609C487.867 129.031 486.664 129.242 485.227 129.242C484.461 129.242 483.898 129.203 483.539 129.125C483.195 129.062 482.664 128.945 481.945 128.773V123.125C482.148 123.125 482.32 123.125 482.461 123.125C482.617 123.125 482.789 123.125 482.977 123.125C483.82 123.125 484.492 123.039 484.992 122.867C485.508 122.695 485.898 122.445 486.164 122.117C486.445 121.789 486.664 121.391 486.82 120.922L488.742 116.023ZM487.078 93.6406L492.07 111.383L492.938 119.75H487.641L478.617 93.6406H487.078Z" fill="black"/>
<path d="M1134 0H1348C1356.28 0 1363 6.71573 1363 15V148C1363 156.284 1356.28 163 1348 163H1134V0Z" fill="#28EEA7"/>
<path d="M1234.26 103.786H1262.74V109.357H1234.26V103.786ZM1239.96 114.929H1257.04V120.5H1239.96V114.929ZM1248.5 42.5C1240.95 42.5 1233.71 45.4349 1228.37 50.6592C1223.03 55.8834 1220.03 62.969 1220.03 70.3571C1219.84 74.4057 1220.63 78.4412 1222.34 82.1315C1224.05 85.8219 1226.64 89.0616 1229.88 91.5843C1232.73 94.175 1234.26 95.6514 1234.26 98.2143H1239.96C1239.96 93.0886 1236.8 90.2193 1233.72 87.4614C1231.06 85.4676 1228.94 82.8658 1227.55 79.8838C1226.15 76.9019 1225.53 73.6308 1225.72 70.3571C1225.72 64.4466 1228.12 58.7781 1232.39 54.5988C1236.67 50.4194 1242.46 48.0714 1248.5 48.0714C1254.54 48.0714 1260.33 50.4194 1264.61 54.5988C1268.88 58.7781 1271.28 64.4466 1271.28 70.3571C1271.47 73.6333 1270.84 76.9059 1269.44 79.888C1268.04 82.8701 1265.92 85.4706 1263.25 87.4614C1260.2 90.2471 1257.04 93.0329 1257.04 98.2143H1262.74C1262.74 95.6514 1264.25 94.175 1267.12 91.5564C1270.36 89.0381 1272.94 85.8031 1274.66 82.1176C1276.37 78.4321 1277.16 74.4014 1276.97 70.3571C1276.97 66.6989 1276.24 63.0765 1274.81 59.6967C1273.37 56.3169 1271.28 53.2459 1268.63 50.6592C1265.99 48.0724 1262.85 46.0205 1259.4 44.6205C1255.94 43.2205 1252.24 42.5 1248.5 42.5Z" fill="white"/>
</svg>
