<svg width="1363" height="163" viewBox="0 0 1363 163" fill="none" xmlns="http://www.w3.org/2000/svg">
<path d="M0 15C0 6.71573 6.71573 0 15 0H37V163H15C6.71573 163 0 156.284 0 148V15Z" fill="#424242"/>
<rect width="1097" height="163" transform="translate(37)" fill="#F0F0F0"/>
<path d="M101.906 53.9219L94.3945 51.2383V48.0859L104.602 52.375V54.6367L101.906 53.9219ZM94.3945 56.1719L101.918 53.4297L104.602 52.7852V55.0352L94.3945 59.3242V56.1719ZM116.414 43.9375V61H112.898V43.9375H116.414ZM123.211 51.2266V53.9688H115.453V51.2266H123.211ZM124.031 43.9375V46.6914H115.453V43.9375H124.031ZM129.422 48.3203V61H126.035V48.3203H129.422ZM125.824 45.0156C125.824 44.5234 125.996 44.1172 126.34 43.7969C126.684 43.4766 127.145 43.3164 127.723 43.3164C128.293 43.3164 128.75 43.4766 129.094 43.7969C129.445 44.1172 129.621 44.5234 129.621 45.0156C129.621 45.5078 129.445 45.9141 129.094 46.2344C128.75 46.5547 128.293 46.7148 127.723 46.7148C127.145 46.7148 126.684 46.5547 126.34 46.2344C125.996 45.9141 125.824 45.5078 125.824 45.0156ZM135.516 51.0273V61H132.141V48.3203H135.305L135.516 51.0273ZM135.023 54.2148H134.109C134.109 53.2773 134.23 52.4336 134.473 51.6836C134.715 50.9258 135.055 50.2812 135.492 49.75C135.93 49.2109 136.449 48.8008 137.051 48.5195C137.66 48.2305 138.34 48.0859 139.09 48.0859C139.684 48.0859 140.227 48.1719 140.719 48.3438C141.211 48.5156 141.633 48.7891 141.984 49.1641C142.344 49.5391 142.617 50.0352 142.805 50.6523C143 51.2695 143.098 52.0234 143.098 52.9141V61H139.699V52.9023C139.699 52.3398 139.621 51.9023 139.465 51.5898C139.309 51.2773 139.078 51.0586 138.773 50.9336C138.477 50.8008 138.109 50.7344 137.672 50.7344C137.219 50.7344 136.824 50.8242 136.488 51.0039C136.16 51.1836 135.887 51.4336 135.668 51.7539C135.457 52.0664 135.297 52.4336 135.188 52.8555C135.078 53.2773 135.023 53.7305 135.023 54.2148ZM152.508 58.1406V52.4922C152.508 52.0859 152.441 51.7383 152.309 51.4492C152.176 51.1523 151.969 50.9219 151.688 50.7578C151.414 50.5938 151.059 50.5117 150.621 50.5117C150.246 50.5117 149.922 50.5781 149.648 50.7109C149.375 50.8359 149.164 51.0195 149.016 51.2617C148.867 51.4961 148.793 51.7734 148.793 52.0938H145.418C145.418 51.5547 145.543 51.043 145.793 50.5586C146.043 50.0742 146.406 49.6484 146.883 49.2812C147.359 48.9062 147.926 48.6133 148.582 48.4023C149.246 48.1914 149.988 48.0859 150.809 48.0859C151.793 48.0859 152.668 48.25 153.434 48.5781C154.199 48.9062 154.801 49.3984 155.238 50.0547C155.684 50.7109 155.906 51.5312 155.906 52.5156V57.9414C155.906 58.6367 155.949 59.207 156.035 59.6523C156.121 60.0898 156.246 60.4727 156.41 60.8008V61H153C152.836 60.6562 152.711 60.2266 152.625 59.7109C152.547 59.1875 152.508 58.6641 152.508 58.1406ZM152.953 53.2773L152.977 55.1875H151.09C150.645 55.1875 150.258 55.2383 149.93 55.3398C149.602 55.4414 149.332 55.5859 149.121 55.7734C148.91 55.9531 148.754 56.1641 148.652 56.4062C148.559 56.6484 148.512 56.9141 148.512 57.2031C148.512 57.4922 148.578 57.7539 148.711 57.9883C148.844 58.2148 149.035 58.3945 149.285 58.5273C149.535 58.6523 149.828 58.7148 150.164 58.7148C150.672 58.7148 151.113 58.6133 151.488 58.4102C151.863 58.207 152.152 57.957 152.355 57.6602C152.566 57.3633 152.676 57.082 152.684 56.8164L153.574 58.2461C153.449 58.5664 153.277 58.8984 153.059 59.2422C152.848 59.5859 152.578 59.9102 152.25 60.2148C151.922 60.5117 151.527 60.7578 151.066 60.9531C150.605 61.1406 150.059 61.2344 149.426 61.2344C148.621 61.2344 147.891 61.0742 147.234 60.7539C146.586 60.4258 146.07 59.9766 145.688 59.4062C145.312 58.8281 145.125 58.1719 145.125 57.4375C145.125 56.7734 145.25 56.1836 145.5 55.668C145.75 55.1523 146.117 54.7188 146.602 54.3672C147.094 54.0078 147.707 53.7383 148.441 53.5586C149.176 53.3711 150.027 53.2773 150.996 53.2773H152.953ZM161.812 51.0273V61H158.438V48.3203H161.602L161.812 51.0273ZM161.32 54.2148H160.406C160.406 53.2773 160.527 52.4336 160.77 51.6836C161.012 50.9258 161.352 50.2812 161.789 49.75C162.227 49.2109 162.746 48.8008 163.348 48.5195C163.957 48.2305 164.637 48.0859 165.387 48.0859C165.98 48.0859 166.523 48.1719 167.016 48.3438C167.508 48.5156 167.93 48.7891 168.281 49.1641C168.641 49.5391 168.914 50.0352 169.102 50.6523C169.297 51.2695 169.395 52.0234 169.395 52.9141V61H165.996V52.9023C165.996 52.3398 165.918 51.9023 165.762 51.5898C165.605 51.2773 165.375 51.0586 165.07 50.9336C164.773 50.8008 164.406 50.7344 163.969 50.7344C163.516 50.7344 163.121 50.8242 162.785 51.0039C162.457 51.1836 162.184 51.4336 161.965 51.7539C161.754 52.0664 161.594 52.4336 161.484 52.8555C161.375 53.2773 161.32 53.7305 161.32 54.2148ZM177.199 58.5977C177.613 58.5977 177.98 58.5195 178.301 58.3633C178.621 58.1992 178.871 57.9727 179.051 57.6836C179.238 57.3867 179.336 57.0391 179.344 56.6406H182.52C182.512 57.5312 182.273 58.3242 181.805 59.0195C181.336 59.707 180.707 60.25 179.918 60.6484C179.129 61.0391 178.246 61.2344 177.27 61.2344C176.285 61.2344 175.426 61.0703 174.691 60.7422C173.965 60.4141 173.359 59.9609 172.875 59.3828C172.391 58.7969 172.027 58.1172 171.785 57.3438C171.543 56.5625 171.422 55.7266 171.422 54.8359V54.4961C171.422 53.5977 171.543 52.7617 171.785 51.9883C172.027 51.207 172.391 50.5273 172.875 49.9492C173.359 49.3633 173.965 48.9062 174.691 48.5781C175.418 48.25 176.27 48.0859 177.246 48.0859C178.285 48.0859 179.195 48.2852 179.977 48.6836C180.766 49.082 181.383 49.6523 181.828 50.3945C182.281 51.1289 182.512 52 182.52 53.0078H179.344C179.336 52.5859 179.246 52.2031 179.074 51.8594C178.91 51.5156 178.668 51.2422 178.348 51.0391C178.035 50.8281 177.648 50.7227 177.188 50.7227C176.695 50.7227 176.293 50.8281 175.98 51.0391C175.668 51.2422 175.426 51.5234 175.254 51.8828C175.082 52.2344 174.961 52.6367 174.891 53.0898C174.828 53.5352 174.797 54.0039 174.797 54.4961V54.8359C174.797 55.3281 174.828 55.8008 174.891 56.2539C174.953 56.707 175.07 57.1094 175.242 57.4609C175.422 57.8125 175.668 58.0898 175.98 58.293C176.293 58.4961 176.699 58.5977 177.199 58.5977ZM188.039 48.3203V61H184.652V48.3203H188.039ZM184.441 45.0156C184.441 44.5234 184.613 44.1172 184.957 43.7969C185.301 43.4766 185.762 43.3164 186.34 43.3164C186.91 43.3164 187.367 43.4766 187.711 43.7969C188.062 44.1172 188.238 44.5234 188.238 45.0156C188.238 45.5078 188.062 45.9141 187.711 46.2344C187.367 46.5547 186.91 46.7148 186.34 46.7148C185.762 46.7148 185.301 46.5547 184.957 46.2344C184.613 45.9141 184.441 45.5078 184.441 45.0156ZM197.672 58.1406V52.4922C197.672 52.0859 197.605 51.7383 197.473 51.4492C197.34 51.1523 197.133 50.9219 196.852 50.7578C196.578 50.5938 196.223 50.5117 195.785 50.5117C195.41 50.5117 195.086 50.5781 194.812 50.7109C194.539 50.8359 194.328 51.0195 194.18 51.2617C194.031 51.4961 193.957 51.7734 193.957 52.0938H190.582C190.582 51.5547 190.707 51.043 190.957 50.5586C191.207 50.0742 191.57 49.6484 192.047 49.2812C192.523 48.9062 193.09 48.6133 193.746 48.4023C194.41 48.1914 195.152 48.0859 195.973 48.0859C196.957 48.0859 197.832 48.25 198.598 48.5781C199.363 48.9062 199.965 49.3984 200.402 50.0547C200.848 50.7109 201.07 51.5312 201.07 52.5156V57.9414C201.07 58.6367 201.113 59.207 201.199 59.6523C201.285 60.0898 201.41 60.4727 201.574 60.8008V61H198.164C198 60.6562 197.875 60.2266 197.789 59.7109C197.711 59.1875 197.672 58.6641 197.672 58.1406ZM198.117 53.2773L198.141 55.1875H196.254C195.809 55.1875 195.422 55.2383 195.094 55.3398C194.766 55.4414 194.496 55.5859 194.285 55.7734C194.074 55.9531 193.918 56.1641 193.816 56.4062C193.723 56.6484 193.676 56.9141 193.676 57.2031C193.676 57.4922 193.742 57.7539 193.875 57.9883C194.008 58.2148 194.199 58.3945 194.449 58.5273C194.699 58.6523 194.992 58.7148 195.328 58.7148C195.836 58.7148 196.277 58.6133 196.652 58.4102C197.027 58.207 197.316 57.957 197.52 57.6602C197.73 57.3633 197.84 57.082 197.848 56.8164L198.738 58.2461C198.613 58.5664 198.441 58.8984 198.223 59.2422C198.012 59.5859 197.742 59.9102 197.414 60.2148C197.086 60.5117 196.691 60.7578 196.23 60.9531C195.77 61.1406 195.223 61.2344 194.59 61.2344C193.785 61.2344 193.055 61.0742 192.398 60.7539C191.75 60.4258 191.234 59.9766 190.852 59.4062C190.477 58.8281 190.289 58.1719 190.289 57.4375C190.289 56.7734 190.414 56.1836 190.664 55.668C190.914 55.1523 191.281 54.7188 191.766 54.3672C192.258 54.0078 192.871 53.7383 193.605 53.5586C194.34 53.3711 195.191 53.2773 196.16 53.2773H198.117ZM207.234 43V61H203.848V43H207.234ZM216.211 43.9375H222.574C223.879 43.9375 225 44.1328 225.938 44.5234C226.883 44.9141 227.609 45.4922 228.117 46.2578C228.625 47.0234 228.879 47.9648 228.879 49.082C228.879 49.9961 228.723 50.7812 228.41 51.4375C228.105 52.0859 227.672 52.6289 227.109 53.0664C226.555 53.4961 225.902 53.8398 225.152 54.0977L224.039 54.6836H218.508L218.484 51.9414H222.598C223.215 51.9414 223.727 51.832 224.133 51.6133C224.539 51.3945 224.844 51.0898 225.047 50.6992C225.258 50.3086 225.363 49.8555 225.363 49.3398C225.363 48.793 225.262 48.3203 225.059 47.9219C224.855 47.5234 224.547 47.2188 224.133 47.0078C223.719 46.7969 223.199 46.6914 222.574 46.6914H219.727V61H216.211V43.9375ZM225.75 61L221.859 53.3945L225.574 53.3711L229.512 60.8359V61H225.75ZM234.938 48.3203V61H231.551V48.3203H234.938ZM231.34 45.0156C231.34 44.5234 231.512 44.1172 231.855 43.7969C232.199 43.4766 232.66 43.3164 233.238 43.3164C233.809 43.3164 234.266 43.4766 234.609 43.7969C234.961 44.1172 235.137 44.5234 235.137 45.0156C235.137 45.5078 234.961 45.9141 234.609 46.2344C234.266 46.5547 233.809 46.7148 233.238 46.7148C232.66 46.7148 232.199 46.5547 231.855 46.2344C231.512 45.9141 231.34 45.5078 231.34 45.0156ZM244.582 57.4961C244.582 57.2539 244.512 57.0352 244.371 56.8398C244.23 56.6445 243.969 56.4648 243.586 56.3008C243.211 56.1289 242.668 55.9727 241.957 55.832C241.316 55.6914 240.719 55.5156 240.164 55.3047C239.617 55.0859 239.141 54.8242 238.734 54.5195C238.336 54.2148 238.023 53.8555 237.797 53.4414C237.57 53.0195 237.457 52.5391 237.457 52C237.457 51.4688 237.57 50.9688 237.797 50.5C238.031 50.0312 238.363 49.6172 238.793 49.2578C239.23 48.8906 239.762 48.6055 240.387 48.4023C241.02 48.1914 241.73 48.0859 242.52 48.0859C243.621 48.0859 244.566 48.2617 245.355 48.6133C246.152 48.9648 246.762 49.4492 247.184 50.0664C247.613 50.6758 247.828 51.3711 247.828 52.1523H244.453C244.453 51.8242 244.383 51.5312 244.242 51.2734C244.109 51.0078 243.898 50.8008 243.609 50.6523C243.328 50.4961 242.961 50.418 242.508 50.418C242.133 50.418 241.809 50.4844 241.535 50.6172C241.262 50.7422 241.051 50.9141 240.902 51.1328C240.762 51.3438 240.691 51.5781 240.691 51.8359C240.691 52.0312 240.73 52.207 240.809 52.3633C240.895 52.5117 241.031 52.6484 241.219 52.7734C241.406 52.8984 241.648 53.0156 241.945 53.125C242.25 53.2266 242.625 53.3203 243.07 53.4062C243.984 53.5938 244.801 53.8398 245.52 54.1445C246.238 54.4414 246.809 54.8477 247.23 55.3633C247.652 55.8711 247.863 56.5391 247.863 57.3672C247.863 57.9297 247.738 58.4453 247.488 58.9141C247.238 59.3828 246.879 59.793 246.41 60.1445C245.941 60.4883 245.379 60.7578 244.723 60.9531C244.074 61.1406 243.344 61.2344 242.531 61.2344C241.352 61.2344 240.352 61.0234 239.531 60.6016C238.719 60.1797 238.102 59.6445 237.68 58.9961C237.266 58.3398 237.059 57.668 237.059 56.9805H240.258C240.273 57.4414 240.391 57.8125 240.609 58.0938C240.836 58.375 241.121 58.5781 241.465 58.7031C241.816 58.8281 242.195 58.8906 242.602 58.8906C243.039 58.8906 243.402 58.832 243.691 58.7148C243.98 58.5898 244.199 58.4258 244.348 58.2227C244.504 58.0117 244.582 57.7695 244.582 57.4961ZM253.43 42.9883V61H250.055V42.9883H253.43ZM261.422 48.3203L255.914 54.6016L252.961 57.5898L251.73 55.1523L254.074 52.1758L257.367 48.3203H261.422ZM257.918 61L254.168 55.1406L256.5 53.1016L261.809 61H257.918ZM269.062 43.9375H275.426C276.73 43.9375 277.852 44.1328 278.789 44.5234C279.734 44.9141 280.461 45.4922 280.969 46.2578C281.477 47.0234 281.73 47.9648 281.73 49.082C281.73 49.9961 281.574 50.7812 281.262 51.4375C280.957 52.0859 280.523 52.6289 279.961 53.0664C279.406 53.4961 278.754 53.8398 278.004 54.0977L276.891 54.6836H271.359L271.336 51.9414H275.449C276.066 51.9414 276.578 51.832 276.984 51.6133C277.391 51.3945 277.695 51.0898 277.898 50.6992C278.109 50.3086 278.215 49.8555 278.215 49.3398C278.215 48.793 278.113 48.3203 277.91 47.9219C277.707 47.5234 277.398 47.2188 276.984 47.0078C276.57 46.7969 276.051 46.6914 275.426 46.6914H272.578V61H269.062V43.9375ZM278.602 61L274.711 53.3945L278.426 53.3711L282.363 60.8359V61H278.602ZM291.07 58.1406V52.4922C291.07 52.0859 291.004 51.7383 290.871 51.4492C290.738 51.1523 290.531 50.9219 290.25 50.7578C289.977 50.5938 289.621 50.5117 289.184 50.5117C288.809 50.5117 288.484 50.5781 288.211 50.7109C287.938 50.8359 287.727 51.0195 287.578 51.2617C287.43 51.4961 287.355 51.7734 287.355 52.0938H283.98C283.98 51.5547 284.105 51.043 284.355 50.5586C284.605 50.0742 284.969 49.6484 285.445 49.2812C285.922 48.9062 286.488 48.6133 287.145 48.4023C287.809 48.1914 288.551 48.0859 289.371 48.0859C290.355 48.0859 291.23 48.25 291.996 48.5781C292.762 48.9062 293.363 49.3984 293.801 50.0547C294.246 50.7109 294.469 51.5312 294.469 52.5156V57.9414C294.469 58.6367 294.512 59.207 294.598 59.6523C294.684 60.0898 294.809 60.4727 294.973 60.8008V61H291.562C291.398 60.6562 291.273 60.2266 291.188 59.7109C291.109 59.1875 291.07 58.6641 291.07 58.1406ZM291.516 53.2773L291.539 55.1875H289.652C289.207 55.1875 288.82 55.2383 288.492 55.3398C288.164 55.4414 287.895 55.5859 287.684 55.7734C287.473 55.9531 287.316 56.1641 287.215 56.4062C287.121 56.6484 287.074 56.9141 287.074 57.2031C287.074 57.4922 287.141 57.7539 287.273 57.9883C287.406 58.2148 287.598 58.3945 287.848 58.5273C288.098 58.6523 288.391 58.7148 288.727 58.7148C289.234 58.7148 289.676 58.6133 290.051 58.4102C290.426 58.207 290.715 57.957 290.918 57.6602C291.129 57.3633 291.238 57.082 291.246 56.8164L292.137 58.2461C292.012 58.5664 291.84 58.8984 291.621 59.2422C291.41 59.5859 291.141 59.9102 290.812 60.2148C290.484 60.5117 290.09 60.7578 289.629 60.9531C289.168 61.1406 288.621 61.2344 287.988 61.2344C287.184 61.2344 286.453 61.0742 285.797 60.7539C285.148 60.4258 284.633 59.9766 284.25 59.4062C283.875 58.8281 283.688 58.1719 283.688 57.4375C283.688 56.7734 283.812 56.1836 284.062 55.668C284.312 55.1523 284.68 54.7188 285.164 54.3672C285.656 54.0078 286.27 53.7383 287.004 53.5586C287.738 53.3711 288.59 53.2773 289.559 53.2773H291.516ZM304.559 58.2344V43H307.957V61H304.898L304.559 58.2344ZM296.543 54.8125V54.5664C296.543 53.5977 296.652 52.7188 296.871 51.9297C297.09 51.1328 297.41 50.4492 297.832 49.8789C298.254 49.3086 298.773 48.8672 299.391 48.5547C300.008 48.2422 300.711 48.0859 301.5 48.0859C302.242 48.0859 302.891 48.2422 303.445 48.5547C304.008 48.8672 304.484 49.3125 304.875 49.8906C305.273 50.4609 305.594 51.1367 305.836 51.918C306.078 52.6914 306.254 53.5391 306.363 54.4609V55C306.254 55.8828 306.078 56.7031 305.836 57.4609C305.594 58.2188 305.273 58.8828 304.875 59.4531C304.484 60.0156 304.008 60.4531 303.445 60.7656C302.883 61.0781 302.227 61.2344 301.477 61.2344C300.688 61.2344 299.984 61.0742 299.367 60.7539C298.758 60.4336 298.242 59.9844 297.82 59.4062C297.406 58.8281 297.09 58.1484 296.871 57.3672C296.652 56.5859 296.543 55.7344 296.543 54.8125ZM299.918 54.5664V54.8125C299.918 55.3359 299.957 55.8242 300.035 56.2773C300.121 56.7305 300.258 57.1328 300.445 57.4844C300.641 57.8281 300.891 58.0977 301.195 58.293C301.508 58.4805 301.887 58.5742 302.332 58.5742C302.91 58.5742 303.387 58.4453 303.762 58.1875C304.137 57.9219 304.422 57.5586 304.617 57.0977C304.82 56.6367 304.938 56.1055 304.969 55.5039V53.9688C304.945 53.4766 304.875 53.0352 304.758 52.6445C304.648 52.2461 304.484 51.9062 304.266 51.625C304.055 51.3438 303.789 51.125 303.469 50.9688C303.156 50.8125 302.785 50.7344 302.355 50.7344C301.918 50.7344 301.543 50.8359 301.23 51.0391C300.918 51.2344 300.664 51.5039 300.469 51.8477C300.281 52.1914 300.141 52.5977 300.047 53.0664C299.961 53.5273 299.918 54.0273 299.918 54.5664ZM317.438 58.1406V52.4922C317.438 52.0859 317.371 51.7383 317.238 51.4492C317.105 51.1523 316.898 50.9219 316.617 50.7578C316.344 50.5938 315.988 50.5117 315.551 50.5117C315.176 50.5117 314.852 50.5781 314.578 50.7109C314.305 50.8359 314.094 51.0195 313.945 51.2617C313.797 51.4961 313.723 51.7734 313.723 52.0938H310.348C310.348 51.5547 310.473 51.043 310.723 50.5586C310.973 50.0742 311.336 49.6484 311.812 49.2812C312.289 48.9062 312.855 48.6133 313.512 48.4023C314.176 48.1914 314.918 48.0859 315.738 48.0859C316.723 48.0859 317.598 48.25 318.363 48.5781C319.129 48.9062 319.73 49.3984 320.168 50.0547C320.613 50.7109 320.836 51.5312 320.836 52.5156V57.9414C320.836 58.6367 320.879 59.207 320.965 59.6523C321.051 60.0898 321.176 60.4727 321.34 60.8008V61H317.93C317.766 60.6562 317.641 60.2266 317.555 59.7109C317.477 59.1875 317.438 58.6641 317.438 58.1406ZM317.883 53.2773L317.906 55.1875H316.02C315.574 55.1875 315.188 55.2383 314.859 55.3398C314.531 55.4414 314.262 55.5859 314.051 55.7734C313.84 55.9531 313.684 56.1641 313.582 56.4062C313.488 56.6484 313.441 56.9141 313.441 57.2031C313.441 57.4922 313.508 57.7539 313.641 57.9883C313.773 58.2148 313.965 58.3945 314.215 58.5273C314.465 58.6523 314.758 58.7148 315.094 58.7148C315.602 58.7148 316.043 58.6133 316.418 58.4102C316.793 58.207 317.082 57.957 317.285 57.6602C317.496 57.3633 317.605 57.082 317.613 56.8164L318.504 58.2461C318.379 58.5664 318.207 58.8984 317.988 59.2422C317.777 59.5859 317.508 59.9102 317.18 60.2148C316.852 60.5117 316.457 60.7578 315.996 60.9531C315.535 61.1406 314.988 61.2344 314.355 61.2344C313.551 61.2344 312.82 61.0742 312.164 60.7539C311.516 60.4258 311 59.9766 310.617 59.4062C310.242 58.8281 310.055 58.1719 310.055 57.4375C310.055 56.7734 310.18 56.1836 310.43 55.668C310.68 55.1523 311.047 54.7188 311.531 54.3672C312.023 54.0078 312.637 53.7383 313.371 53.5586C314.105 53.3711 314.957 53.2773 315.926 53.2773H317.883ZM326.812 51.0859V61H323.438V48.3203H326.613L326.812 51.0859ZM330.633 48.2383L330.574 51.3672C330.41 51.3438 330.211 51.3242 329.977 51.3086C329.75 51.2852 329.543 51.2734 329.355 51.2734C328.879 51.2734 328.465 51.3359 328.113 51.4609C327.77 51.5781 327.48 51.7539 327.246 51.9883C327.02 52.2227 326.848 52.5078 326.73 52.8438C326.621 53.1797 326.559 53.5625 326.543 53.9922L325.863 53.7812C325.863 52.9609 325.945 52.207 326.109 51.5195C326.273 50.8242 326.512 50.2188 326.824 49.7031C327.145 49.1875 327.535 48.7891 327.996 48.5078C328.457 48.2266 328.984 48.0859 329.578 48.0859C329.766 48.0859 329.957 48.1016 330.152 48.1328C330.348 48.1562 330.508 48.1914 330.633 48.2383Z" fill="#888888"/>
<path d="M109.219 107.422H100.734V101.07H109.219C110.375 101.07 111.312 100.875 112.031 100.484C112.75 100.094 113.273 99.5547 113.602 98.8672C113.945 98.1641 114.117 97.375 114.117 96.5C114.117 95.5625 113.945 94.6953 113.602 93.8984C113.273 93.1016 112.75 92.4609 112.031 91.9766C111.312 91.4766 110.375 91.2266 109.219 91.2266H103.828V119H95.6016V84.875H109.219C111.953 84.875 114.305 85.375 116.273 86.375C118.258 87.375 119.781 88.75 120.844 90.5C121.906 92.2344 122.438 94.2188 122.438 96.4531C122.438 98.6562 121.906 100.578 120.844 102.219C119.781 103.859 118.258 105.141 116.273 106.062C114.305 106.969 111.953 107.422 109.219 107.422ZM134.461 99.9219V119H126.562V93.6406H133.945L134.461 99.9219ZM141.961 93.4531L141.82 100.789C141.508 100.758 141.086 100.719 140.555 100.672C140.023 100.625 139.578 100.602 139.219 100.602C138.297 100.602 137.5 100.711 136.828 100.93C136.172 101.133 135.625 101.445 135.188 101.867C134.766 102.273 134.453 102.789 134.25 103.414C134.062 104.039 133.977 104.766 133.992 105.594L132.562 104.656C132.562 102.953 132.727 101.406 133.055 100.016C133.398 98.6094 133.883 97.3984 134.508 96.3828C135.133 95.3516 135.891 94.5625 136.781 94.0156C137.672 93.4531 138.672 93.1719 139.781 93.1719C140.172 93.1719 140.555 93.1953 140.93 93.2422C141.32 93.2891 141.664 93.3594 141.961 93.4531ZM142.852 106.578V106.086C142.852 104.227 143.117 102.516 143.648 100.953C144.18 99.375 144.961 98.0078 145.992 96.8516C147.023 95.6953 148.297 94.7969 149.812 94.1562C151.328 93.5 153.078 93.1719 155.062 93.1719C157.062 93.1719 158.82 93.5 160.336 94.1562C161.867 94.7969 163.148 95.6953 164.18 96.8516C165.211 98.0078 165.992 99.375 166.523 100.953C167.055 102.516 167.32 104.227 167.32 106.086V106.578C167.32 108.422 167.055 110.133 166.523 111.711C165.992 113.273 165.211 114.641 164.18 115.812C163.148 116.969 161.875 117.867 160.359 118.508C158.844 119.148 157.094 119.469 155.109 119.469C153.125 119.469 151.367 119.148 149.836 118.508C148.305 117.867 147.023 116.969 145.992 115.812C144.961 114.641 144.18 113.273 143.648 111.711C143.117 110.133 142.852 108.422 142.852 106.578ZM150.75 106.086V106.578C150.75 107.531 150.82 108.422 150.961 109.25C151.102 110.078 151.336 110.805 151.664 111.43C151.992 112.039 152.438 112.516 153 112.859C153.562 113.203 154.266 113.375 155.109 113.375C155.938 113.375 156.625 113.203 157.172 112.859C157.734 112.516 158.18 112.039 158.508 111.43C158.836 110.805 159.07 110.078 159.211 109.25C159.352 108.422 159.422 107.531 159.422 106.578V106.086C159.422 105.164 159.352 104.297 159.211 103.484C159.07 102.656 158.836 101.93 158.508 101.305C158.18 100.664 157.734 100.164 157.172 99.8047C156.609 99.4453 155.906 99.2656 155.062 99.2656C154.234 99.2656 153.539 99.4453 152.977 99.8047C152.43 100.164 151.992 100.664 151.664 101.305C151.336 101.93 151.102 102.656 150.961 103.484C150.82 104.297 150.75 105.164 150.75 106.086ZM171.422 93.6406H179.344V119.82C179.344 121.852 178.953 123.562 178.172 124.953C177.391 126.359 176.273 127.422 174.82 128.141C173.367 128.875 171.633 129.242 169.617 129.242C168.945 129.242 168.328 129.211 167.766 129.148C167.188 129.102 166.555 129 165.867 128.844V122.867C166.273 122.93 166.648 122.977 166.992 123.008C167.336 123.055 167.711 123.078 168.117 123.078C168.836 123.078 169.438 122.961 169.922 122.727C170.406 122.492 170.773 122.133 171.023 121.648C171.289 121.164 171.422 120.555 171.422 119.82V93.6406ZM170.836 87.1016C170.836 85.9766 171.242 85.0547 172.055 84.3359C172.867 83.6172 173.922 83.2578 175.219 83.2578C176.516 83.2578 177.57 83.6172 178.383 84.3359C179.195 85.0547 179.602 85.9766 179.602 87.1016C179.602 88.2266 179.195 89.1484 178.383 89.8672C177.57 90.5859 176.516 90.9453 175.219 90.9453C173.922 90.9453 172.867 90.5859 172.055 89.8672C171.242 89.1484 170.836 88.2266 170.836 87.1016ZM196.102 119.469C194.039 119.469 192.195 119.148 190.57 118.508C188.945 117.852 187.57 116.953 186.445 115.812C185.336 114.672 184.484 113.359 183.891 111.875C183.312 110.391 183.023 108.82 183.023 107.164V106.273C183.023 104.414 183.281 102.695 183.797 101.117C184.312 99.5234 185.078 98.1328 186.094 96.9453C187.109 95.7578 188.383 94.8359 189.914 94.1797C191.445 93.5078 193.227 93.1719 195.258 93.1719C197.055 93.1719 198.664 93.4609 200.086 94.0391C201.508 94.6172 202.711 95.4453 203.695 96.5234C204.695 97.6016 205.453 98.9062 205.969 100.438C206.5 101.969 206.766 103.688 206.766 105.594V108.805H186.047V103.859H199.055V103.25C199.07 102.406 198.922 101.688 198.609 101.094C198.312 100.5 197.875 100.047 197.297 99.7344C196.719 99.4219 196.016 99.2656 195.188 99.2656C194.328 99.2656 193.617 99.4531 193.055 99.8281C192.508 100.203 192.078 100.719 191.766 101.375C191.469 102.016 191.258 102.758 191.133 103.602C191.008 104.445 190.945 105.336 190.945 106.273V107.164C190.945 108.102 191.07 108.953 191.32 109.719C191.586 110.484 191.961 111.141 192.445 111.688C192.945 112.219 193.539 112.633 194.227 112.93C194.93 113.227 195.727 113.375 196.617 113.375C197.695 113.375 198.758 113.172 199.805 112.766C200.852 112.359 201.75 111.688 202.5 110.75L206.086 115.016C205.57 115.75 204.836 116.461 203.883 117.148C202.945 117.836 201.82 118.398 200.508 118.836C199.195 119.258 197.727 119.469 196.102 119.469ZM220.688 113.375C221.422 113.375 222.047 113.242 222.562 112.977C223.094 112.695 223.492 112.305 223.758 111.805C224.039 111.289 224.172 110.672 224.156 109.953H231.586C231.602 111.859 231.133 113.531 230.18 114.969C229.242 116.391 227.961 117.5 226.336 118.297C224.727 119.078 222.906 119.469 220.875 119.469C218.891 119.469 217.156 119.148 215.672 118.508C214.188 117.852 212.945 116.945 211.945 115.789C210.961 114.617 210.219 113.25 209.719 111.688C209.234 110.125 208.992 108.43 208.992 106.602V106.062C208.992 104.234 209.234 102.539 209.719 100.977C210.219 99.3984 210.961 98.0312 211.945 96.875C212.945 95.7031 214.18 94.7969 215.648 94.1562C217.133 93.5 218.859 93.1719 220.828 93.1719C222.938 93.1719 224.797 93.5703 226.406 94.3672C228.031 95.1641 229.305 96.3203 230.227 97.8359C231.148 99.3516 231.602 101.188 231.586 103.344H224.156C224.172 102.578 224.055 101.891 223.805 101.281C223.555 100.672 223.164 100.188 222.633 99.8281C222.117 99.4531 221.453 99.2656 220.641 99.2656C219.828 99.2656 219.172 99.4453 218.672 99.8047C218.172 100.164 217.789 100.664 217.523 101.305C217.273 101.93 217.102 102.648 217.008 103.461C216.93 104.273 216.891 105.141 216.891 106.062V106.602C216.891 107.539 216.93 108.422 217.008 109.25C217.102 110.062 217.281 110.781 217.547 111.406C217.812 112.016 218.195 112.5 218.695 112.859C219.195 113.203 219.859 113.375 220.688 113.375ZM248.32 93.6406V99.125H233.039V93.6406H248.32ZM236.25 87.3359H244.148V110.727C244.148 111.398 244.227 111.922 244.383 112.297C244.539 112.656 244.805 112.914 245.18 113.07C245.57 113.211 246.086 113.281 246.727 113.281C247.18 113.281 247.555 113.273 247.852 113.258C248.148 113.227 248.43 113.188 248.695 113.141V118.789C248.023 119.008 247.32 119.172 246.586 119.281C245.852 119.406 245.07 119.469 244.242 119.469C242.555 119.469 241.109 119.203 239.906 118.672C238.719 118.141 237.812 117.305 237.188 116.164C236.562 115.023 236.25 113.539 236.25 111.711V87.3359ZM277.406 107.422H268.922V101.07H277.406C278.562 101.07 279.5 100.875 280.219 100.484C280.938 100.094 281.461 99.5547 281.789 98.8672C282.133 98.1641 282.305 97.375 282.305 96.5C282.305 95.5625 282.133 94.6953 281.789 93.8984C281.461 93.1016 280.938 92.4609 280.219 91.9766C279.5 91.4766 278.562 91.2266 277.406 91.2266H272.016V119H263.789V84.875H277.406C280.141 84.875 282.492 85.375 284.461 86.375C286.445 87.375 287.969 88.75 289.031 90.5C290.094 92.2344 290.625 94.2188 290.625 96.4531C290.625 98.6562 290.094 100.578 289.031 102.219C287.969 103.859 286.445 105.141 284.461 106.062C282.492 106.969 280.141 107.422 277.406 107.422ZM302.414 83V119H294.516V83H302.414ZM301.477 105.453L299.625 105.5C299.625 103.719 299.844 102.078 300.281 100.578C300.719 99.0781 301.344 97.7734 302.156 96.6641C302.969 95.5547 303.945 94.6953 305.086 94.0859C306.227 93.4766 307.492 93.1719 308.883 93.1719C310.133 93.1719 311.273 93.3516 312.305 93.7109C313.352 94.0703 314.25 94.6484 315 95.4453C315.766 96.2422 316.352 97.2812 316.758 98.5625C317.18 99.8438 317.391 101.406 317.391 103.25V119H309.445V103.203C309.445 102.172 309.297 101.375 309 100.812C308.719 100.234 308.312 99.8359 307.781 99.6172C307.25 99.3828 306.602 99.2656 305.836 99.2656C304.914 99.2656 304.164 99.4219 303.586 99.7344C303.008 100.047 302.562 100.484 302.25 101.047C301.953 101.594 301.75 102.242 301.641 102.992C301.531 103.742 301.477 104.562 301.477 105.453ZM330.117 93.6406V119H322.195V93.6406H330.117ZM321.727 87.1016C321.727 85.9766 322.133 85.0547 322.945 84.3359C323.758 83.6172 324.812 83.2578 326.109 83.2578C327.406 83.2578 328.461 83.6172 329.273 84.3359C330.086 85.0547 330.492 85.9766 330.492 87.1016C330.492 88.2266 330.086 89.1484 329.273 89.8672C328.461 90.5859 327.406 90.9453 326.109 90.9453C324.812 90.9453 323.758 90.5859 322.945 89.8672C322.133 89.1484 321.727 88.2266 321.727 87.1016ZM343.336 83V119H335.414V83H343.336ZM347.227 106.578V106.086C347.227 104.227 347.492 102.516 348.023 100.953C348.555 99.375 349.336 98.0078 350.367 96.8516C351.398 95.6953 352.672 94.7969 354.188 94.1562C355.703 93.5 357.453 93.1719 359.438 93.1719C361.438 93.1719 363.195 93.5 364.711 94.1562C366.242 94.7969 367.523 95.6953 368.555 96.8516C369.586 98.0078 370.367 99.375 370.898 100.953C371.43 102.516 371.695 104.227 371.695 106.086V106.578C371.695 108.422 371.43 110.133 370.898 111.711C370.367 113.273 369.586 114.641 368.555 115.812C367.523 116.969 366.25 117.867 364.734 118.508C363.219 119.148 361.469 119.469 359.484 119.469C357.5 119.469 355.742 119.148 354.211 118.508C352.68 117.867 351.398 116.969 350.367 115.812C349.336 114.641 348.555 113.273 348.023 111.711C347.492 110.133 347.227 108.422 347.227 106.578ZM355.125 106.086V106.578C355.125 107.531 355.195 108.422 355.336 109.25C355.477 110.078 355.711 110.805 356.039 111.43C356.367 112.039 356.812 112.516 357.375 112.859C357.938 113.203 358.641 113.375 359.484 113.375C360.312 113.375 361 113.203 361.547 112.859C362.109 112.516 362.555 112.039 362.883 111.43C363.211 110.805 363.445 110.078 363.586 109.25C363.727 108.422 363.797 107.531 363.797 106.578V106.086C363.797 105.164 363.727 104.297 363.586 103.484C363.445 102.656 363.211 101.93 362.883 101.305C362.555 100.664 362.109 100.164 361.547 99.8047C360.984 99.4453 360.281 99.2656 359.438 99.2656C358.609 99.2656 357.914 99.4453 357.352 99.8047C356.805 100.164 356.367 100.664 356.039 101.305C355.711 101.93 355.477 102.656 355.336 103.484C355.195 104.297 355.125 105.164 355.125 106.086ZM388.5 111.875C388.5 111.438 388.352 111.062 388.055 110.75C387.773 110.422 387.273 110.125 386.555 109.859C385.836 109.578 384.828 109.297 383.531 109.016C382.297 108.75 381.133 108.398 380.039 107.961C378.961 107.523 378.016 106.992 377.203 106.367C376.391 105.742 375.75 105 375.281 104.141C374.828 103.281 374.602 102.297 374.602 101.188C374.602 100.109 374.828 99.0938 375.281 98.1406C375.75 97.1719 376.43 96.3203 377.32 95.5859C378.227 94.8359 379.328 94.25 380.625 93.8281C381.922 93.3906 383.398 93.1719 385.055 93.1719C387.336 93.1719 389.305 93.5234 390.961 94.2266C392.617 94.9141 393.891 95.8828 394.781 97.1328C395.688 98.3672 396.141 99.7969 396.141 101.422H388.242C388.242 100.781 388.133 100.234 387.914 99.7812C387.711 99.3281 387.375 98.9844 386.906 98.75C386.438 98.5 385.812 98.375 385.031 98.375C384.484 98.375 383.984 98.4766 383.531 98.6797C383.094 98.8828 382.742 99.1641 382.477 99.5234C382.211 99.8828 382.078 100.305 382.078 100.789C382.078 101.133 382.156 101.445 382.312 101.727C382.484 101.992 382.742 102.242 383.086 102.477C383.43 102.695 383.867 102.898 384.398 103.086C384.93 103.258 385.57 103.414 386.32 103.555C388.023 103.867 389.617 104.312 391.102 104.891C392.586 105.469 393.789 106.289 394.711 107.352C395.648 108.414 396.117 109.844 396.117 111.641C396.117 112.766 395.859 113.805 395.344 114.758C394.828 115.695 394.086 116.523 393.117 117.242C392.148 117.945 390.984 118.492 389.625 118.883C388.266 119.273 386.734 119.469 385.031 119.469C382.609 119.469 380.562 119.039 378.891 118.18C377.219 117.305 375.953 116.211 375.094 114.898C374.25 113.57 373.828 112.227 373.828 110.867H381.188C381.219 111.648 381.406 112.289 381.75 112.789C382.109 113.289 382.586 113.656 383.18 113.891C383.773 114.125 384.461 114.242 385.242 114.242C385.961 114.242 386.555 114.141 387.023 113.938C387.508 113.734 387.875 113.461 388.125 113.117C388.375 112.758 388.5 112.344 388.5 111.875ZM398.836 106.578V106.086C398.836 104.227 399.102 102.516 399.633 100.953C400.164 99.375 400.945 98.0078 401.977 96.8516C403.008 95.6953 404.281 94.7969 405.797 94.1562C407.312 93.5 409.062 93.1719 411.047 93.1719C413.047 93.1719 414.805 93.5 416.32 94.1562C417.852 94.7969 419.133 95.6953 420.164 96.8516C421.195 98.0078 421.977 99.375 422.508 100.953C423.039 102.516 423.305 104.227 423.305 106.086V106.578C423.305 108.422 423.039 110.133 422.508 111.711C421.977 113.273 421.195 114.641 420.164 115.812C419.133 116.969 417.859 117.867 416.344 118.508C414.828 119.148 413.078 119.469 411.094 119.469C409.109 119.469 407.352 119.148 405.82 118.508C404.289 117.867 403.008 116.969 401.977 115.812C400.945 114.641 400.164 113.273 399.633 111.711C399.102 110.133 398.836 108.422 398.836 106.578ZM406.734 106.086V106.578C406.734 107.531 406.805 108.422 406.945 109.25C407.086 110.078 407.32 110.805 407.648 111.43C407.977 112.039 408.422 112.516 408.984 112.859C409.547 113.203 410.25 113.375 411.094 113.375C411.922 113.375 412.609 113.203 413.156 112.859C413.719 112.516 414.164 112.039 414.492 111.43C414.82 110.805 415.055 110.078 415.195 109.25C415.336 108.422 415.406 107.531 415.406 106.578V106.086C415.406 105.164 415.336 104.297 415.195 103.484C415.055 102.656 414.82 101.93 414.492 101.305C414.164 100.664 413.719 100.164 413.156 99.8047C412.594 99.4453 411.891 99.2656 411.047 99.2656C410.219 99.2656 409.523 99.4453 408.961 99.8047C408.414 100.164 407.977 100.664 407.648 101.305C407.32 101.93 407.086 102.656 406.945 103.484C406.805 104.297 406.734 105.164 406.734 106.086ZM434.789 98.5156V128.75H426.891V93.6406H434.25L434.789 98.5156ZM450.352 106.016V106.508C450.352 108.352 450.141 110.062 449.719 111.641C449.297 113.219 448.672 114.594 447.844 115.766C447.016 116.938 445.984 117.852 444.75 118.508C443.531 119.148 442.117 119.469 440.508 119.469C438.992 119.469 437.688 119.133 436.594 118.461C435.5 117.789 434.586 116.859 433.852 115.672C433.117 114.484 432.523 113.125 432.07 111.594C431.617 110.062 431.258 108.445 430.992 106.742V106.109C431.258 104.281 431.617 102.586 432.07 101.023C432.523 99.4453 433.117 98.0703 433.852 96.8984C434.586 95.7266 435.492 94.8125 436.57 94.1562C437.664 93.5 438.969 93.1719 440.484 93.1719C442.094 93.1719 443.508 93.4766 444.727 94.0859C445.961 94.6953 446.992 95.5703 447.82 96.7109C448.664 97.8359 449.297 99.1875 449.719 100.766C450.141 102.344 450.352 104.094 450.352 106.016ZM442.453 106.508V106.016C442.453 105.031 442.383 104.133 442.242 103.32C442.102 102.492 441.875 101.773 441.562 101.164C441.266 100.555 440.867 100.086 440.367 99.7578C439.867 99.4297 439.25 99.2656 438.516 99.2656C437.672 99.2656 436.961 99.3984 436.383 99.6641C435.82 99.9141 435.367 100.305 435.023 100.836C434.695 101.352 434.461 102 434.32 102.781C434.195 103.547 434.141 104.445 434.156 105.477V107.398C434.125 108.586 434.242 109.633 434.508 110.539C434.773 111.43 435.234 112.125 435.891 112.625C436.547 113.125 437.438 113.375 438.562 113.375C439.312 113.375 439.938 113.203 440.438 112.859C440.938 112.5 441.336 112.008 441.633 111.383C441.93 110.742 442.141 110.008 442.266 109.18C442.391 108.352 442.453 107.461 442.453 106.508ZM461.602 83V119H453.703V83H461.602ZM460.664 105.453L458.812 105.5C458.812 103.719 459.031 102.078 459.469 100.578C459.906 99.0781 460.531 97.7734 461.344 96.6641C462.156 95.5547 463.133 94.6953 464.273 94.0859C465.414 93.4766 466.68 93.1719 468.07 93.1719C469.32 93.1719 470.461 93.3516 471.492 93.7109C472.539 94.0703 473.438 94.6484 474.188 95.4453C474.953 96.2422 475.539 97.2812 475.945 98.5625C476.367 99.8438 476.578 101.406 476.578 103.25V119H468.633V103.203C468.633 102.172 468.484 101.375 468.188 100.812C467.906 100.234 467.5 99.8359 466.969 99.6172C466.438 99.3828 465.789 99.2656 465.023 99.2656C464.102 99.2656 463.352 99.4219 462.773 99.7344C462.195 100.047 461.75 100.484 461.438 101.047C461.141 101.594 460.938 102.242 460.828 102.992C460.719 103.742 460.664 104.562 460.664 105.453ZM488.742 116.023L495.305 93.6406H503.789L493.594 122.773C493.375 123.414 493.086 124.102 492.727 124.836C492.367 125.586 491.875 126.297 491.25 126.969C490.625 127.641 489.82 128.188 488.836 128.609C487.867 129.031 486.664 129.242 485.227 129.242C484.461 129.242 483.898 129.203 483.539 129.125C483.195 129.062 482.664 128.945 481.945 128.773V123.125C482.148 123.125 482.32 123.125 482.461 123.125C482.617 123.125 482.789 123.125 482.977 123.125C483.82 123.125 484.492 123.039 484.992 122.867C485.508 122.695 485.898 122.445 486.164 122.117C486.445 121.789 486.664 121.391 486.82 120.922L488.742 116.023ZM487.078 93.6406L492.07 111.383L492.938 119.75H487.641L478.617 93.6406H487.078Z" fill="black"/>
<path d="M1134 0H1348C1356.28 0 1363 6.71573 1363 15V148C1363 156.284 1356.28 163 1348 163H1134V0Z" fill="#4653C9"/>
<path d="M1234.26 103.786H1262.74V109.357H1234.26V103.786ZM1239.96 114.929H1257.04V120.5H1239.96V114.929ZM1248.5 42.5C1240.95 42.5 1233.71 45.4349 1228.37 50.6592C1223.03 55.8834 1220.03 62.969 1220.03 70.3571C1219.84 74.4057 1220.63 78.4412 1222.34 82.1315C1224.05 85.8219 1226.64 89.0616 1229.88 91.5843C1232.73 94.175 1234.26 95.6514 1234.26 98.2143H1239.96C1239.96 93.0886 1236.8 90.2193 1233.72 87.4614C1231.06 85.4676 1228.94 82.8658 1227.55 79.8838C1226.15 76.9019 1225.53 73.6308 1225.72 70.3571C1225.72 64.4466 1228.12 58.7781 1232.39 54.5988C1236.67 50.4194 1242.46 48.0714 1248.5 48.0714C1254.54 48.0714 1260.33 50.4194 1264.61 54.5988C1268.88 58.7781 1271.28 64.4466 1271.28 70.3571C1271.47 73.6333 1270.84 76.9059 1269.44 79.888C1268.04 82.8701 1265.92 85.4706 1263.25 87.4614C1260.2 90.2471 1257.04 93.0329 1257.04 98.2143H1262.74C1262.74 95.6514 1264.25 94.175 1267.12 91.5564C1270.36 89.0381 1272.94 85.8031 1274.66 82.1176C1276.37 78.4321 1277.16 74.4014 1276.97 70.3571C1276.97 66.6989 1276.24 63.0765 1274.81 59.6967C1273.37 56.3169 1271.28 53.2459 1268.63 50.6592C1265.99 48.0724 1262.85 46.0205 1259.4 44.6205C1255.94 43.2205 1252.24 42.5 1248.5 42.5Z" fill="white"/>
</svg>
