<svg width="1363" height="163" viewBox="0 0 1363 163" fill="none" xmlns="http://www.w3.org/2000/svg">
<path d="M0 15C0 6.71573 6.71573 0 15 0H37V163H15C6.71573 163 0 156.284 0 148V15Z" fill="#424242"/>
<rect width="1097" height="163" transform="translate(37)" fill="#F0F0F0"/>
<path d="M98.0391 43.9375V61H94.5234V43.9375H98.0391ZM104.836 51.2266V53.9688H97.0781V51.2266H104.836ZM105.656 43.9375V46.6914H97.0781V43.9375H105.656ZM111.047 48.3203V61H107.66V48.3203H111.047ZM107.449 45.0156C107.449 44.5234 107.621 44.1172 107.965 43.7969C108.309 43.4766 108.77 43.3164 109.348 43.3164C109.918 43.3164 110.375 43.4766 110.719 43.7969C111.07 44.1172 111.246 44.5234 111.246 45.0156C111.246 45.5078 111.07 45.9141 110.719 46.2344C110.375 46.5547 109.918 46.7148 109.348 46.7148C108.77 46.7148 108.309 46.5547 107.965 46.2344C107.621 45.9141 107.449 45.5078 107.449 45.0156ZM117.141 51.0273V61H113.766V48.3203H116.93L117.141 51.0273ZM116.648 54.2148H115.734C115.734 53.2773 115.855 52.4336 116.098 51.6836C116.34 50.9258 116.68 50.2812 117.117 49.75C117.555 49.2109 118.074 48.8008 118.676 48.5195C119.285 48.2305 119.965 48.0859 120.715 48.0859C121.309 48.0859 121.852 48.1719 122.344 48.3438C122.836 48.5156 123.258 48.7891 123.609 49.1641C123.969 49.5391 124.242 50.0352 124.43 50.6523C124.625 51.2695 124.723 52.0234 124.723 52.9141V61H121.324V52.9023C121.324 52.3398 121.246 51.9023 121.09 51.5898C120.934 51.2773 120.703 51.0586 120.398 50.9336C120.102 50.8008 119.734 50.7344 119.297 50.7344C118.844 50.7344 118.449 50.8242 118.113 51.0039C117.785 51.1836 117.512 51.4336 117.293 51.7539C117.082 52.0664 116.922 52.4336 116.812 52.8555C116.703 53.2773 116.648 53.7305 116.648 54.2148ZM134.133 58.1406V52.4922C134.133 52.0859 134.066 51.7383 133.934 51.4492C133.801 51.1523 133.594 50.9219 133.312 50.7578C133.039 50.5938 132.684 50.5117 132.246 50.5117C131.871 50.5117 131.547 50.5781 131.273 50.7109C131 50.8359 130.789 51.0195 130.641 51.2617C130.492 51.4961 130.418 51.7734 130.418 52.0938H127.043C127.043 51.5547 127.168 51.043 127.418 50.5586C127.668 50.0742 128.031 49.6484 128.508 49.2812C128.984 48.9062 129.551 48.6133 130.207 48.4023C130.871 48.1914 131.613 48.0859 132.434 48.0859C133.418 48.0859 134.293 48.25 135.059 48.5781C135.824 48.9062 136.426 49.3984 136.863 50.0547C137.309 50.7109 137.531 51.5312 137.531 52.5156V57.9414C137.531 58.6367 137.574 59.207 137.66 59.6523C137.746 60.0898 137.871 60.4727 138.035 60.8008V61H134.625C134.461 60.6562 134.336 60.2266 134.25 59.7109C134.172 59.1875 134.133 58.6641 134.133 58.1406ZM134.578 53.2773L134.602 55.1875H132.715C132.27 55.1875 131.883 55.2383 131.555 55.3398C131.227 55.4414 130.957 55.5859 130.746 55.7734C130.535 55.9531 130.379 56.1641 130.277 56.4062C130.184 56.6484 130.137 56.9141 130.137 57.2031C130.137 57.4922 130.203 57.7539 130.336 57.9883C130.469 58.2148 130.66 58.3945 130.91 58.5273C131.16 58.6523 131.453 58.7148 131.789 58.7148C132.297 58.7148 132.738 58.6133 133.113 58.4102C133.488 58.207 133.777 57.957 133.98 57.6602C134.191 57.3633 134.301 57.082 134.309 56.8164L135.199 58.2461C135.074 58.5664 134.902 58.8984 134.684 59.2422C134.473 59.5859 134.203 59.9102 133.875 60.2148C133.547 60.5117 133.152 60.7578 132.691 60.9531C132.23 61.1406 131.684 61.2344 131.051 61.2344C130.246 61.2344 129.516 61.0742 128.859 60.7539C128.211 60.4258 127.695 59.9766 127.312 59.4062C126.938 58.8281 126.75 58.1719 126.75 57.4375C126.75 56.7734 126.875 56.1836 127.125 55.668C127.375 55.1523 127.742 54.7188 128.227 54.3672C128.719 54.0078 129.332 53.7383 130.066 53.5586C130.801 53.3711 131.652 53.2773 132.621 53.2773H134.578ZM143.438 51.0273V61H140.062V48.3203H143.227L143.438 51.0273ZM142.945 54.2148H142.031C142.031 53.2773 142.152 52.4336 142.395 51.6836C142.637 50.9258 142.977 50.2812 143.414 49.75C143.852 49.2109 144.371 48.8008 144.973 48.5195C145.582 48.2305 146.262 48.0859 147.012 48.0859C147.605 48.0859 148.148 48.1719 148.641 48.3438C149.133 48.5156 149.555 48.7891 149.906 49.1641C150.266 49.5391 150.539 50.0352 150.727 50.6523C150.922 51.2695 151.02 52.0234 151.02 52.9141V61H147.621V52.9023C147.621 52.3398 147.543 51.9023 147.387 51.5898C147.23 51.2773 147 51.0586 146.695 50.9336C146.398 50.8008 146.031 50.7344 145.594 50.7344C145.141 50.7344 144.746 50.8242 144.41 51.0039C144.082 51.1836 143.809 51.4336 143.59 51.7539C143.379 52.0664 143.219 52.4336 143.109 52.8555C143 53.2773 142.945 53.7305 142.945 54.2148ZM158.824 58.5977C159.238 58.5977 159.605 58.5195 159.926 58.3633C160.246 58.1992 160.496 57.9727 160.676 57.6836C160.863 57.3867 160.961 57.0391 160.969 56.6406H164.145C164.137 57.5312 163.898 58.3242 163.43 59.0195C162.961 59.707 162.332 60.25 161.543 60.6484C160.754 61.0391 159.871 61.2344 158.895 61.2344C157.91 61.2344 157.051 61.0703 156.316 60.7422C155.59 60.4141 154.984 59.9609 154.5 59.3828C154.016 58.7969 153.652 58.1172 153.41 57.3438C153.168 56.5625 153.047 55.7266 153.047 54.8359V54.4961C153.047 53.5977 153.168 52.7617 153.41 51.9883C153.652 51.207 154.016 50.5273 154.5 49.9492C154.984 49.3633 155.59 48.9062 156.316 48.5781C157.043 48.25 157.895 48.0859 158.871 48.0859C159.91 48.0859 160.82 48.2852 161.602 48.6836C162.391 49.082 163.008 49.6523 163.453 50.3945C163.906 51.1289 164.137 52 164.145 53.0078H160.969C160.961 52.5859 160.871 52.2031 160.699 51.8594C160.535 51.5156 160.293 51.2422 159.973 51.0391C159.66 50.8281 159.273 50.7227 158.812 50.7227C158.32 50.7227 157.918 50.8281 157.605 51.0391C157.293 51.2422 157.051 51.5234 156.879 51.8828C156.707 52.2344 156.586 52.6367 156.516 53.0898C156.453 53.5352 156.422 54.0039 156.422 54.4961V54.8359C156.422 55.3281 156.453 55.8008 156.516 56.2539C156.578 56.707 156.695 57.1094 156.867 57.4609C157.047 57.8125 157.293 58.0898 157.605 58.293C157.918 58.4961 158.324 58.5977 158.824 58.5977ZM169.664 48.3203V61H166.277V48.3203H169.664ZM166.066 45.0156C166.066 44.5234 166.238 44.1172 166.582 43.7969C166.926 43.4766 167.387 43.3164 167.965 43.3164C168.535 43.3164 168.992 43.4766 169.336 43.7969C169.688 44.1172 169.863 44.5234 169.863 45.0156C169.863 45.5078 169.688 45.9141 169.336 46.2344C168.992 46.5547 168.535 46.7148 167.965 46.7148C167.387 46.7148 166.926 46.5547 166.582 46.2344C166.238 45.9141 166.066 45.5078 166.066 45.0156ZM179.297 58.1406V52.4922C179.297 52.0859 179.23 51.7383 179.098 51.4492C178.965 51.1523 178.758 50.9219 178.477 50.7578C178.203 50.5938 177.848 50.5117 177.41 50.5117C177.035 50.5117 176.711 50.5781 176.438 50.7109C176.164 50.8359 175.953 51.0195 175.805 51.2617C175.656 51.4961 175.582 51.7734 175.582 52.0938H172.207C172.207 51.5547 172.332 51.043 172.582 50.5586C172.832 50.0742 173.195 49.6484 173.672 49.2812C174.148 48.9062 174.715 48.6133 175.371 48.4023C176.035 48.1914 176.777 48.0859 177.598 48.0859C178.582 48.0859 179.457 48.25 180.223 48.5781C180.988 48.9062 181.59 49.3984 182.027 50.0547C182.473 50.7109 182.695 51.5312 182.695 52.5156V57.9414C182.695 58.6367 182.738 59.207 182.824 59.6523C182.91 60.0898 183.035 60.4727 183.199 60.8008V61H179.789C179.625 60.6562 179.5 60.2266 179.414 59.7109C179.336 59.1875 179.297 58.6641 179.297 58.1406ZM179.742 53.2773L179.766 55.1875H177.879C177.434 55.1875 177.047 55.2383 176.719 55.3398C176.391 55.4414 176.121 55.5859 175.91 55.7734C175.699 55.9531 175.543 56.1641 175.441 56.4062C175.348 56.6484 175.301 56.9141 175.301 57.2031C175.301 57.4922 175.367 57.7539 175.5 57.9883C175.633 58.2148 175.824 58.3945 176.074 58.5273C176.324 58.6523 176.617 58.7148 176.953 58.7148C177.461 58.7148 177.902 58.6133 178.277 58.4102C178.652 58.207 178.941 57.957 179.145 57.6602C179.355 57.3633 179.465 57.082 179.473 56.8164L180.363 58.2461C180.238 58.5664 180.066 58.8984 179.848 59.2422C179.637 59.5859 179.367 59.9102 179.039 60.2148C178.711 60.5117 178.316 60.7578 177.855 60.9531C177.395 61.1406 176.848 61.2344 176.215 61.2344C175.41 61.2344 174.68 61.0742 174.023 60.7539C173.375 60.4258 172.859 59.9766 172.477 59.4062C172.102 58.8281 171.914 58.1719 171.914 57.4375C171.914 56.7734 172.039 56.1836 172.289 55.668C172.539 55.1523 172.906 54.7188 173.391 54.3672C173.883 54.0078 174.496 53.7383 175.23 53.5586C175.965 53.3711 176.816 53.2773 177.785 53.2773H179.742ZM188.859 43V61H185.473V43H188.859ZM197.836 43.9375H204.199C205.504 43.9375 206.625 44.1328 207.562 44.5234C208.508 44.9141 209.234 45.4922 209.742 46.2578C210.25 47.0234 210.504 47.9648 210.504 49.082C210.504 49.9961 210.348 50.7812 210.035 51.4375C209.73 52.0859 209.297 52.6289 208.734 53.0664C208.18 53.4961 207.527 53.8398 206.777 54.0977L205.664 54.6836H200.133L200.109 51.9414H204.223C204.84 51.9414 205.352 51.832 205.758 51.6133C206.164 51.3945 206.469 51.0898 206.672 50.6992C206.883 50.3086 206.988 49.8555 206.988 49.3398C206.988 48.793 206.887 48.3203 206.684 47.9219C206.48 47.5234 206.172 47.2188 205.758 47.0078C205.344 46.7969 204.824 46.6914 204.199 46.6914H201.352V61H197.836V43.9375ZM207.375 61L203.484 53.3945L207.199 53.3711L211.137 60.8359V61H207.375ZM216.562 48.3203V61H213.176V48.3203H216.562ZM212.965 45.0156C212.965 44.5234 213.137 44.1172 213.48 43.7969C213.824 43.4766 214.285 43.3164 214.863 43.3164C215.434 43.3164 215.891 43.4766 216.234 43.7969C216.586 44.1172 216.762 44.5234 216.762 45.0156C216.762 45.5078 216.586 45.9141 216.234 46.2344C215.891 46.5547 215.434 46.7148 214.863 46.7148C214.285 46.7148 213.824 46.5547 213.48 46.2344C213.137 45.9141 212.965 45.5078 212.965 45.0156ZM226.207 57.4961C226.207 57.2539 226.137 57.0352 225.996 56.8398C225.855 56.6445 225.594 56.4648 225.211 56.3008C224.836 56.1289 224.293 55.9727 223.582 55.832C222.941 55.6914 222.344 55.5156 221.789 55.3047C221.242 55.0859 220.766 54.8242 220.359 54.5195C219.961 54.2148 219.648 53.8555 219.422 53.4414C219.195 53.0195 219.082 52.5391 219.082 52C219.082 51.4688 219.195 50.9688 219.422 50.5C219.656 50.0312 219.988 49.6172 220.418 49.2578C220.855 48.8906 221.387 48.6055 222.012 48.4023C222.645 48.1914 223.355 48.0859 224.145 48.0859C225.246 48.0859 226.191 48.2617 226.98 48.6133C227.777 48.9648 228.387 49.4492 228.809 50.0664C229.238 50.6758 229.453 51.3711 229.453 52.1523H226.078C226.078 51.8242 226.008 51.5312 225.867 51.2734C225.734 51.0078 225.523 50.8008 225.234 50.6523C224.953 50.4961 224.586 50.418 224.133 50.418C223.758 50.418 223.434 50.4844 223.16 50.6172C222.887 50.7422 222.676 50.9141 222.527 51.1328C222.387 51.3438 222.316 51.5781 222.316 51.8359C222.316 52.0312 222.355 52.207 222.434 52.3633C222.52 52.5117 222.656 52.6484 222.844 52.7734C223.031 52.8984 223.273 53.0156 223.57 53.125C223.875 53.2266 224.25 53.3203 224.695 53.4062C225.609 53.5938 226.426 53.8398 227.145 54.1445C227.863 54.4414 228.434 54.8477 228.855 55.3633C229.277 55.8711 229.488 56.5391 229.488 57.3672C229.488 57.9297 229.363 58.4453 229.113 58.9141C228.863 59.3828 228.504 59.793 228.035 60.1445C227.566 60.4883 227.004 60.7578 226.348 60.9531C225.699 61.1406 224.969 61.2344 224.156 61.2344C222.977 61.2344 221.977 61.0234 221.156 60.6016C220.344 60.1797 219.727 59.6445 219.305 58.9961C218.891 58.3398 218.684 57.668 218.684 56.9805H221.883C221.898 57.4414 222.016 57.8125 222.234 58.0938C222.461 58.375 222.746 58.5781 223.09 58.7031C223.441 58.8281 223.82 58.8906 224.227 58.8906C224.664 58.8906 225.027 58.832 225.316 58.7148C225.605 58.5898 225.824 58.4258 225.973 58.2227C226.129 58.0117 226.207 57.7695 226.207 57.4961ZM235.055 42.9883V61H231.68V42.9883H235.055ZM243.047 48.3203L237.539 54.6016L234.586 57.5898L233.355 55.1523L235.699 52.1758L238.992 48.3203H243.047ZM239.543 61L235.793 55.1406L238.125 53.1016L243.434 61H239.543ZM250.688 43.9375H257.051C258.355 43.9375 259.477 44.1328 260.414 44.5234C261.359 44.9141 262.086 45.4922 262.594 46.2578C263.102 47.0234 263.355 47.9648 263.355 49.082C263.355 49.9961 263.199 50.7812 262.887 51.4375C262.582 52.0859 262.148 52.6289 261.586 53.0664C261.031 53.4961 260.379 53.8398 259.629 54.0977L258.516 54.6836H252.984L252.961 51.9414H257.074C257.691 51.9414 258.203 51.832 258.609 51.6133C259.016 51.3945 259.32 51.0898 259.523 50.6992C259.734 50.3086 259.84 49.8555 259.84 49.3398C259.84 48.793 259.738 48.3203 259.535 47.9219C259.332 47.5234 259.023 47.2188 258.609 47.0078C258.195 46.7969 257.676 46.6914 257.051 46.6914H254.203V61H250.688V43.9375ZM260.227 61L256.336 53.3945L260.051 53.3711L263.988 60.8359V61H260.227ZM272.695 58.1406V52.4922C272.695 52.0859 272.629 51.7383 272.496 51.4492C272.363 51.1523 272.156 50.9219 271.875 50.7578C271.602 50.5938 271.246 50.5117 270.809 50.5117C270.434 50.5117 270.109 50.5781 269.836 50.7109C269.562 50.8359 269.352 51.0195 269.203 51.2617C269.055 51.4961 268.98 51.7734 268.98 52.0938H265.605C265.605 51.5547 265.73 51.043 265.98 50.5586C266.23 50.0742 266.594 49.6484 267.07 49.2812C267.547 48.9062 268.113 48.6133 268.77 48.4023C269.434 48.1914 270.176 48.0859 270.996 48.0859C271.98 48.0859 272.855 48.25 273.621 48.5781C274.387 48.9062 274.988 49.3984 275.426 50.0547C275.871 50.7109 276.094 51.5312 276.094 52.5156V57.9414C276.094 58.6367 276.137 59.207 276.223 59.6523C276.309 60.0898 276.434 60.4727 276.598 60.8008V61H273.188C273.023 60.6562 272.898 60.2266 272.812 59.7109C272.734 59.1875 272.695 58.6641 272.695 58.1406ZM273.141 53.2773L273.164 55.1875H271.277C270.832 55.1875 270.445 55.2383 270.117 55.3398C269.789 55.4414 269.52 55.5859 269.309 55.7734C269.098 55.9531 268.941 56.1641 268.84 56.4062C268.746 56.6484 268.699 56.9141 268.699 57.2031C268.699 57.4922 268.766 57.7539 268.898 57.9883C269.031 58.2148 269.223 58.3945 269.473 58.5273C269.723 58.6523 270.016 58.7148 270.352 58.7148C270.859 58.7148 271.301 58.6133 271.676 58.4102C272.051 58.207 272.34 57.957 272.543 57.6602C272.754 57.3633 272.863 57.082 272.871 56.8164L273.762 58.2461C273.637 58.5664 273.465 58.8984 273.246 59.2422C273.035 59.5859 272.766 59.9102 272.438 60.2148C272.109 60.5117 271.715 60.7578 271.254 60.9531C270.793 61.1406 270.246 61.2344 269.613 61.2344C268.809 61.2344 268.078 61.0742 267.422 60.7539C266.773 60.4258 266.258 59.9766 265.875 59.4062C265.5 58.8281 265.312 58.1719 265.312 57.4375C265.312 56.7734 265.438 56.1836 265.688 55.668C265.938 55.1523 266.305 54.7188 266.789 54.3672C267.281 54.0078 267.895 53.7383 268.629 53.5586C269.363 53.3711 270.215 53.2773 271.184 53.2773H273.141ZM286.184 58.2344V43H289.582V61H286.523L286.184 58.2344ZM278.168 54.8125V54.5664C278.168 53.5977 278.277 52.7188 278.496 51.9297C278.715 51.1328 279.035 50.4492 279.457 49.8789C279.879 49.3086 280.398 48.8672 281.016 48.5547C281.633 48.2422 282.336 48.0859 283.125 48.0859C283.867 48.0859 284.516 48.2422 285.07 48.5547C285.633 48.8672 286.109 49.3125 286.5 49.8906C286.898 50.4609 287.219 51.1367 287.461 51.918C287.703 52.6914 287.879 53.5391 287.988 54.4609V55C287.879 55.8828 287.703 56.7031 287.461 57.4609C287.219 58.2188 286.898 58.8828 286.5 59.4531C286.109 60.0156 285.633 60.4531 285.07 60.7656C284.508 61.0781 283.852 61.2344 283.102 61.2344C282.312 61.2344 281.609 61.0742 280.992 60.7539C280.383 60.4336 279.867 59.9844 279.445 59.4062C279.031 58.8281 278.715 58.1484 278.496 57.3672C278.277 56.5859 278.168 55.7344 278.168 54.8125ZM281.543 54.5664V54.8125C281.543 55.3359 281.582 55.8242 281.66 56.2773C281.746 56.7305 281.883 57.1328 282.07 57.4844C282.266 57.8281 282.516 58.0977 282.82 58.293C283.133 58.4805 283.512 58.5742 283.957 58.5742C284.535 58.5742 285.012 58.4453 285.387 58.1875C285.762 57.9219 286.047 57.5586 286.242 57.0977C286.445 56.6367 286.562 56.1055 286.594 55.5039V53.9688C286.57 53.4766 286.5 53.0352 286.383 52.6445C286.273 52.2461 286.109 51.9062 285.891 51.625C285.68 51.3438 285.414 51.125 285.094 50.9688C284.781 50.8125 284.41 50.7344 283.98 50.7344C283.543 50.7344 283.168 50.8359 282.855 51.0391C282.543 51.2344 282.289 51.5039 282.094 51.8477C281.906 52.1914 281.766 52.5977 281.672 53.0664C281.586 53.5273 281.543 54.0273 281.543 54.5664ZM299.062 58.1406V52.4922C299.062 52.0859 298.996 51.7383 298.863 51.4492C298.73 51.1523 298.523 50.9219 298.242 50.7578C297.969 50.5938 297.613 50.5117 297.176 50.5117C296.801 50.5117 296.477 50.5781 296.203 50.7109C295.93 50.8359 295.719 51.0195 295.57 51.2617C295.422 51.4961 295.348 51.7734 295.348 52.0938H291.973C291.973 51.5547 292.098 51.043 292.348 50.5586C292.598 50.0742 292.961 49.6484 293.438 49.2812C293.914 48.9062 294.48 48.6133 295.137 48.4023C295.801 48.1914 296.543 48.0859 297.363 48.0859C298.348 48.0859 299.223 48.25 299.988 48.5781C300.754 48.9062 301.355 49.3984 301.793 50.0547C302.238 50.7109 302.461 51.5312 302.461 52.5156V57.9414C302.461 58.6367 302.504 59.207 302.59 59.6523C302.676 60.0898 302.801 60.4727 302.965 60.8008V61H299.555C299.391 60.6562 299.266 60.2266 299.18 59.7109C299.102 59.1875 299.062 58.6641 299.062 58.1406ZM299.508 53.2773L299.531 55.1875H297.645C297.199 55.1875 296.812 55.2383 296.484 55.3398C296.156 55.4414 295.887 55.5859 295.676 55.7734C295.465 55.9531 295.309 56.1641 295.207 56.4062C295.113 56.6484 295.066 56.9141 295.066 57.2031C295.066 57.4922 295.133 57.7539 295.266 57.9883C295.398 58.2148 295.59 58.3945 295.84 58.5273C296.09 58.6523 296.383 58.7148 296.719 58.7148C297.227 58.7148 297.668 58.6133 298.043 58.4102C298.418 58.207 298.707 57.957 298.91 57.6602C299.121 57.3633 299.23 57.082 299.238 56.8164L300.129 58.2461C300.004 58.5664 299.832 58.8984 299.613 59.2422C299.402 59.5859 299.133 59.9102 298.805 60.2148C298.477 60.5117 298.082 60.7578 297.621 60.9531C297.16 61.1406 296.613 61.2344 295.98 61.2344C295.176 61.2344 294.445 61.0742 293.789 60.7539C293.141 60.4258 292.625 59.9766 292.242 59.4062C291.867 58.8281 291.68 58.1719 291.68 57.4375C291.68 56.7734 291.805 56.1836 292.055 55.668C292.305 55.1523 292.672 54.7188 293.156 54.3672C293.648 54.0078 294.262 53.7383 294.996 53.5586C295.73 53.3711 296.582 53.2773 297.551 53.2773H299.508ZM308.438 51.0859V61H305.062V48.3203H308.238L308.438 51.0859ZM312.258 48.2383L312.199 51.3672C312.035 51.3438 311.836 51.3242 311.602 51.3086C311.375 51.2852 311.168 51.2734 310.98 51.2734C310.504 51.2734 310.09 51.3359 309.738 51.4609C309.395 51.5781 309.105 51.7539 308.871 51.9883C308.645 52.2227 308.473 52.5078 308.355 52.8438C308.246 53.1797 308.184 53.5625 308.168 53.9922L307.488 53.7812C307.488 52.9609 307.57 52.207 307.734 51.5195C307.898 50.8242 308.137 50.2188 308.449 49.7031C308.77 49.1875 309.16 48.7891 309.621 48.5078C310.082 48.2266 310.609 48.0859 311.203 48.0859C311.391 48.0859 311.582 48.1016 311.777 48.1328C311.973 48.1562 312.133 48.1914 312.258 48.2383Z" fill="#888888"/>
<path d="M106.688 119H99.1172L99.1641 112.672H106.688C108.25 112.672 109.57 112.297 110.648 111.547C111.742 110.797 112.57 109.68 113.133 108.195C113.711 106.695 114 104.852 114 102.664V101.188C114 99.5469 113.836 98.1094 113.508 96.875C113.195 95.625 112.727 94.5859 112.102 93.7578C111.477 92.9141 110.695 92.2812 109.758 91.8594C108.836 91.4375 107.773 91.2266 106.57 91.2266H98.9766V84.875H106.57C108.883 84.875 111 85.2734 112.922 86.0703C114.859 86.8516 116.531 87.9766 117.938 89.4453C119.359 90.8984 120.453 92.625 121.219 94.625C122 96.6094 122.391 98.8125 122.391 101.234V102.664C122.391 105.07 122 107.273 121.219 109.273C120.453 111.273 119.367 113 117.961 114.453C116.555 115.906 114.891 117.031 112.969 117.828C111.062 118.609 108.969 119 106.688 119ZM103.828 84.875V119H95.6016V84.875H103.828ZM139.477 112.625V102.172C139.477 101.453 139.375 100.836 139.172 100.32C138.969 99.8047 138.648 99.4062 138.211 99.125C137.773 98.8281 137.188 98.6797 136.453 98.6797C135.859 98.6797 135.352 98.7812 134.93 98.9844C134.508 99.1875 134.188 99.4922 133.969 99.8984C133.75 100.305 133.641 100.82 133.641 101.445H125.742C125.742 100.273 126 99.1875 126.516 98.1875C127.047 97.1719 127.797 96.2891 128.766 95.5391C129.75 94.7891 130.922 94.2109 132.281 93.8047C133.656 93.3828 135.188 93.1719 136.875 93.1719C138.891 93.1719 140.688 93.5078 142.266 94.1797C143.859 94.8516 145.117 95.8594 146.039 97.2031C146.961 98.5312 147.422 100.203 147.422 102.219V112.602C147.422 114.258 147.516 115.516 147.703 116.375C147.891 117.219 148.156 117.961 148.5 118.602V119H140.578C140.203 118.219 139.922 117.266 139.734 116.141C139.562 115 139.477 113.828 139.477 112.625ZM140.438 103.508L140.484 107.727H136.992C136.258 107.727 135.633 107.828 135.117 108.031C134.617 108.234 134.211 108.516 133.898 108.875C133.602 109.219 133.383 109.609 133.242 110.047C133.117 110.484 133.055 110.945 133.055 111.43C133.055 111.898 133.164 112.32 133.383 112.695C133.617 113.055 133.93 113.336 134.32 113.539C134.711 113.742 135.148 113.844 135.633 113.844C136.508 113.844 137.25 113.68 137.859 113.352C138.484 113.008 138.961 112.594 139.289 112.109C139.617 111.625 139.781 111.172 139.781 110.75L141.516 113.984C141.203 114.609 140.844 115.242 140.438 115.883C140.047 116.523 139.555 117.117 138.961 117.664C138.383 118.195 137.672 118.633 136.828 118.977C135.984 119.305 134.961 119.469 133.758 119.469C132.195 119.469 130.758 119.148 129.445 118.508C128.148 117.867 127.109 116.977 126.328 115.836C125.547 114.68 125.156 113.352 125.156 111.852C125.156 110.539 125.391 109.367 125.859 108.336C126.344 107.305 127.07 106.43 128.039 105.711C129.008 104.992 130.242 104.445 131.742 104.07C133.242 103.695 135.008 103.508 137.039 103.508H140.438ZM165.164 93.6406V99.125H149.883V93.6406H165.164ZM153.094 87.3359H160.992V110.727C160.992 111.398 161.07 111.922 161.227 112.297C161.383 112.656 161.648 112.914 162.023 113.07C162.414 113.211 162.93 113.281 163.57 113.281C164.023 113.281 164.398 113.273 164.695 113.258C164.992 113.227 165.273 113.188 165.539 113.141V118.789C164.867 119.008 164.164 119.172 163.43 119.281C162.695 119.406 161.914 119.469 161.086 119.469C159.398 119.469 157.953 119.203 156.75 118.672C155.562 118.141 154.656 117.305 154.031 116.164C153.406 115.023 153.094 113.539 153.094 111.711V87.3359ZM181.477 112.625V102.172C181.477 101.453 181.375 100.836 181.172 100.32C180.969 99.8047 180.648 99.4062 180.211 99.125C179.773 98.8281 179.188 98.6797 178.453 98.6797C177.859 98.6797 177.352 98.7812 176.93 98.9844C176.508 99.1875 176.188 99.4922 175.969 99.8984C175.75 100.305 175.641 100.82 175.641 101.445H167.742C167.742 100.273 168 99.1875 168.516 98.1875C169.047 97.1719 169.797 96.2891 170.766 95.5391C171.75 94.7891 172.922 94.2109 174.281 93.8047C175.656 93.3828 177.188 93.1719 178.875 93.1719C180.891 93.1719 182.688 93.5078 184.266 94.1797C185.859 94.8516 187.117 95.8594 188.039 97.2031C188.961 98.5312 189.422 100.203 189.422 102.219V112.602C189.422 114.258 189.516 115.516 189.703 116.375C189.891 117.219 190.156 117.961 190.5 118.602V119H182.578C182.203 118.219 181.922 117.266 181.734 116.141C181.562 115 181.477 113.828 181.477 112.625ZM182.438 103.508L182.484 107.727H178.992C178.258 107.727 177.633 107.828 177.117 108.031C176.617 108.234 176.211 108.516 175.898 108.875C175.602 109.219 175.383 109.609 175.242 110.047C175.117 110.484 175.055 110.945 175.055 111.43C175.055 111.898 175.164 112.32 175.383 112.695C175.617 113.055 175.93 113.336 176.32 113.539C176.711 113.742 177.148 113.844 177.633 113.844C178.508 113.844 179.25 113.68 179.859 113.352C180.484 113.008 180.961 112.594 181.289 112.109C181.617 111.625 181.781 111.172 181.781 110.75L183.516 113.984C183.203 114.609 182.844 115.242 182.438 115.883C182.047 116.523 181.555 117.117 180.961 117.664C180.383 118.195 179.672 118.633 178.828 118.977C177.984 119.305 176.961 119.469 175.758 119.469C174.195 119.469 172.758 119.148 171.445 118.508C170.148 117.867 169.109 116.977 168.328 115.836C167.547 114.68 167.156 113.352 167.156 111.852C167.156 110.539 167.391 109.367 167.859 108.336C168.344 107.305 169.07 106.43 170.039 105.711C171.008 104.992 172.242 104.445 173.742 104.07C175.242 103.695 177.008 103.508 179.039 103.508H182.438ZM214.008 115.906L220.805 84.875H224.859L227.062 87.5234L219.82 119H215.344L214.008 115.906ZM212.203 84.875L217.945 116.141L216.469 119H211.289L204.047 84.875H212.203ZM230.789 115.977L236.484 84.875H244.617L237.375 119H232.219L230.789 115.977ZM227.789 84.875L234.75 116.094L233.344 119H228.867L221.461 87.4766L223.758 84.875H227.789ZM259.852 112.625V102.172C259.852 101.453 259.75 100.836 259.547 100.32C259.344 99.8047 259.023 99.4062 258.586 99.125C258.148 98.8281 257.562 98.6797 256.828 98.6797C256.234 98.6797 255.727 98.7812 255.305 98.9844C254.883 99.1875 254.562 99.4922 254.344 99.8984C254.125 100.305 254.016 100.82 254.016 101.445H246.117C246.117 100.273 246.375 99.1875 246.891 98.1875C247.422 97.1719 248.172 96.2891 249.141 95.5391C250.125 94.7891 251.297 94.2109 252.656 93.8047C254.031 93.3828 255.562 93.1719 257.25 93.1719C259.266 93.1719 261.062 93.5078 262.641 94.1797C264.234 94.8516 265.492 95.8594 266.414 97.2031C267.336 98.5312 267.797 100.203 267.797 102.219V112.602C267.797 114.258 267.891 115.516 268.078 116.375C268.266 117.219 268.531 117.961 268.875 118.602V119H260.953C260.578 118.219 260.297 117.266 260.109 116.141C259.938 115 259.852 113.828 259.852 112.625ZM260.812 103.508L260.859 107.727H257.367C256.633 107.727 256.008 107.828 255.492 108.031C254.992 108.234 254.586 108.516 254.273 108.875C253.977 109.219 253.758 109.609 253.617 110.047C253.492 110.484 253.43 110.945 253.43 111.43C253.43 111.898 253.539 112.32 253.758 112.695C253.992 113.055 254.305 113.336 254.695 113.539C255.086 113.742 255.523 113.844 256.008 113.844C256.883 113.844 257.625 113.68 258.234 113.352C258.859 113.008 259.336 112.594 259.664 112.109C259.992 111.625 260.156 111.172 260.156 110.75L261.891 113.984C261.578 114.609 261.219 115.242 260.812 115.883C260.422 116.523 259.93 117.117 259.336 117.664C258.758 118.195 258.047 118.633 257.203 118.977C256.359 119.305 255.336 119.469 254.133 119.469C252.57 119.469 251.133 119.148 249.82 118.508C248.523 117.867 247.484 116.977 246.703 115.836C245.922 114.68 245.531 113.352 245.531 111.852C245.531 110.539 245.766 109.367 246.234 108.336C246.719 107.305 247.445 106.43 248.414 105.711C249.383 104.992 250.617 104.445 252.117 104.07C253.617 103.695 255.383 103.508 257.414 103.508H260.812ZM280.148 99.9219V119H272.25V93.6406H279.633L280.148 99.9219ZM287.648 93.4531L287.508 100.789C287.195 100.758 286.773 100.719 286.242 100.672C285.711 100.625 285.266 100.602 284.906 100.602C283.984 100.602 283.188 100.711 282.516 100.93C281.859 101.133 281.312 101.445 280.875 101.867C280.453 102.273 280.141 102.789 279.938 103.414C279.75 104.039 279.664 104.766 279.68 105.594L278.25 104.656C278.25 102.953 278.414 101.406 278.742 100.016C279.086 98.6094 279.57 97.3984 280.195 96.3828C280.82 95.3516 281.578 94.5625 282.469 94.0156C283.359 93.4531 284.359 93.1719 285.469 93.1719C285.859 93.1719 286.242 93.1953 286.617 93.2422C287.008 93.2891 287.352 93.3594 287.648 93.4531ZM302.18 119.469C300.117 119.469 298.273 119.148 296.648 118.508C295.023 117.852 293.648 116.953 292.523 115.812C291.414 114.672 290.562 113.359 289.969 111.875C289.391 110.391 289.102 108.82 289.102 107.164V106.273C289.102 104.414 289.359 102.695 289.875 101.117C290.391 99.5234 291.156 98.1328 292.172 96.9453C293.188 95.7578 294.461 94.8359 295.992 94.1797C297.523 93.5078 299.305 93.1719 301.336 93.1719C303.133 93.1719 304.742 93.4609 306.164 94.0391C307.586 94.6172 308.789 95.4453 309.773 96.5234C310.773 97.6016 311.531 98.9062 312.047 100.438C312.578 101.969 312.844 103.688 312.844 105.594V108.805H292.125V103.859H305.133V103.25C305.148 102.406 305 101.688 304.688 101.094C304.391 100.5 303.953 100.047 303.375 99.7344C302.797 99.4219 302.094 99.2656 301.266 99.2656C300.406 99.2656 299.695 99.4531 299.133 99.8281C298.586 100.203 298.156 100.719 297.844 101.375C297.547 102.016 297.336 102.758 297.211 103.602C297.086 104.445 297.023 105.336 297.023 106.273V107.164C297.023 108.102 297.148 108.953 297.398 109.719C297.664 110.484 298.039 111.141 298.523 111.688C299.023 112.219 299.617 112.633 300.305 112.93C301.008 113.227 301.805 113.375 302.695 113.375C303.773 113.375 304.836 113.172 305.883 112.766C306.93 112.359 307.828 111.688 308.578 110.75L312.164 115.016C311.648 115.75 310.914 116.461 309.961 117.148C309.023 117.836 307.898 118.398 306.586 118.836C305.273 119.258 303.805 119.469 302.18 119.469ZM323.789 83V119H315.891V83H323.789ZM322.852 105.453L321 105.5C321 103.719 321.219 102.078 321.656 100.578C322.094 99.0781 322.719 97.7734 323.531 96.6641C324.344 95.5547 325.32 94.6953 326.461 94.0859C327.602 93.4766 328.867 93.1719 330.258 93.1719C331.508 93.1719 332.648 93.3516 333.68 93.7109C334.727 94.0703 335.625 94.6484 336.375 95.4453C337.141 96.2422 337.727 97.2812 338.133 98.5625C338.555 99.8438 338.766 101.406 338.766 103.25V119H330.82V103.203C330.82 102.172 330.672 101.375 330.375 100.812C330.094 100.234 329.688 99.8359 329.156 99.6172C328.625 99.3828 327.977 99.2656 327.211 99.2656C326.289 99.2656 325.539 99.4219 324.961 99.7344C324.383 100.047 323.938 100.484 323.625 101.047C323.328 101.594 323.125 102.242 323.016 102.992C322.906 103.742 322.852 104.562 322.852 105.453ZM342.164 106.578V106.086C342.164 104.227 342.43 102.516 342.961 100.953C343.492 99.375 344.273 98.0078 345.305 96.8516C346.336 95.6953 347.609 94.7969 349.125 94.1562C350.641 93.5 352.391 93.1719 354.375 93.1719C356.375 93.1719 358.133 93.5 359.648 94.1562C361.18 94.7969 362.461 95.6953 363.492 96.8516C364.523 98.0078 365.305 99.375 365.836 100.953C366.367 102.516 366.633 104.227 366.633 106.086V106.578C366.633 108.422 366.367 110.133 365.836 111.711C365.305 113.273 364.523 114.641 363.492 115.812C362.461 116.969 361.188 117.867 359.672 118.508C358.156 119.148 356.406 119.469 354.422 119.469C352.438 119.469 350.68 119.148 349.148 118.508C347.617 117.867 346.336 116.969 345.305 115.812C344.273 114.641 343.492 113.273 342.961 111.711C342.43 110.133 342.164 108.422 342.164 106.578ZM350.062 106.086V106.578C350.062 107.531 350.133 108.422 350.273 109.25C350.414 110.078 350.648 110.805 350.977 111.43C351.305 112.039 351.75 112.516 352.312 112.859C352.875 113.203 353.578 113.375 354.422 113.375C355.25 113.375 355.938 113.203 356.484 112.859C357.047 112.516 357.492 112.039 357.82 111.43C358.148 110.805 358.383 110.078 358.523 109.25C358.664 108.422 358.734 107.531 358.734 106.578V106.086C358.734 105.164 358.664 104.297 358.523 103.484C358.383 102.656 358.148 101.93 357.82 101.305C357.492 100.664 357.047 100.164 356.484 99.8047C355.922 99.4453 355.219 99.2656 354.375 99.2656C353.547 99.2656 352.852 99.4453 352.289 99.8047C351.742 100.164 351.305 100.664 350.977 101.305C350.648 101.93 350.414 102.656 350.273 103.484C350.133 104.297 350.062 105.164 350.062 106.086ZM384.961 112.836V93.6406H392.883V119H385.477L384.961 112.836ZM385.711 107.68L387.773 107.633C387.773 109.336 387.57 110.914 387.164 112.367C386.758 113.805 386.156 115.055 385.359 116.117C384.578 117.18 383.609 118.008 382.453 118.602C381.312 119.18 379.992 119.469 378.492 119.469C377.242 119.469 376.094 119.297 375.047 118.953C374.016 118.594 373.125 118.039 372.375 117.289C371.625 116.523 371.039 115.547 370.617 114.359C370.211 113.156 370.008 111.719 370.008 110.047V93.6406H377.906V110.094C377.906 110.656 377.977 111.141 378.117 111.547C378.258 111.953 378.461 112.297 378.727 112.578C378.992 112.844 379.32 113.047 379.711 113.188C380.117 113.312 380.578 113.375 381.094 113.375C382.281 113.375 383.211 113.125 383.883 112.625C384.555 112.125 385.023 111.445 385.289 110.586C385.57 109.727 385.711 108.758 385.711 107.68ZM410.531 111.875C410.531 111.438 410.383 111.062 410.086 110.75C409.805 110.422 409.305 110.125 408.586 109.859C407.867 109.578 406.859 109.297 405.562 109.016C404.328 108.75 403.164 108.398 402.07 107.961C400.992 107.523 400.047 106.992 399.234 106.367C398.422 105.742 397.781 105 397.312 104.141C396.859 103.281 396.633 102.297 396.633 101.188C396.633 100.109 396.859 99.0938 397.312 98.1406C397.781 97.1719 398.461 96.3203 399.352 95.5859C400.258 94.8359 401.359 94.25 402.656 93.8281C403.953 93.3906 405.43 93.1719 407.086 93.1719C409.367 93.1719 411.336 93.5234 412.992 94.2266C414.648 94.9141 415.922 95.8828 416.812 97.1328C417.719 98.3672 418.172 99.7969 418.172 101.422H410.273C410.273 100.781 410.164 100.234 409.945 99.7812C409.742 99.3281 409.406 98.9844 408.938 98.75C408.469 98.5 407.844 98.375 407.062 98.375C406.516 98.375 406.016 98.4766 405.562 98.6797C405.125 98.8828 404.773 99.1641 404.508 99.5234C404.242 99.8828 404.109 100.305 404.109 100.789C404.109 101.133 404.188 101.445 404.344 101.727C404.516 101.992 404.773 102.242 405.117 102.477C405.461 102.695 405.898 102.898 406.43 103.086C406.961 103.258 407.602 103.414 408.352 103.555C410.055 103.867 411.648 104.312 413.133 104.891C414.617 105.469 415.82 106.289 416.742 107.352C417.68 108.414 418.148 109.844 418.148 111.641C418.148 112.766 417.891 113.805 417.375 114.758C416.859 115.695 416.117 116.523 415.148 117.242C414.18 117.945 413.016 118.492 411.656 118.883C410.297 119.273 408.766 119.469 407.062 119.469C404.641 119.469 402.594 119.039 400.922 118.18C399.25 117.305 397.984 116.211 397.125 114.898C396.281 113.57 395.859 112.227 395.859 110.867H403.219C403.25 111.648 403.438 112.289 403.781 112.789C404.141 113.289 404.617 113.656 405.211 113.891C405.805 114.125 406.492 114.242 407.273 114.242C407.992 114.242 408.586 114.141 409.055 113.938C409.539 113.734 409.906 113.461 410.156 113.117C410.406 112.758 410.531 112.344 410.531 111.875ZM434.133 119.469C432.07 119.469 430.227 119.148 428.602 118.508C426.977 117.852 425.602 116.953 424.477 115.812C423.367 114.672 422.516 113.359 421.922 111.875C421.344 110.391 421.055 108.82 421.055 107.164V106.273C421.055 104.414 421.312 102.695 421.828 101.117C422.344 99.5234 423.109 98.1328 424.125 96.9453C425.141 95.7578 426.414 94.8359 427.945 94.1797C429.477 93.5078 431.258 93.1719 433.289 93.1719C435.086 93.1719 436.695 93.4609 438.117 94.0391C439.539 94.6172 440.742 95.4453 441.727 96.5234C442.727 97.6016 443.484 98.9062 444 100.438C444.531 101.969 444.797 103.688 444.797 105.594V108.805H424.078V103.859H437.086V103.25C437.102 102.406 436.953 101.688 436.641 101.094C436.344 100.5 435.906 100.047 435.328 99.7344C434.75 99.4219 434.047 99.2656 433.219 99.2656C432.359 99.2656 431.648 99.4531 431.086 99.8281C430.539 100.203 430.109 100.719 429.797 101.375C429.5 102.016 429.289 102.758 429.164 103.602C429.039 104.445 428.977 105.336 428.977 106.273V107.164C428.977 108.102 429.102 108.953 429.352 109.719C429.617 110.484 429.992 111.141 430.477 111.688C430.977 112.219 431.57 112.633 432.258 112.93C432.961 113.227 433.758 113.375 434.648 113.375C435.727 113.375 436.789 113.172 437.836 112.766C438.883 112.359 439.781 111.688 440.531 110.75L444.117 115.016C443.602 115.75 442.867 116.461 441.914 117.148C440.977 117.836 439.852 118.398 438.539 118.836C437.227 119.258 435.758 119.469 434.133 119.469ZM471.422 119H463.852L463.898 112.672H471.422C472.984 112.672 474.305 112.297 475.383 111.547C476.477 110.797 477.305 109.68 477.867 108.195C478.445 106.695 478.734 104.852 478.734 102.664V101.188C478.734 99.5469 478.57 98.1094 478.242 96.875C477.93 95.625 477.461 94.5859 476.836 93.7578C476.211 92.9141 475.43 92.2812 474.492 91.8594C473.57 91.4375 472.508 91.2266 471.305 91.2266H463.711V84.875H471.305C473.617 84.875 475.734 85.2734 477.656 86.0703C479.594 86.8516 481.266 87.9766 482.672 89.4453C484.094 90.8984 485.188 92.625 485.953 94.625C486.734 96.6094 487.125 98.8125 487.125 101.234V102.664C487.125 105.07 486.734 107.273 485.953 109.273C485.188 111.273 484.102 113 482.695 114.453C481.289 115.906 479.625 117.031 477.703 117.828C475.797 118.609 473.703 119 471.422 119ZM468.562 84.875V119H460.336V84.875H468.562ZM503.32 119.469C501.258 119.469 499.414 119.148 497.789 118.508C496.164 117.852 494.789 116.953 493.664 115.812C492.555 114.672 491.703 113.359 491.109 111.875C490.531 110.391 490.242 108.82 490.242 107.164V106.273C490.242 104.414 490.5 102.695 491.016 101.117C491.531 99.5234 492.297 98.1328 493.312 96.9453C494.328 95.7578 495.602 94.8359 497.133 94.1797C498.664 93.5078 500.445 93.1719 502.477 93.1719C504.273 93.1719 505.883 93.4609 507.305 94.0391C508.727 94.6172 509.93 95.4453 510.914 96.5234C511.914 97.6016 512.672 98.9062 513.188 100.438C513.719 101.969 513.984 103.688 513.984 105.594V108.805H493.266V103.859H506.273V103.25C506.289 102.406 506.141 101.688 505.828 101.094C505.531 100.5 505.094 100.047 504.516 99.7344C503.938 99.4219 503.234 99.2656 502.406 99.2656C501.547 99.2656 500.836 99.4531 500.273 99.8281C499.727 100.203 499.297 100.719 498.984 101.375C498.688 102.016 498.477 102.758 498.352 103.602C498.227 104.445 498.164 105.336 498.164 106.273V107.164C498.164 108.102 498.289 108.953 498.539 109.719C498.805 110.484 499.18 111.141 499.664 111.688C500.164 112.219 500.758 112.633 501.445 112.93C502.148 113.227 502.945 113.375 503.836 113.375C504.914 113.375 505.977 113.172 507.023 112.766C508.07 112.359 508.969 111.688 509.719 110.75L513.305 115.016C512.789 115.75 512.055 116.461 511.102 117.148C510.164 117.836 509.039 118.398 507.727 118.836C506.414 119.258 504.945 119.469 503.32 119.469ZM530.484 111.875C530.484 111.438 530.336 111.062 530.039 110.75C529.758 110.422 529.258 110.125 528.539 109.859C527.82 109.578 526.812 109.297 525.516 109.016C524.281 108.75 523.117 108.398 522.023 107.961C520.945 107.523 520 106.992 519.188 106.367C518.375 105.742 517.734 105 517.266 104.141C516.812 103.281 516.586 102.297 516.586 101.188C516.586 100.109 516.812 99.0938 517.266 98.1406C517.734 97.1719 518.414 96.3203 519.305 95.5859C520.211 94.8359 521.312 94.25 522.609 93.8281C523.906 93.3906 525.383 93.1719 527.039 93.1719C529.32 93.1719 531.289 93.5234 532.945 94.2266C534.602 94.9141 535.875 95.8828 536.766 97.1328C537.672 98.3672 538.125 99.7969 538.125 101.422H530.227C530.227 100.781 530.117 100.234 529.898 99.7812C529.695 99.3281 529.359 98.9844 528.891 98.75C528.422 98.5 527.797 98.375 527.016 98.375C526.469 98.375 525.969 98.4766 525.516 98.6797C525.078 98.8828 524.727 99.1641 524.461 99.5234C524.195 99.8828 524.062 100.305 524.062 100.789C524.062 101.133 524.141 101.445 524.297 101.727C524.469 101.992 524.727 102.242 525.07 102.477C525.414 102.695 525.852 102.898 526.383 103.086C526.914 103.258 527.555 103.414 528.305 103.555C530.008 103.867 531.602 104.312 533.086 104.891C534.57 105.469 535.773 106.289 536.695 107.352C537.633 108.414 538.102 109.844 538.102 111.641C538.102 112.766 537.844 113.805 537.328 114.758C536.812 115.695 536.07 116.523 535.102 117.242C534.133 117.945 532.969 118.492 531.609 118.883C530.25 119.273 528.719 119.469 527.016 119.469C524.594 119.469 522.547 119.039 520.875 118.18C519.203 117.305 517.938 116.211 517.078 114.898C516.234 113.57 515.812 112.227 515.812 110.867H523.172C523.203 111.648 523.391 112.289 523.734 112.789C524.094 113.289 524.57 113.656 525.164 113.891C525.758 114.125 526.445 114.242 527.227 114.242C527.945 114.242 528.539 114.141 529.008 113.938C529.492 113.734 529.859 113.461 530.109 113.117C530.359 112.758 530.484 112.344 530.484 111.875ZM550.148 93.6406V119H542.227V93.6406H550.148ZM541.758 87.1016C541.758 85.9766 542.164 85.0547 542.977 84.3359C543.789 83.6172 544.844 83.2578 546.141 83.2578C547.438 83.2578 548.492 83.6172 549.305 84.3359C550.117 85.0547 550.523 85.9766 550.523 87.1016C550.523 88.2266 550.117 89.1484 549.305 89.8672C548.492 90.5859 547.438 90.9453 546.141 90.9453C544.844 90.9453 543.789 90.5859 542.977 89.8672C542.164 89.1484 541.758 88.2266 541.758 87.1016ZM570.961 93.6406H578.133V118.016C578.133 120.359 577.594 122.344 576.516 123.969C575.438 125.609 573.93 126.852 571.992 127.695C570.07 128.555 567.82 128.984 565.242 128.984C564.102 128.984 562.938 128.836 561.75 128.539C560.562 128.258 559.453 127.836 558.422 127.273C557.391 126.711 556.523 126.016 555.82 125.188L559.125 120.547C559.766 121.266 560.57 121.875 561.539 122.375C562.508 122.891 563.648 123.148 564.961 123.148C566.102 123.148 567.055 122.945 567.82 122.539C568.602 122.133 569.195 121.539 569.602 120.758C570.008 119.992 570.211 119.062 570.211 117.969V99.6406L570.961 93.6406ZM554.109 106.625V106.133C554.109 104.211 554.344 102.461 554.812 100.883C555.297 99.2891 555.984 97.9219 556.875 96.7812C557.781 95.625 558.875 94.7344 560.156 94.1094C561.438 93.4844 562.883 93.1719 564.492 93.1719C566.227 93.1719 567.648 93.5078 568.758 94.1797C569.883 94.8359 570.781 95.7578 571.453 96.9453C572.141 98.1328 572.672 99.5234 573.047 101.117C573.438 102.695 573.766 104.398 574.031 106.227V106.812C573.766 108.531 573.398 110.156 572.93 111.688C572.477 113.203 571.883 114.547 571.148 115.719C570.414 116.891 569.492 117.812 568.383 118.484C567.289 119.141 565.977 119.469 564.445 119.469C562.852 119.469 561.414 119.148 560.133 118.508C558.867 117.867 557.781 116.969 556.875 115.812C555.984 114.656 555.297 113.297 554.812 111.734C554.344 110.172 554.109 108.469 554.109 106.625ZM562.008 106.133V106.625C562.008 107.578 562.094 108.461 562.266 109.273C562.453 110.086 562.734 110.805 563.109 111.43C563.484 112.039 563.945 112.516 564.492 112.859C565.055 113.203 565.711 113.375 566.461 113.375C567.602 113.375 568.523 113.133 569.227 112.648C569.93 112.164 570.438 111.477 570.75 110.586C571.062 109.695 571.195 108.648 571.148 107.445V105.594C571.18 104.562 571.109 103.656 570.938 102.875C570.766 102.078 570.492 101.414 570.117 100.883C569.758 100.352 569.273 99.9531 568.664 99.6875C568.07 99.4062 567.352 99.2656 566.508 99.2656C565.773 99.2656 565.125 99.4375 564.562 99.7812C564 100.125 563.531 100.609 563.156 101.234C562.781 101.844 562.492 102.57 562.289 103.414C562.102 104.242 562.008 105.148 562.008 106.133ZM590.438 99.0547V119H582.539V93.6406H589.945L590.438 99.0547ZM589.5 105.453L587.648 105.5C587.648 103.562 587.883 101.836 588.352 100.32C588.82 98.7891 589.484 97.4922 590.344 96.4297C591.203 95.3672 592.227 94.5625 593.414 94.0156C594.617 93.4531 595.953 93.1719 597.422 93.1719C598.594 93.1719 599.664 93.3438 600.633 93.6875C601.617 94.0312 602.461 94.5859 603.164 95.3516C603.883 96.1172 604.43 97.1328 604.805 98.3984C605.195 99.6484 605.391 101.195 605.391 103.039V119H597.445V103.016C597.445 102 597.305 101.227 597.023 100.695C596.742 100.148 596.336 99.7734 595.805 99.5703C595.273 99.3672 594.625 99.2656 593.859 99.2656C593.047 99.2656 592.359 99.4219 591.797 99.7344C591.234 100.047 590.781 100.484 590.438 101.047C590.109 101.594 589.867 102.242 589.711 102.992C589.57 103.742 589.5 104.562 589.5 105.453Z" fill="black"/>
<path d="M1134 0H1348C1356.28 0 1363 6.71573 1363 15V148C1363 156.284 1356.28 163 1348 163H1134V0Z" fill="#28EEA7"/>
<path d="M1217.58 64.1667C1217.58 66.0281 1218.51 67.7419 1220.09 69.2434C1221.67 70.7429 1223.94 72.0619 1226.71 73.1553C1232.26 75.343 1239.93 76.6667 1248.5 76.6667C1257.07 76.6667 1264.74 75.343 1270.29 73.1553C1273.06 72.0619 1275.33 70.7429 1276.91 69.2434C1278.49 67.7419 1279.42 66.0281 1279.42 64.1667C1279.42 62.3052 1278.49 60.5914 1276.91 59.0899C1275.33 57.5904 1273.06 56.2714 1270.29 55.178C1264.74 52.9903 1257.07 51.6667 1248.5 51.6667C1239.93 51.6667 1232.26 52.9903 1226.71 55.178C1223.94 56.2714 1221.67 57.5904 1220.09 59.0899C1218.51 60.5914 1217.58 62.3052 1217.58 64.1667ZM1221.62 64.1667C1221.62 63.0283 1222.37 61.8878 1223.88 60.7921C1225.37 59.7041 1227.52 58.7293 1230.11 57.9144C1235.28 56.2864 1242.07 55.3333 1248.5 55.3333C1254.93 55.3333 1261.72 56.2864 1266.89 57.9144C1269.48 58.7293 1271.63 59.7041 1273.12 60.7921C1274.63 61.8878 1275.37 63.0283 1275.37 64.1667C1275.37 65.305 1274.63 66.4455 1273.12 67.5412C1271.63 68.6292 1269.48 69.604 1266.89 70.4189C1261.72 72.0469 1254.93 73 1248.5 73C1242.07 73 1235.28 72.0469 1230.11 70.4189C1227.52 69.604 1225.37 68.6292 1223.88 67.5412C1222.37 66.4455 1221.62 65.305 1221.62 64.1667Z" fill="white" stroke="white"/>
<path d="M1217.58 74.8333C1217.58 76.6948 1218.51 78.4086 1220.09 79.9101C1221.67 81.4096 1223.94 82.7286 1226.71 83.822C1232.26 86.0097 1239.93 87.3333 1248.5 87.3333C1257.07 87.3333 1264.74 86.0097 1270.29 83.822C1273.06 82.7286 1275.33 81.4096 1276.91 79.9101C1278.49 78.4086 1279.42 76.6948 1279.42 74.8333V64.1667C1279.42 63.6576 1279.19 63.1851 1278.8 62.8479C1278.42 62.5126 1277.91 62.3333 1277.4 62.3333C1276.88 62.3333 1276.37 62.5126 1275.99 62.8479C1275.61 63.1851 1275.37 63.6576 1275.37 64.1667V74.8333C1275.37 75.9717 1274.63 77.1122 1273.12 78.2079C1271.63 79.2959 1269.48 80.2707 1266.89 81.0856C1261.72 82.7136 1254.93 83.6667 1248.5 83.6667C1242.07 83.6667 1235.28 82.7136 1230.11 81.0856C1227.52 80.2707 1225.37 79.2959 1223.88 78.2079C1222.37 77.1122 1221.62 75.9717 1221.62 74.8333V64.1667C1221.62 63.6576 1221.39 63.1851 1221.01 62.8479C1220.63 62.5126 1220.12 62.3333 1219.6 62.3333C1219.09 62.3333 1218.58 62.5126 1218.2 62.8479C1217.81 63.1851 1217.58 63.6576 1217.58 64.1667V74.8333Z" fill="white" stroke="white"/>
<path d="M1217.58 86.8333C1217.58 88.6948 1218.51 90.4086 1220.09 91.9101C1221.67 93.4095 1223.94 94.7286 1226.71 95.8219C1232.26 98.0097 1239.93 99.3333 1248.5 99.3333C1257.07 99.3333 1264.74 98.0097 1270.29 95.8219C1273.06 94.7286 1275.33 93.4095 1276.91 91.9101C1278.49 90.4086 1279.42 88.6948 1279.42 86.8333V74.8333C1279.42 74.3243 1279.19 73.8517 1278.8 73.5146C1278.42 73.1792 1277.91 73 1277.4 73C1276.88 73 1276.37 73.1792 1275.99 73.5146C1275.61 73.8517 1275.37 74.3243 1275.37 74.8333V86.8333C1275.37 87.9717 1274.63 89.1122 1273.12 90.2079C1271.63 91.2958 1269.48 92.2707 1266.89 93.0856C1261.72 94.7136 1254.93 95.6667 1248.5 95.6667C1242.07 95.6667 1235.28 94.7136 1230.11 93.0856C1227.52 92.2707 1225.37 91.2958 1223.88 90.2079C1222.37 89.1122 1221.62 87.9717 1221.62 86.8333V74.8333C1221.62 74.3243 1221.39 73.8517 1221.01 73.5146C1220.63 73.1792 1220.12 73 1219.6 73C1219.09 73 1218.58 73.1792 1218.2 73.5146C1217.81 73.8517 1217.58 74.3243 1217.58 74.8333V86.8333Z" fill="white" stroke="white"/>
<path d="M1217.58 98.8333C1217.58 100.695 1218.51 102.409 1220.09 103.91C1221.67 105.41 1223.94 106.729 1226.71 107.822C1232.26 110.01 1239.93 111.333 1248.5 111.333C1257.07 111.333 1264.74 110.01 1270.29 107.822C1273.06 106.729 1275.33 105.41 1276.91 103.91C1278.49 102.409 1279.42 100.695 1279.42 98.8333V86.8333C1279.42 86.3243 1279.19 85.8517 1278.8 85.5146C1278.42 85.1792 1277.91 85 1277.4 85C1276.88 85 1276.37 85.1792 1275.99 85.5146C1275.61 85.8517 1275.37 86.3243 1275.37 86.8333V98.8333C1275.37 99.9717 1274.63 101.112 1273.12 102.208C1271.63 103.296 1269.48 104.271 1266.89 105.086C1261.72 106.714 1254.93 107.667 1248.5 107.667C1242.07 107.667 1235.28 106.714 1230.11 105.086C1227.52 104.271 1225.37 103.296 1223.88 102.208C1222.37 101.112 1221.62 99.9717 1221.62 98.8333V86.8333C1221.62 86.3243 1221.39 85.8517 1221.01 85.5146C1220.63 85.1792 1220.12 85 1219.6 85C1219.09 85 1218.58 85.1792 1218.2 85.5146C1217.81 85.8517 1217.58 86.3243 1217.58 86.8333V98.8333Z" fill="white" stroke="white"/>
</svg>
