<svg width="1363" height="163" viewBox="0 0 1363 163" fill="none" xmlns="http://www.w3.org/2000/svg">
<path d="M0 15C0 6.71573 6.71573 0 15 0H37V163H15C6.71573 163 0 156.284 0 148V15Z" fill="#424242"/>
<rect width="1097" height="163" transform="translate(37)" fill="#F0F0F0"/>
<path d="M101.906 53.9219L94.3945 51.2383V48.0859L104.602 52.375V54.6367L101.906 53.9219ZM94.3945 56.1719L101.918 53.4297L104.602 52.7852V55.0352L94.3945 59.3242V56.1719ZM116.414 43.9375V61H112.898V43.9375H116.414ZM123.211 51.2266V53.9688H115.453V51.2266H123.211ZM124.031 43.9375V46.6914H115.453V43.9375H124.031ZM129.422 48.3203V61H126.035V48.3203H129.422ZM125.824 45.0156C125.824 44.5234 125.996 44.1172 126.34 43.7969C126.684 43.4766 127.145 43.3164 127.723 43.3164C128.293 43.3164 128.75 43.4766 129.094 43.7969C129.445 44.1172 129.621 44.5234 129.621 45.0156C129.621 45.5078 129.445 45.9141 129.094 46.2344C128.75 46.5547 128.293 46.7148 127.723 46.7148C127.145 46.7148 126.684 46.5547 126.34 46.2344C125.996 45.9141 125.824 45.5078 125.824 45.0156ZM135.516 51.0273V61H132.141V48.3203H135.305L135.516 51.0273ZM135.023 54.2148H134.109C134.109 53.2773 134.23 52.4336 134.473 51.6836C134.715 50.9258 135.055 50.2812 135.492 49.75C135.93 49.2109 136.449 48.8008 137.051 48.5195C137.66 48.2305 138.34 48.0859 139.09 48.0859C139.684 48.0859 140.227 48.1719 140.719 48.3438C141.211 48.5156 141.633 48.7891 141.984 49.1641C142.344 49.5391 142.617 50.0352 142.805 50.6523C143 51.2695 143.098 52.0234 143.098 52.9141V61H139.699V52.9023C139.699 52.3398 139.621 51.9023 139.465 51.5898C139.309 51.2773 139.078 51.0586 138.773 50.9336C138.477 50.8008 138.109 50.7344 137.672 50.7344C137.219 50.7344 136.824 50.8242 136.488 51.0039C136.16 51.1836 135.887 51.4336 135.668 51.7539C135.457 52.0664 135.297 52.4336 135.188 52.8555C135.078 53.2773 135.023 53.7305 135.023 54.2148ZM152.508 58.1406V52.4922C152.508 52.0859 152.441 51.7383 152.309 51.4492C152.176 51.1523 151.969 50.9219 151.688 50.7578C151.414 50.5938 151.059 50.5117 150.621 50.5117C150.246 50.5117 149.922 50.5781 149.648 50.7109C149.375 50.8359 149.164 51.0195 149.016 51.2617C148.867 51.4961 148.793 51.7734 148.793 52.0938H145.418C145.418 51.5547 145.543 51.043 145.793 50.5586C146.043 50.0742 146.406 49.6484 146.883 49.2812C147.359 48.9062 147.926 48.6133 148.582 48.4023C149.246 48.1914 149.988 48.0859 150.809 48.0859C151.793 48.0859 152.668 48.25 153.434 48.5781C154.199 48.9062 154.801 49.3984 155.238 50.0547C155.684 50.7109 155.906 51.5312 155.906 52.5156V57.9414C155.906 58.6367 155.949 59.207 156.035 59.6523C156.121 60.0898 156.246 60.4727 156.41 60.8008V61H153C152.836 60.6562 152.711 60.2266 152.625 59.7109C152.547 59.1875 152.508 58.6641 152.508 58.1406ZM152.953 53.2773L152.977 55.1875H151.09C150.645 55.1875 150.258 55.2383 149.93 55.3398C149.602 55.4414 149.332 55.5859 149.121 55.7734C148.91 55.9531 148.754 56.1641 148.652 56.4062C148.559 56.6484 148.512 56.9141 148.512 57.2031C148.512 57.4922 148.578 57.7539 148.711 57.9883C148.844 58.2148 149.035 58.3945 149.285 58.5273C149.535 58.6523 149.828 58.7148 150.164 58.7148C150.672 58.7148 151.113 58.6133 151.488 58.4102C151.863 58.207 152.152 57.957 152.355 57.6602C152.566 57.3633 152.676 57.082 152.684 56.8164L153.574 58.2461C153.449 58.5664 153.277 58.8984 153.059 59.2422C152.848 59.5859 152.578 59.9102 152.25 60.2148C151.922 60.5117 151.527 60.7578 151.066 60.9531C150.605 61.1406 150.059 61.2344 149.426 61.2344C148.621 61.2344 147.891 61.0742 147.234 60.7539C146.586 60.4258 146.07 59.9766 145.688 59.4062C145.312 58.8281 145.125 58.1719 145.125 57.4375C145.125 56.7734 145.25 56.1836 145.5 55.668C145.75 55.1523 146.117 54.7188 146.602 54.3672C147.094 54.0078 147.707 53.7383 148.441 53.5586C149.176 53.3711 150.027 53.2773 150.996 53.2773H152.953ZM161.812 51.0273V61H158.438V48.3203H161.602L161.812 51.0273ZM161.32 54.2148H160.406C160.406 53.2773 160.527 52.4336 160.77 51.6836C161.012 50.9258 161.352 50.2812 161.789 49.75C162.227 49.2109 162.746 48.8008 163.348 48.5195C163.957 48.2305 164.637 48.0859 165.387 48.0859C165.98 48.0859 166.523 48.1719 167.016 48.3438C167.508 48.5156 167.93 48.7891 168.281 49.1641C168.641 49.5391 168.914 50.0352 169.102 50.6523C169.297 51.2695 169.395 52.0234 169.395 52.9141V61H165.996V52.9023C165.996 52.3398 165.918 51.9023 165.762 51.5898C165.605 51.2773 165.375 51.0586 165.07 50.9336C164.773 50.8008 164.406 50.7344 163.969 50.7344C163.516 50.7344 163.121 50.8242 162.785 51.0039C162.457 51.1836 162.184 51.4336 161.965 51.7539C161.754 52.0664 161.594 52.4336 161.484 52.8555C161.375 53.2773 161.32 53.7305 161.32 54.2148ZM177.199 58.5977C177.613 58.5977 177.98 58.5195 178.301 58.3633C178.621 58.1992 178.871 57.9727 179.051 57.6836C179.238 57.3867 179.336 57.0391 179.344 56.6406H182.52C182.512 57.5312 182.273 58.3242 181.805 59.0195C181.336 59.707 180.707 60.25 179.918 60.6484C179.129 61.0391 178.246 61.2344 177.27 61.2344C176.285 61.2344 175.426 61.0703 174.691 60.7422C173.965 60.4141 173.359 59.9609 172.875 59.3828C172.391 58.7969 172.027 58.1172 171.785 57.3438C171.543 56.5625 171.422 55.7266 171.422 54.8359V54.4961C171.422 53.5977 171.543 52.7617 171.785 51.9883C172.027 51.207 172.391 50.5273 172.875 49.9492C173.359 49.3633 173.965 48.9062 174.691 48.5781C175.418 48.25 176.27 48.0859 177.246 48.0859C178.285 48.0859 179.195 48.2852 179.977 48.6836C180.766 49.082 181.383 49.6523 181.828 50.3945C182.281 51.1289 182.512 52 182.52 53.0078H179.344C179.336 52.5859 179.246 52.2031 179.074 51.8594C178.91 51.5156 178.668 51.2422 178.348 51.0391C178.035 50.8281 177.648 50.7227 177.188 50.7227C176.695 50.7227 176.293 50.8281 175.98 51.0391C175.668 51.2422 175.426 51.5234 175.254 51.8828C175.082 52.2344 174.961 52.6367 174.891 53.0898C174.828 53.5352 174.797 54.0039 174.797 54.4961V54.8359C174.797 55.3281 174.828 55.8008 174.891 56.2539C174.953 56.707 175.07 57.1094 175.242 57.4609C175.422 57.8125 175.668 58.0898 175.98 58.293C176.293 58.4961 176.699 58.5977 177.199 58.5977ZM188.039 48.3203V61H184.652V48.3203H188.039ZM184.441 45.0156C184.441 44.5234 184.613 44.1172 184.957 43.7969C185.301 43.4766 185.762 43.3164 186.34 43.3164C186.91 43.3164 187.367 43.4766 187.711 43.7969C188.062 44.1172 188.238 44.5234 188.238 45.0156C188.238 45.5078 188.062 45.9141 187.711 46.2344C187.367 46.5547 186.91 46.7148 186.34 46.7148C185.762 46.7148 185.301 46.5547 184.957 46.2344C184.613 45.9141 184.441 45.5078 184.441 45.0156ZM197.672 58.1406V52.4922C197.672 52.0859 197.605 51.7383 197.473 51.4492C197.34 51.1523 197.133 50.9219 196.852 50.7578C196.578 50.5938 196.223 50.5117 195.785 50.5117C195.41 50.5117 195.086 50.5781 194.812 50.7109C194.539 50.8359 194.328 51.0195 194.18 51.2617C194.031 51.4961 193.957 51.7734 193.957 52.0938H190.582C190.582 51.5547 190.707 51.043 190.957 50.5586C191.207 50.0742 191.57 49.6484 192.047 49.2812C192.523 48.9062 193.09 48.6133 193.746 48.4023C194.41 48.1914 195.152 48.0859 195.973 48.0859C196.957 48.0859 197.832 48.25 198.598 48.5781C199.363 48.9062 199.965 49.3984 200.402 50.0547C200.848 50.7109 201.07 51.5312 201.07 52.5156V57.9414C201.07 58.6367 201.113 59.207 201.199 59.6523C201.285 60.0898 201.41 60.4727 201.574 60.8008V61H198.164C198 60.6562 197.875 60.2266 197.789 59.7109C197.711 59.1875 197.672 58.6641 197.672 58.1406ZM198.117 53.2773L198.141 55.1875H196.254C195.809 55.1875 195.422 55.2383 195.094 55.3398C194.766 55.4414 194.496 55.5859 194.285 55.7734C194.074 55.9531 193.918 56.1641 193.816 56.4062C193.723 56.6484 193.676 56.9141 193.676 57.2031C193.676 57.4922 193.742 57.7539 193.875 57.9883C194.008 58.2148 194.199 58.3945 194.449 58.5273C194.699 58.6523 194.992 58.7148 195.328 58.7148C195.836 58.7148 196.277 58.6133 196.652 58.4102C197.027 58.207 197.316 57.957 197.52 57.6602C197.73 57.3633 197.84 57.082 197.848 56.8164L198.738 58.2461C198.613 58.5664 198.441 58.8984 198.223 59.2422C198.012 59.5859 197.742 59.9102 197.414 60.2148C197.086 60.5117 196.691 60.7578 196.23 60.9531C195.77 61.1406 195.223 61.2344 194.59 61.2344C193.785 61.2344 193.055 61.0742 192.398 60.7539C191.75 60.4258 191.234 59.9766 190.852 59.4062C190.477 58.8281 190.289 58.1719 190.289 57.4375C190.289 56.7734 190.414 56.1836 190.664 55.668C190.914 55.1523 191.281 54.7188 191.766 54.3672C192.258 54.0078 192.871 53.7383 193.605 53.5586C194.34 53.3711 195.191 53.2773 196.16 53.2773H198.117ZM207.234 43V61H203.848V43H207.234ZM216.211 43.9375H222.574C223.879 43.9375 225 44.1328 225.938 44.5234C226.883 44.9141 227.609 45.4922 228.117 46.2578C228.625 47.0234 228.879 47.9648 228.879 49.082C228.879 49.9961 228.723 50.7812 228.41 51.4375C228.105 52.0859 227.672 52.6289 227.109 53.0664C226.555 53.4961 225.902 53.8398 225.152 54.0977L224.039 54.6836H218.508L218.484 51.9414H222.598C223.215 51.9414 223.727 51.832 224.133 51.6133C224.539 51.3945 224.844 51.0898 225.047 50.6992C225.258 50.3086 225.363 49.8555 225.363 49.3398C225.363 48.793 225.262 48.3203 225.059 47.9219C224.855 47.5234 224.547 47.2188 224.133 47.0078C223.719 46.7969 223.199 46.6914 222.574 46.6914H219.727V61H216.211V43.9375ZM225.75 61L221.859 53.3945L225.574 53.3711L229.512 60.8359V61H225.75ZM234.938 48.3203V61H231.551V48.3203H234.938ZM231.34 45.0156C231.34 44.5234 231.512 44.1172 231.855 43.7969C232.199 43.4766 232.66 43.3164 233.238 43.3164C233.809 43.3164 234.266 43.4766 234.609 43.7969C234.961 44.1172 235.137 44.5234 235.137 45.0156C235.137 45.5078 234.961 45.9141 234.609 46.2344C234.266 46.5547 233.809 46.7148 233.238 46.7148C232.66 46.7148 232.199 46.5547 231.855 46.2344C231.512 45.9141 231.34 45.5078 231.34 45.0156ZM244.582 57.4961C244.582 57.2539 244.512 57.0352 244.371 56.8398C244.23 56.6445 243.969 56.4648 243.586 56.3008C243.211 56.1289 242.668 55.9727 241.957 55.832C241.316 55.6914 240.719 55.5156 240.164 55.3047C239.617 55.0859 239.141 54.8242 238.734 54.5195C238.336 54.2148 238.023 53.8555 237.797 53.4414C237.57 53.0195 237.457 52.5391 237.457 52C237.457 51.4688 237.57 50.9688 237.797 50.5C238.031 50.0312 238.363 49.6172 238.793 49.2578C239.23 48.8906 239.762 48.6055 240.387 48.4023C241.02 48.1914 241.73 48.0859 242.52 48.0859C243.621 48.0859 244.566 48.2617 245.355 48.6133C246.152 48.9648 246.762 49.4492 247.184 50.0664C247.613 50.6758 247.828 51.3711 247.828 52.1523H244.453C244.453 51.8242 244.383 51.5312 244.242 51.2734C244.109 51.0078 243.898 50.8008 243.609 50.6523C243.328 50.4961 242.961 50.418 242.508 50.418C242.133 50.418 241.809 50.4844 241.535 50.6172C241.262 50.7422 241.051 50.9141 240.902 51.1328C240.762 51.3438 240.691 51.5781 240.691 51.8359C240.691 52.0312 240.73 52.207 240.809 52.3633C240.895 52.5117 241.031 52.6484 241.219 52.7734C241.406 52.8984 241.648 53.0156 241.945 53.125C242.25 53.2266 242.625 53.3203 243.07 53.4062C243.984 53.5938 244.801 53.8398 245.52 54.1445C246.238 54.4414 246.809 54.8477 247.23 55.3633C247.652 55.8711 247.863 56.5391 247.863 57.3672C247.863 57.9297 247.738 58.4453 247.488 58.9141C247.238 59.3828 246.879 59.793 246.41 60.1445C245.941 60.4883 245.379 60.7578 244.723 60.9531C244.074 61.1406 243.344 61.2344 242.531 61.2344C241.352 61.2344 240.352 61.0234 239.531 60.6016C238.719 60.1797 238.102 59.6445 237.68 58.9961C237.266 58.3398 237.059 57.668 237.059 56.9805H240.258C240.273 57.4414 240.391 57.8125 240.609 58.0938C240.836 58.375 241.121 58.5781 241.465 58.7031C241.816 58.8281 242.195 58.8906 242.602 58.8906C243.039 58.8906 243.402 58.832 243.691 58.7148C243.98 58.5898 244.199 58.4258 244.348 58.2227C244.504 58.0117 244.582 57.7695 244.582 57.4961ZM253.43 42.9883V61H250.055V42.9883H253.43ZM261.422 48.3203L255.914 54.6016L252.961 57.5898L251.73 55.1523L254.074 52.1758L257.367 48.3203H261.422ZM257.918 61L254.168 55.1406L256.5 53.1016L261.809 61H257.918ZM269.062 43.9375H275.426C276.73 43.9375 277.852 44.1328 278.789 44.5234C279.734 44.9141 280.461 45.4922 280.969 46.2578C281.477 47.0234 281.73 47.9648 281.73 49.082C281.73 49.9961 281.574 50.7812 281.262 51.4375C280.957 52.0859 280.523 52.6289 279.961 53.0664C279.406 53.4961 278.754 53.8398 278.004 54.0977L276.891 54.6836H271.359L271.336 51.9414H275.449C276.066 51.9414 276.578 51.832 276.984 51.6133C277.391 51.3945 277.695 51.0898 277.898 50.6992C278.109 50.3086 278.215 49.8555 278.215 49.3398C278.215 48.793 278.113 48.3203 277.91 47.9219C277.707 47.5234 277.398 47.2188 276.984 47.0078C276.57 46.7969 276.051 46.6914 275.426 46.6914H272.578V61H269.062V43.9375ZM278.602 61L274.711 53.3945L278.426 53.3711L282.363 60.8359V61H278.602ZM291.07 58.1406V52.4922C291.07 52.0859 291.004 51.7383 290.871 51.4492C290.738 51.1523 290.531 50.9219 290.25 50.7578C289.977 50.5938 289.621 50.5117 289.184 50.5117C288.809 50.5117 288.484 50.5781 288.211 50.7109C287.938 50.8359 287.727 51.0195 287.578 51.2617C287.43 51.4961 287.355 51.7734 287.355 52.0938H283.98C283.98 51.5547 284.105 51.043 284.355 50.5586C284.605 50.0742 284.969 49.6484 285.445 49.2812C285.922 48.9062 286.488 48.6133 287.145 48.4023C287.809 48.1914 288.551 48.0859 289.371 48.0859C290.355 48.0859 291.23 48.25 291.996 48.5781C292.762 48.9062 293.363 49.3984 293.801 50.0547C294.246 50.7109 294.469 51.5312 294.469 52.5156V57.9414C294.469 58.6367 294.512 59.207 294.598 59.6523C294.684 60.0898 294.809 60.4727 294.973 60.8008V61H291.562C291.398 60.6562 291.273 60.2266 291.188 59.7109C291.109 59.1875 291.07 58.6641 291.07 58.1406ZM291.516 53.2773L291.539 55.1875H289.652C289.207 55.1875 288.82 55.2383 288.492 55.3398C288.164 55.4414 287.895 55.5859 287.684 55.7734C287.473 55.9531 287.316 56.1641 287.215 56.4062C287.121 56.6484 287.074 56.9141 287.074 57.2031C287.074 57.4922 287.141 57.7539 287.273 57.9883C287.406 58.2148 287.598 58.3945 287.848 58.5273C288.098 58.6523 288.391 58.7148 288.727 58.7148C289.234 58.7148 289.676 58.6133 290.051 58.4102C290.426 58.207 290.715 57.957 290.918 57.6602C291.129 57.3633 291.238 57.082 291.246 56.8164L292.137 58.2461C292.012 58.5664 291.84 58.8984 291.621 59.2422C291.41 59.5859 291.141 59.9102 290.812 60.2148C290.484 60.5117 290.09 60.7578 289.629 60.9531C289.168 61.1406 288.621 61.2344 287.988 61.2344C287.184 61.2344 286.453 61.0742 285.797 60.7539C285.148 60.4258 284.633 59.9766 284.25 59.4062C283.875 58.8281 283.688 58.1719 283.688 57.4375C283.688 56.7734 283.812 56.1836 284.062 55.668C284.312 55.1523 284.68 54.7188 285.164 54.3672C285.656 54.0078 286.27 53.7383 287.004 53.5586C287.738 53.3711 288.59 53.2773 289.559 53.2773H291.516ZM304.559 58.2344V43H307.957V61H304.898L304.559 58.2344ZM296.543 54.8125V54.5664C296.543 53.5977 296.652 52.7188 296.871 51.9297C297.09 51.1328 297.41 50.4492 297.832 49.8789C298.254 49.3086 298.773 48.8672 299.391 48.5547C300.008 48.2422 300.711 48.0859 301.5 48.0859C302.242 48.0859 302.891 48.2422 303.445 48.5547C304.008 48.8672 304.484 49.3125 304.875 49.8906C305.273 50.4609 305.594 51.1367 305.836 51.918C306.078 52.6914 306.254 53.5391 306.363 54.4609V55C306.254 55.8828 306.078 56.7031 305.836 57.4609C305.594 58.2188 305.273 58.8828 304.875 59.4531C304.484 60.0156 304.008 60.4531 303.445 60.7656C302.883 61.0781 302.227 61.2344 301.477 61.2344C300.688 61.2344 299.984 61.0742 299.367 60.7539C298.758 60.4336 298.242 59.9844 297.82 59.4062C297.406 58.8281 297.09 58.1484 296.871 57.3672C296.652 56.5859 296.543 55.7344 296.543 54.8125ZM299.918 54.5664V54.8125C299.918 55.3359 299.957 55.8242 300.035 56.2773C300.121 56.7305 300.258 57.1328 300.445 57.4844C300.641 57.8281 300.891 58.0977 301.195 58.293C301.508 58.4805 301.887 58.5742 302.332 58.5742C302.91 58.5742 303.387 58.4453 303.762 58.1875C304.137 57.9219 304.422 57.5586 304.617 57.0977C304.82 56.6367 304.938 56.1055 304.969 55.5039V53.9688C304.945 53.4766 304.875 53.0352 304.758 52.6445C304.648 52.2461 304.484 51.9062 304.266 51.625C304.055 51.3438 303.789 51.125 303.469 50.9688C303.156 50.8125 302.785 50.7344 302.355 50.7344C301.918 50.7344 301.543 50.8359 301.23 51.0391C300.918 51.2344 300.664 51.5039 300.469 51.8477C300.281 52.1914 300.141 52.5977 300.047 53.0664C299.961 53.5273 299.918 54.0273 299.918 54.5664ZM317.438 58.1406V52.4922C317.438 52.0859 317.371 51.7383 317.238 51.4492C317.105 51.1523 316.898 50.9219 316.617 50.7578C316.344 50.5938 315.988 50.5117 315.551 50.5117C315.176 50.5117 314.852 50.5781 314.578 50.7109C314.305 50.8359 314.094 51.0195 313.945 51.2617C313.797 51.4961 313.723 51.7734 313.723 52.0938H310.348C310.348 51.5547 310.473 51.043 310.723 50.5586C310.973 50.0742 311.336 49.6484 311.812 49.2812C312.289 48.9062 312.855 48.6133 313.512 48.4023C314.176 48.1914 314.918 48.0859 315.738 48.0859C316.723 48.0859 317.598 48.25 318.363 48.5781C319.129 48.9062 319.73 49.3984 320.168 50.0547C320.613 50.7109 320.836 51.5312 320.836 52.5156V57.9414C320.836 58.6367 320.879 59.207 320.965 59.6523C321.051 60.0898 321.176 60.4727 321.34 60.8008V61H317.93C317.766 60.6562 317.641 60.2266 317.555 59.7109C317.477 59.1875 317.438 58.6641 317.438 58.1406ZM317.883 53.2773L317.906 55.1875H316.02C315.574 55.1875 315.188 55.2383 314.859 55.3398C314.531 55.4414 314.262 55.5859 314.051 55.7734C313.84 55.9531 313.684 56.1641 313.582 56.4062C313.488 56.6484 313.441 56.9141 313.441 57.2031C313.441 57.4922 313.508 57.7539 313.641 57.9883C313.773 58.2148 313.965 58.3945 314.215 58.5273C314.465 58.6523 314.758 58.7148 315.094 58.7148C315.602 58.7148 316.043 58.6133 316.418 58.4102C316.793 58.207 317.082 57.957 317.285 57.6602C317.496 57.3633 317.605 57.082 317.613 56.8164L318.504 58.2461C318.379 58.5664 318.207 58.8984 317.988 59.2422C317.777 59.5859 317.508 59.9102 317.18 60.2148C316.852 60.5117 316.457 60.7578 315.996 60.9531C315.535 61.1406 314.988 61.2344 314.355 61.2344C313.551 61.2344 312.82 61.0742 312.164 60.7539C311.516 60.4258 311 59.9766 310.617 59.4062C310.242 58.8281 310.055 58.1719 310.055 57.4375C310.055 56.7734 310.18 56.1836 310.43 55.668C310.68 55.1523 311.047 54.7188 311.531 54.3672C312.023 54.0078 312.637 53.7383 313.371 53.5586C314.105 53.3711 314.957 53.2773 315.926 53.2773H317.883ZM326.812 51.0859V61H323.438V48.3203H326.613L326.812 51.0859ZM330.633 48.2383L330.574 51.3672C330.41 51.3438 330.211 51.3242 329.977 51.3086C329.75 51.2852 329.543 51.2734 329.355 51.2734C328.879 51.2734 328.465 51.3359 328.113 51.4609C327.77 51.5781 327.48 51.7539 327.246 51.9883C327.02 52.2227 326.848 52.5078 326.73 52.8438C326.621 53.1797 326.559 53.5625 326.543 53.9922L325.863 53.7812C325.863 52.9609 325.945 52.207 326.109 51.5195C326.273 50.8242 326.512 50.2188 326.824 49.7031C327.145 49.1875 327.535 48.7891 327.996 48.5078C328.457 48.2266 328.984 48.0859 329.578 48.0859C329.766 48.0859 329.957 48.1016 330.152 48.1328C330.348 48.1562 330.508 48.1914 330.633 48.2383Z" fill="#888888"/>
<path d="M106.688 119H99.1172L99.1641 112.672H106.688C108.25 112.672 109.57 112.297 110.648 111.547C111.742 110.797 112.57 109.68 113.133 108.195C113.711 106.695 114 104.852 114 102.664V101.188C114 99.5469 113.836 98.1094 113.508 96.875C113.195 95.625 112.727 94.5859 112.102 93.7578C111.477 92.9141 110.695 92.2812 109.758 91.8594C108.836 91.4375 107.773 91.2266 106.57 91.2266H98.9766V84.875H106.57C108.883 84.875 111 85.2734 112.922 86.0703C114.859 86.8516 116.531 87.9766 117.938 89.4453C119.359 90.8984 120.453 92.625 121.219 94.625C122 96.6094 122.391 98.8125 122.391 101.234V102.664C122.391 105.07 122 107.273 121.219 109.273C120.453 111.273 119.367 113 117.961 114.453C116.555 115.906 114.891 117.031 112.969 117.828C111.062 118.609 108.969 119 106.688 119ZM103.828 84.875V119H95.6016V84.875H103.828ZM139.477 112.625V102.172C139.477 101.453 139.375 100.836 139.172 100.32C138.969 99.8047 138.648 99.4062 138.211 99.125C137.773 98.8281 137.188 98.6797 136.453 98.6797C135.859 98.6797 135.352 98.7812 134.93 98.9844C134.508 99.1875 134.188 99.4922 133.969 99.8984C133.75 100.305 133.641 100.82 133.641 101.445H125.742C125.742 100.273 126 99.1875 126.516 98.1875C127.047 97.1719 127.797 96.2891 128.766 95.5391C129.75 94.7891 130.922 94.2109 132.281 93.8047C133.656 93.3828 135.188 93.1719 136.875 93.1719C138.891 93.1719 140.688 93.5078 142.266 94.1797C143.859 94.8516 145.117 95.8594 146.039 97.2031C146.961 98.5312 147.422 100.203 147.422 102.219V112.602C147.422 114.258 147.516 115.516 147.703 116.375C147.891 117.219 148.156 117.961 148.5 118.602V119H140.578C140.203 118.219 139.922 117.266 139.734 116.141C139.562 115 139.477 113.828 139.477 112.625ZM140.438 103.508L140.484 107.727H136.992C136.258 107.727 135.633 107.828 135.117 108.031C134.617 108.234 134.211 108.516 133.898 108.875C133.602 109.219 133.383 109.609 133.242 110.047C133.117 110.484 133.055 110.945 133.055 111.43C133.055 111.898 133.164 112.32 133.383 112.695C133.617 113.055 133.93 113.336 134.32 113.539C134.711 113.742 135.148 113.844 135.633 113.844C136.508 113.844 137.25 113.68 137.859 113.352C138.484 113.008 138.961 112.594 139.289 112.109C139.617 111.625 139.781 111.172 139.781 110.75L141.516 113.984C141.203 114.609 140.844 115.242 140.438 115.883C140.047 116.523 139.555 117.117 138.961 117.664C138.383 118.195 137.672 118.633 136.828 118.977C135.984 119.305 134.961 119.469 133.758 119.469C132.195 119.469 130.758 119.148 129.445 118.508C128.148 117.867 127.109 116.977 126.328 115.836C125.547 114.68 125.156 113.352 125.156 111.852C125.156 110.539 125.391 109.367 125.859 108.336C126.344 107.305 127.07 106.43 128.039 105.711C129.008 104.992 130.242 104.445 131.742 104.07C133.242 103.695 135.008 103.508 137.039 103.508H140.438ZM165.164 93.6406V99.125H149.883V93.6406H165.164ZM153.094 87.3359H160.992V110.727C160.992 111.398 161.07 111.922 161.227 112.297C161.383 112.656 161.648 112.914 162.023 113.07C162.414 113.211 162.93 113.281 163.57 113.281C164.023 113.281 164.398 113.273 164.695 113.258C164.992 113.227 165.273 113.188 165.539 113.141V118.789C164.867 119.008 164.164 119.172 163.43 119.281C162.695 119.406 161.914 119.469 161.086 119.469C159.398 119.469 157.953 119.203 156.75 118.672C155.562 118.141 154.656 117.305 154.031 116.164C153.406 115.023 153.094 113.539 153.094 111.711V87.3359ZM181.477 112.625V102.172C181.477 101.453 181.375 100.836 181.172 100.32C180.969 99.8047 180.648 99.4062 180.211 99.125C179.773 98.8281 179.188 98.6797 178.453 98.6797C177.859 98.6797 177.352 98.7812 176.93 98.9844C176.508 99.1875 176.188 99.4922 175.969 99.8984C175.75 100.305 175.641 100.82 175.641 101.445H167.742C167.742 100.273 168 99.1875 168.516 98.1875C169.047 97.1719 169.797 96.2891 170.766 95.5391C171.75 94.7891 172.922 94.2109 174.281 93.8047C175.656 93.3828 177.188 93.1719 178.875 93.1719C180.891 93.1719 182.688 93.5078 184.266 94.1797C185.859 94.8516 187.117 95.8594 188.039 97.2031C188.961 98.5312 189.422 100.203 189.422 102.219V112.602C189.422 114.258 189.516 115.516 189.703 116.375C189.891 117.219 190.156 117.961 190.5 118.602V119H182.578C182.203 118.219 181.922 117.266 181.734 116.141C181.562 115 181.477 113.828 181.477 112.625ZM182.438 103.508L182.484 107.727H178.992C178.258 107.727 177.633 107.828 177.117 108.031C176.617 108.234 176.211 108.516 175.898 108.875C175.602 109.219 175.383 109.609 175.242 110.047C175.117 110.484 175.055 110.945 175.055 111.43C175.055 111.898 175.164 112.32 175.383 112.695C175.617 113.055 175.93 113.336 176.32 113.539C176.711 113.742 177.148 113.844 177.633 113.844C178.508 113.844 179.25 113.68 179.859 113.352C180.484 113.008 180.961 112.594 181.289 112.109C181.617 111.625 181.781 111.172 181.781 110.75L183.516 113.984C183.203 114.609 182.844 115.242 182.438 115.883C182.047 116.523 181.555 117.117 180.961 117.664C180.383 118.195 179.672 118.633 178.828 118.977C177.984 119.305 176.961 119.469 175.758 119.469C174.195 119.469 172.758 119.148 171.445 118.508C170.148 117.867 169.109 116.977 168.328 115.836C167.547 114.68 167.156 113.352 167.156 111.852C167.156 110.539 167.391 109.367 167.859 108.336C168.344 107.305 169.07 106.43 170.039 105.711C171.008 104.992 172.242 104.445 173.742 104.07C175.242 103.695 177.008 103.508 179.039 103.508H182.438ZM214.008 115.906L220.805 84.875H224.859L227.062 87.5234L219.82 119H215.344L214.008 115.906ZM212.203 84.875L217.945 116.141L216.469 119H211.289L204.047 84.875H212.203ZM230.789 115.977L236.484 84.875H244.617L237.375 119H232.219L230.789 115.977ZM227.789 84.875L234.75 116.094L233.344 119H228.867L221.461 87.4766L223.758 84.875H227.789ZM259.852 112.625V102.172C259.852 101.453 259.75 100.836 259.547 100.32C259.344 99.8047 259.023 99.4062 258.586 99.125C258.148 98.8281 257.562 98.6797 256.828 98.6797C256.234 98.6797 255.727 98.7812 255.305 98.9844C254.883 99.1875 254.562 99.4922 254.344 99.8984C254.125 100.305 254.016 100.82 254.016 101.445H246.117C246.117 100.273 246.375 99.1875 246.891 98.1875C247.422 97.1719 248.172 96.2891 249.141 95.5391C250.125 94.7891 251.297 94.2109 252.656 93.8047C254.031 93.3828 255.562 93.1719 257.25 93.1719C259.266 93.1719 261.062 93.5078 262.641 94.1797C264.234 94.8516 265.492 95.8594 266.414 97.2031C267.336 98.5312 267.797 100.203 267.797 102.219V112.602C267.797 114.258 267.891 115.516 268.078 116.375C268.266 117.219 268.531 117.961 268.875 118.602V119H260.953C260.578 118.219 260.297 117.266 260.109 116.141C259.938 115 259.852 113.828 259.852 112.625ZM260.812 103.508L260.859 107.727H257.367C256.633 107.727 256.008 107.828 255.492 108.031C254.992 108.234 254.586 108.516 254.273 108.875C253.977 109.219 253.758 109.609 253.617 110.047C253.492 110.484 253.43 110.945 253.43 111.43C253.43 111.898 253.539 112.32 253.758 112.695C253.992 113.055 254.305 113.336 254.695 113.539C255.086 113.742 255.523 113.844 256.008 113.844C256.883 113.844 257.625 113.68 258.234 113.352C258.859 113.008 259.336 112.594 259.664 112.109C259.992 111.625 260.156 111.172 260.156 110.75L261.891 113.984C261.578 114.609 261.219 115.242 260.812 115.883C260.422 116.523 259.93 117.117 259.336 117.664C258.758 118.195 258.047 118.633 257.203 118.977C256.359 119.305 255.336 119.469 254.133 119.469C252.57 119.469 251.133 119.148 249.82 118.508C248.523 117.867 247.484 116.977 246.703 115.836C245.922 114.68 245.531 113.352 245.531 111.852C245.531 110.539 245.766 109.367 246.234 108.336C246.719 107.305 247.445 106.43 248.414 105.711C249.383 104.992 250.617 104.445 252.117 104.07C253.617 103.695 255.383 103.508 257.414 103.508H260.812ZM280.148 99.9219V119H272.25V93.6406H279.633L280.148 99.9219ZM287.648 93.4531L287.508 100.789C287.195 100.758 286.773 100.719 286.242 100.672C285.711 100.625 285.266 100.602 284.906 100.602C283.984 100.602 283.188 100.711 282.516 100.93C281.859 101.133 281.312 101.445 280.875 101.867C280.453 102.273 280.141 102.789 279.938 103.414C279.75 104.039 279.664 104.766 279.68 105.594L278.25 104.656C278.25 102.953 278.414 101.406 278.742 100.016C279.086 98.6094 279.57 97.3984 280.195 96.3828C280.82 95.3516 281.578 94.5625 282.469 94.0156C283.359 93.4531 284.359 93.1719 285.469 93.1719C285.859 93.1719 286.242 93.1953 286.617 93.2422C287.008 93.2891 287.352 93.3594 287.648 93.4531ZM302.18 119.469C300.117 119.469 298.273 119.148 296.648 118.508C295.023 117.852 293.648 116.953 292.523 115.812C291.414 114.672 290.562 113.359 289.969 111.875C289.391 110.391 289.102 108.82 289.102 107.164V106.273C289.102 104.414 289.359 102.695 289.875 101.117C290.391 99.5234 291.156 98.1328 292.172 96.9453C293.188 95.7578 294.461 94.8359 295.992 94.1797C297.523 93.5078 299.305 93.1719 301.336 93.1719C303.133 93.1719 304.742 93.4609 306.164 94.0391C307.586 94.6172 308.789 95.4453 309.773 96.5234C310.773 97.6016 311.531 98.9062 312.047 100.438C312.578 101.969 312.844 103.688 312.844 105.594V108.805H292.125V103.859H305.133V103.25C305.148 102.406 305 101.688 304.688 101.094C304.391 100.5 303.953 100.047 303.375 99.7344C302.797 99.4219 302.094 99.2656 301.266 99.2656C300.406 99.2656 299.695 99.4531 299.133 99.8281C298.586 100.203 298.156 100.719 297.844 101.375C297.547 102.016 297.336 102.758 297.211 103.602C297.086 104.445 297.023 105.336 297.023 106.273V107.164C297.023 108.102 297.148 108.953 297.398 109.719C297.664 110.484 298.039 111.141 298.523 111.688C299.023 112.219 299.617 112.633 300.305 112.93C301.008 113.227 301.805 113.375 302.695 113.375C303.773 113.375 304.836 113.172 305.883 112.766C306.93 112.359 307.828 111.688 308.578 110.75L312.164 115.016C311.648 115.75 310.914 116.461 309.961 117.148C309.023 117.836 307.898 118.398 306.586 118.836C305.273 119.258 303.805 119.469 302.18 119.469ZM323.789 83V119H315.891V83H323.789ZM322.852 105.453L321 105.5C321 103.719 321.219 102.078 321.656 100.578C322.094 99.0781 322.719 97.7734 323.531 96.6641C324.344 95.5547 325.32 94.6953 326.461 94.0859C327.602 93.4766 328.867 93.1719 330.258 93.1719C331.508 93.1719 332.648 93.3516 333.68 93.7109C334.727 94.0703 335.625 94.6484 336.375 95.4453C337.141 96.2422 337.727 97.2812 338.133 98.5625C338.555 99.8438 338.766 101.406 338.766 103.25V119H330.82V103.203C330.82 102.172 330.672 101.375 330.375 100.812C330.094 100.234 329.688 99.8359 329.156 99.6172C328.625 99.3828 327.977 99.2656 327.211 99.2656C326.289 99.2656 325.539 99.4219 324.961 99.7344C324.383 100.047 323.938 100.484 323.625 101.047C323.328 101.594 323.125 102.242 323.016 102.992C322.906 103.742 322.852 104.562 322.852 105.453ZM342.164 106.578V106.086C342.164 104.227 342.43 102.516 342.961 100.953C343.492 99.375 344.273 98.0078 345.305 96.8516C346.336 95.6953 347.609 94.7969 349.125 94.1562C350.641 93.5 352.391 93.1719 354.375 93.1719C356.375 93.1719 358.133 93.5 359.648 94.1562C361.18 94.7969 362.461 95.6953 363.492 96.8516C364.523 98.0078 365.305 99.375 365.836 100.953C366.367 102.516 366.633 104.227 366.633 106.086V106.578C366.633 108.422 366.367 110.133 365.836 111.711C365.305 113.273 364.523 114.641 363.492 115.812C362.461 116.969 361.188 117.867 359.672 118.508C358.156 119.148 356.406 119.469 354.422 119.469C352.438 119.469 350.68 119.148 349.148 118.508C347.617 117.867 346.336 116.969 345.305 115.812C344.273 114.641 343.492 113.273 342.961 111.711C342.43 110.133 342.164 108.422 342.164 106.578ZM350.062 106.086V106.578C350.062 107.531 350.133 108.422 350.273 109.25C350.414 110.078 350.648 110.805 350.977 111.43C351.305 112.039 351.75 112.516 352.312 112.859C352.875 113.203 353.578 113.375 354.422 113.375C355.25 113.375 355.938 113.203 356.484 112.859C357.047 112.516 357.492 112.039 357.82 111.43C358.148 110.805 358.383 110.078 358.523 109.25C358.664 108.422 358.734 107.531 358.734 106.578V106.086C358.734 105.164 358.664 104.297 358.523 103.484C358.383 102.656 358.148 101.93 357.82 101.305C357.492 100.664 357.047 100.164 356.484 99.8047C355.922 99.4453 355.219 99.2656 354.375 99.2656C353.547 99.2656 352.852 99.4453 352.289 99.8047C351.742 100.164 351.305 100.664 350.977 101.305C350.648 101.93 350.414 102.656 350.273 103.484C350.133 104.297 350.062 105.164 350.062 106.086ZM384.961 112.836V93.6406H392.883V119H385.477L384.961 112.836ZM385.711 107.68L387.773 107.633C387.773 109.336 387.57 110.914 387.164 112.367C386.758 113.805 386.156 115.055 385.359 116.117C384.578 117.18 383.609 118.008 382.453 118.602C381.312 119.18 379.992 119.469 378.492 119.469C377.242 119.469 376.094 119.297 375.047 118.953C374.016 118.594 373.125 118.039 372.375 117.289C371.625 116.523 371.039 115.547 370.617 114.359C370.211 113.156 370.008 111.719 370.008 110.047V93.6406H377.906V110.094C377.906 110.656 377.977 111.141 378.117 111.547C378.258 111.953 378.461 112.297 378.727 112.578C378.992 112.844 379.32 113.047 379.711 113.188C380.117 113.312 380.578 113.375 381.094 113.375C382.281 113.375 383.211 113.125 383.883 112.625C384.555 112.125 385.023 111.445 385.289 110.586C385.57 109.727 385.711 108.758 385.711 107.68ZM410.531 111.875C410.531 111.438 410.383 111.062 410.086 110.75C409.805 110.422 409.305 110.125 408.586 109.859C407.867 109.578 406.859 109.297 405.562 109.016C404.328 108.75 403.164 108.398 402.07 107.961C400.992 107.523 400.047 106.992 399.234 106.367C398.422 105.742 397.781 105 397.312 104.141C396.859 103.281 396.633 102.297 396.633 101.188C396.633 100.109 396.859 99.0938 397.312 98.1406C397.781 97.1719 398.461 96.3203 399.352 95.5859C400.258 94.8359 401.359 94.25 402.656 93.8281C403.953 93.3906 405.43 93.1719 407.086 93.1719C409.367 93.1719 411.336 93.5234 412.992 94.2266C414.648 94.9141 415.922 95.8828 416.812 97.1328C417.719 98.3672 418.172 99.7969 418.172 101.422H410.273C410.273 100.781 410.164 100.234 409.945 99.7812C409.742 99.3281 409.406 98.9844 408.938 98.75C408.469 98.5 407.844 98.375 407.062 98.375C406.516 98.375 406.016 98.4766 405.562 98.6797C405.125 98.8828 404.773 99.1641 404.508 99.5234C404.242 99.8828 404.109 100.305 404.109 100.789C404.109 101.133 404.188 101.445 404.344 101.727C404.516 101.992 404.773 102.242 405.117 102.477C405.461 102.695 405.898 102.898 406.43 103.086C406.961 103.258 407.602 103.414 408.352 103.555C410.055 103.867 411.648 104.312 413.133 104.891C414.617 105.469 415.82 106.289 416.742 107.352C417.68 108.414 418.148 109.844 418.148 111.641C418.148 112.766 417.891 113.805 417.375 114.758C416.859 115.695 416.117 116.523 415.148 117.242C414.18 117.945 413.016 118.492 411.656 118.883C410.297 119.273 408.766 119.469 407.062 119.469C404.641 119.469 402.594 119.039 400.922 118.18C399.25 117.305 397.984 116.211 397.125 114.898C396.281 113.57 395.859 112.227 395.859 110.867H403.219C403.25 111.648 403.438 112.289 403.781 112.789C404.141 113.289 404.617 113.656 405.211 113.891C405.805 114.125 406.492 114.242 407.273 114.242C407.992 114.242 408.586 114.141 409.055 113.938C409.539 113.734 409.906 113.461 410.156 113.117C410.406 112.758 410.531 112.344 410.531 111.875ZM434.133 119.469C432.07 119.469 430.227 119.148 428.602 118.508C426.977 117.852 425.602 116.953 424.477 115.812C423.367 114.672 422.516 113.359 421.922 111.875C421.344 110.391 421.055 108.82 421.055 107.164V106.273C421.055 104.414 421.312 102.695 421.828 101.117C422.344 99.5234 423.109 98.1328 424.125 96.9453C425.141 95.7578 426.414 94.8359 427.945 94.1797C429.477 93.5078 431.258 93.1719 433.289 93.1719C435.086 93.1719 436.695 93.4609 438.117 94.0391C439.539 94.6172 440.742 95.4453 441.727 96.5234C442.727 97.6016 443.484 98.9062 444 100.438C444.531 101.969 444.797 103.688 444.797 105.594V108.805H424.078V103.859H437.086V103.25C437.102 102.406 436.953 101.688 436.641 101.094C436.344 100.5 435.906 100.047 435.328 99.7344C434.75 99.4219 434.047 99.2656 433.219 99.2656C432.359 99.2656 431.648 99.4531 431.086 99.8281C430.539 100.203 430.109 100.719 429.797 101.375C429.5 102.016 429.289 102.758 429.164 103.602C429.039 104.445 428.977 105.336 428.977 106.273V107.164C428.977 108.102 429.102 108.953 429.352 109.719C429.617 110.484 429.992 111.141 430.477 111.688C430.977 112.219 431.57 112.633 432.258 112.93C432.961 113.227 433.758 113.375 434.648 113.375C435.727 113.375 436.789 113.172 437.836 112.766C438.883 112.359 439.781 111.688 440.531 110.75L444.117 115.016C443.602 115.75 442.867 116.461 441.914 117.148C440.977 117.836 439.852 118.398 438.539 118.836C437.227 119.258 435.758 119.469 434.133 119.469ZM477.914 109.93C477.914 109.398 477.836 108.922 477.68 108.5C477.523 108.062 477.234 107.656 476.812 107.281C476.391 106.906 475.781 106.531 474.984 106.156C474.203 105.766 473.172 105.359 471.891 104.938C470.391 104.438 468.945 103.875 467.555 103.25C466.164 102.609 464.922 101.867 463.828 101.023C462.734 100.164 461.867 99.1641 461.227 98.0234C460.586 96.8672 460.266 95.5234 460.266 93.9922C460.266 92.5234 460.594 91.2031 461.25 90.0312C461.906 88.8438 462.82 87.8359 463.992 87.0078C465.18 86.1641 466.57 85.5234 468.164 85.0859C469.758 84.6328 471.5 84.4062 473.391 84.4062C475.891 84.4062 478.094 84.8438 480 85.7188C481.922 86.5781 483.422 87.8047 484.5 89.3984C485.594 90.9766 486.141 92.8438 486.141 95H477.961C477.961 94.1406 477.781 93.3828 477.422 92.7266C477.078 92.0703 476.555 91.5547 475.852 91.1797C475.148 90.8047 474.266 90.6172 473.203 90.6172C472.172 90.6172 471.305 90.7734 470.602 91.0859C469.898 91.3984 469.367 91.8203 469.008 92.3516C468.648 92.8672 468.469 93.4375 468.469 94.0625C468.469 94.5781 468.609 95.0469 468.891 95.4688C469.188 95.875 469.602 96.2578 470.133 96.6172C470.68 96.9766 471.336 97.3203 472.102 97.6484C472.883 97.9766 473.758 98.2969 474.727 98.6094C476.539 99.1875 478.148 99.8359 479.555 100.555C480.977 101.258 482.172 102.062 483.141 102.969C484.125 103.859 484.867 104.875 485.367 106.016C485.883 107.156 486.141 108.445 486.141 109.883C486.141 111.414 485.844 112.773 485.25 113.961C484.656 115.148 483.805 116.156 482.695 116.984C481.586 117.797 480.258 118.414 478.711 118.836C477.164 119.258 475.438 119.469 473.531 119.469C471.781 119.469 470.055 119.25 468.352 118.812C466.664 118.359 465.133 117.672 463.758 116.75C462.383 115.812 461.281 114.617 460.453 113.164C459.641 111.695 459.234 109.953 459.234 107.938H467.484C467.484 108.938 467.617 109.781 467.883 110.469C468.148 111.156 468.539 111.711 469.055 112.133C469.57 112.539 470.203 112.836 470.953 113.023C471.703 113.195 472.562 113.281 473.531 113.281C474.578 113.281 475.422 113.133 476.062 112.836C476.703 112.523 477.172 112.117 477.469 111.617C477.766 111.102 477.914 110.539 477.914 109.93ZM500.719 113.375C501.453 113.375 502.078 113.242 502.594 112.977C503.125 112.695 503.523 112.305 503.789 111.805C504.07 111.289 504.203 110.672 504.188 109.953H511.617C511.633 111.859 511.164 113.531 510.211 114.969C509.273 116.391 507.992 117.5 506.367 118.297C504.758 119.078 502.938 119.469 500.906 119.469C498.922 119.469 497.188 119.148 495.703 118.508C494.219 117.852 492.977 116.945 491.977 115.789C490.992 114.617 490.25 113.25 489.75 111.688C489.266 110.125 489.023 108.43 489.023 106.602V106.062C489.023 104.234 489.266 102.539 489.75 100.977C490.25 99.3984 490.992 98.0312 491.977 96.875C492.977 95.7031 494.211 94.7969 495.68 94.1562C497.164 93.5 498.891 93.1719 500.859 93.1719C502.969 93.1719 504.828 93.5703 506.438 94.3672C508.062 95.1641 509.336 96.3203 510.258 97.8359C511.18 99.3516 511.633 101.188 511.617 103.344H504.188C504.203 102.578 504.086 101.891 503.836 101.281C503.586 100.672 503.195 100.188 502.664 99.8281C502.148 99.4531 501.484 99.2656 500.672 99.2656C499.859 99.2656 499.203 99.4453 498.703 99.8047C498.203 100.164 497.82 100.664 497.555 101.305C497.305 101.93 497.133 102.648 497.039 103.461C496.961 104.273 496.922 105.141 496.922 106.062V106.602C496.922 107.539 496.961 108.422 497.039 109.25C497.133 110.062 497.312 110.781 497.578 111.406C497.844 112.016 498.227 112.5 498.727 112.859C499.227 113.203 499.891 113.375 500.719 113.375ZM522.727 83V119H514.828V83H522.727ZM521.789 105.453L519.938 105.5C519.938 103.719 520.156 102.078 520.594 100.578C521.031 99.0781 521.656 97.7734 522.469 96.6641C523.281 95.5547 524.258 94.6953 525.398 94.0859C526.539 93.4766 527.805 93.1719 529.195 93.1719C530.445 93.1719 531.586 93.3516 532.617 93.7109C533.664 94.0703 534.562 94.6484 535.312 95.4453C536.078 96.2422 536.664 97.2812 537.07 98.5625C537.492 99.8438 537.703 101.406 537.703 103.25V119H529.758V103.203C529.758 102.172 529.609 101.375 529.312 100.812C529.031 100.234 528.625 99.8359 528.094 99.6172C527.562 99.3828 526.914 99.2656 526.148 99.2656C525.227 99.2656 524.477 99.4219 523.898 99.7344C523.32 100.047 522.875 100.484 522.562 101.047C522.266 101.594 522.062 102.242 521.953 102.992C521.844 103.742 521.789 104.562 521.789 105.453ZM554.367 119.469C552.305 119.469 550.461 119.148 548.836 118.508C547.211 117.852 545.836 116.953 544.711 115.812C543.602 114.672 542.75 113.359 542.156 111.875C541.578 110.391 541.289 108.82 541.289 107.164V106.273C541.289 104.414 541.547 102.695 542.062 101.117C542.578 99.5234 543.344 98.1328 544.359 96.9453C545.375 95.7578 546.648 94.8359 548.18 94.1797C549.711 93.5078 551.492 93.1719 553.523 93.1719C555.32 93.1719 556.93 93.4609 558.352 94.0391C559.773 94.6172 560.977 95.4453 561.961 96.5234C562.961 97.6016 563.719 98.9062 564.234 100.438C564.766 101.969 565.031 103.688 565.031 105.594V108.805H544.312V103.859H557.32V103.25C557.336 102.406 557.188 101.688 556.875 101.094C556.578 100.5 556.141 100.047 555.562 99.7344C554.984 99.4219 554.281 99.2656 553.453 99.2656C552.594 99.2656 551.883 99.4531 551.32 99.8281C550.773 100.203 550.344 100.719 550.031 101.375C549.734 102.016 549.523 102.758 549.398 103.602C549.273 104.445 549.211 105.336 549.211 106.273V107.164C549.211 108.102 549.336 108.953 549.586 109.719C549.852 110.484 550.227 111.141 550.711 111.688C551.211 112.219 551.805 112.633 552.492 112.93C553.195 113.227 553.992 113.375 554.883 113.375C555.961 113.375 557.023 113.172 558.07 112.766C559.117 112.359 560.016 111.688 560.766 110.75L564.352 115.016C563.836 115.75 563.102 116.461 562.148 117.148C561.211 117.836 560.086 118.398 558.773 118.836C557.461 119.258 555.992 119.469 554.367 119.469ZM576.211 99.0078V119H568.312V93.6406H575.719L576.211 99.0078ZM575.25 105.453L573.445 105.5C573.445 103.719 573.656 102.078 574.078 100.578C574.5 99.0781 575.125 97.7734 575.953 96.6641C576.781 95.5547 577.797 94.6953 579 94.0859C580.219 93.4766 581.625 93.1719 583.219 93.1719C584.328 93.1719 585.336 93.3438 586.242 93.6875C587.148 94.0156 587.93 94.5391 588.586 95.2578C589.242 95.9609 589.742 96.8828 590.086 98.0234C590.445 99.1484 590.625 100.5 590.625 102.078V119H582.727V103.086C582.727 102.008 582.602 101.195 582.352 100.648C582.117 100.102 581.773 99.7344 581.32 99.5469C580.867 99.3594 580.312 99.2656 579.656 99.2656C578.969 99.2656 578.352 99.4219 577.805 99.7344C577.258 100.047 576.789 100.484 576.398 101.047C576.023 101.594 575.734 102.242 575.531 102.992C575.344 103.742 575.25 104.562 575.25 105.453ZM589.734 105.453L587.531 105.5C587.531 103.719 587.727 102.078 588.117 100.578C588.523 99.0781 589.125 97.7734 589.922 96.6641C590.734 95.5547 591.742 94.6953 592.945 94.0859C594.148 93.4766 595.547 93.1719 597.141 93.1719C598.297 93.1719 599.359 93.3438 600.328 93.6875C601.297 94.0312 602.133 94.5859 602.836 95.3516C603.539 96.1172 604.086 97.1328 604.477 98.3984C604.867 99.6484 605.062 101.195 605.062 103.039V119H597.141V103.039C597.141 101.992 597.016 101.203 596.766 100.672C596.531 100.125 596.188 99.7578 595.734 99.5703C595.281 99.3672 594.742 99.2656 594.117 99.2656C593.367 99.2656 592.719 99.4219 592.172 99.7344C591.625 100.047 591.164 100.484 590.789 101.047C590.43 101.594 590.164 102.242 589.992 102.992C589.82 103.742 589.734 104.562 589.734 105.453ZM622.758 112.625V102.172C622.758 101.453 622.656 100.836 622.453 100.32C622.25 99.8047 621.93 99.4062 621.492 99.125C621.055 98.8281 620.469 98.6797 619.734 98.6797C619.141 98.6797 618.633 98.7812 618.211 98.9844C617.789 99.1875 617.469 99.4922 617.25 99.8984C617.031 100.305 616.922 100.82 616.922 101.445H609.023C609.023 100.273 609.281 99.1875 609.797 98.1875C610.328 97.1719 611.078 96.2891 612.047 95.5391C613.031 94.7891 614.203 94.2109 615.562 93.8047C616.938 93.3828 618.469 93.1719 620.156 93.1719C622.172 93.1719 623.969 93.5078 625.547 94.1797C627.141 94.8516 628.398 95.8594 629.32 97.2031C630.242 98.5312 630.703 100.203 630.703 102.219V112.602C630.703 114.258 630.797 115.516 630.984 116.375C631.172 117.219 631.438 117.961 631.781 118.602V119H623.859C623.484 118.219 623.203 117.266 623.016 116.141C622.844 115 622.758 113.828 622.758 112.625ZM623.719 103.508L623.766 107.727H620.273C619.539 107.727 618.914 107.828 618.398 108.031C617.898 108.234 617.492 108.516 617.18 108.875C616.883 109.219 616.664 109.609 616.523 110.047C616.398 110.484 616.336 110.945 616.336 111.43C616.336 111.898 616.445 112.32 616.664 112.695C616.898 113.055 617.211 113.336 617.602 113.539C617.992 113.742 618.43 113.844 618.914 113.844C619.789 113.844 620.531 113.68 621.141 113.352C621.766 113.008 622.242 112.594 622.57 112.109C622.898 111.625 623.062 111.172 623.062 110.75L624.797 113.984C624.484 114.609 624.125 115.242 623.719 115.883C623.328 116.523 622.836 117.117 622.242 117.664C621.664 118.195 620.953 118.633 620.109 118.977C619.266 119.305 618.242 119.469 617.039 119.469C615.477 119.469 614.039 119.148 612.727 118.508C611.43 117.867 610.391 116.977 609.609 115.836C608.828 114.68 608.438 113.352 608.438 111.852C608.438 110.539 608.672 109.367 609.141 108.336C609.625 107.305 610.352 106.43 611.32 105.711C612.289 104.992 613.523 104.445 615.023 104.07C616.523 103.695 618.289 103.508 620.32 103.508H623.719Z" fill="black"/>
<path d="M1134 0H1348C1356.28 0 1363 6.71573 1363 15V148C1363 156.284 1356.28 163 1348 163H1134V0Z" fill="#4653C9"/>
<path d="M1217.58 64.1667C1217.58 66.0281 1218.51 67.7419 1220.09 69.2434C1221.67 70.7429 1223.94 72.0619 1226.71 73.1553C1232.26 75.343 1239.93 76.6667 1248.5 76.6667C1257.07 76.6667 1264.74 75.343 1270.29 73.1553C1273.06 72.0619 1275.33 70.7429 1276.91 69.2434C1278.49 67.7419 1279.42 66.0281 1279.42 64.1667C1279.42 62.3052 1278.49 60.5914 1276.91 59.0899C1275.33 57.5904 1273.06 56.2714 1270.29 55.178C1264.74 52.9903 1257.07 51.6667 1248.5 51.6667C1239.93 51.6667 1232.26 52.9903 1226.71 55.178C1223.94 56.2714 1221.67 57.5904 1220.09 59.0899C1218.51 60.5914 1217.58 62.3052 1217.58 64.1667ZM1221.62 64.1667C1221.62 63.0283 1222.37 61.8878 1223.88 60.7921C1225.37 59.7041 1227.52 58.7293 1230.11 57.9144C1235.28 56.2864 1242.07 55.3333 1248.5 55.3333C1254.93 55.3333 1261.72 56.2864 1266.89 57.9144C1269.48 58.7293 1271.63 59.7041 1273.12 60.7921C1274.63 61.8878 1275.37 63.0283 1275.37 64.1667C1275.37 65.305 1274.63 66.4455 1273.12 67.5412C1271.63 68.6292 1269.48 69.604 1266.89 70.4189C1261.72 72.0469 1254.93 73 1248.5 73C1242.07 73 1235.28 72.0469 1230.11 70.4189C1227.52 69.604 1225.37 68.6292 1223.88 67.5412C1222.37 66.4455 1221.62 65.305 1221.62 64.1667Z" fill="white" stroke="white"/>
<path d="M1217.58 74.8333C1217.58 76.6948 1218.51 78.4086 1220.09 79.9101C1221.67 81.4096 1223.94 82.7286 1226.71 83.822C1232.26 86.0097 1239.93 87.3333 1248.5 87.3333C1257.07 87.3333 1264.74 86.0097 1270.29 83.822C1273.06 82.7286 1275.33 81.4096 1276.91 79.9101C1278.49 78.4086 1279.42 76.6948 1279.42 74.8333V64.1667C1279.42 63.6576 1279.19 63.1851 1278.8 62.8479C1278.42 62.5126 1277.91 62.3333 1277.4 62.3333C1276.88 62.3333 1276.37 62.5126 1275.99 62.8479C1275.61 63.1851 1275.37 63.6576 1275.37 64.1667V74.8333C1275.37 75.9717 1274.63 77.1122 1273.12 78.2079C1271.63 79.2959 1269.48 80.2707 1266.89 81.0856C1261.72 82.7136 1254.93 83.6667 1248.5 83.6667C1242.07 83.6667 1235.28 82.7136 1230.11 81.0856C1227.52 80.2707 1225.37 79.2959 1223.88 78.2079C1222.37 77.1122 1221.62 75.9717 1221.62 74.8333V64.1667C1221.62 63.6576 1221.39 63.1851 1221.01 62.8479C1220.63 62.5126 1220.12 62.3333 1219.6 62.3333C1219.09 62.3333 1218.58 62.5126 1218.2 62.8479C1217.81 63.1851 1217.58 63.6576 1217.58 64.1667V74.8333Z" fill="white" stroke="white"/>
<path d="M1217.58 86.8333C1217.58 88.6948 1218.51 90.4086 1220.09 91.9101C1221.67 93.4095 1223.94 94.7286 1226.71 95.8219C1232.26 98.0097 1239.93 99.3333 1248.5 99.3333C1257.07 99.3333 1264.74 98.0097 1270.29 95.8219C1273.06 94.7286 1275.33 93.4095 1276.91 91.9101C1278.49 90.4086 1279.42 88.6948 1279.42 86.8333V74.8333C1279.42 74.3243 1279.19 73.8517 1278.8 73.5146C1278.42 73.1792 1277.91 73 1277.4 73C1276.88 73 1276.37 73.1792 1275.99 73.5146C1275.61 73.8517 1275.37 74.3243 1275.37 74.8333V86.8333C1275.37 87.9717 1274.63 89.1122 1273.12 90.2079C1271.63 91.2958 1269.48 92.2707 1266.89 93.0856C1261.72 94.7136 1254.93 95.6667 1248.5 95.6667C1242.07 95.6667 1235.28 94.7136 1230.11 93.0856C1227.52 92.2707 1225.37 91.2958 1223.88 90.2079C1222.37 89.1122 1221.62 87.9717 1221.62 86.8333V74.8333C1221.62 74.3243 1221.39 73.8517 1221.01 73.5146C1220.63 73.1792 1220.12 73 1219.6 73C1219.09 73 1218.58 73.1792 1218.2 73.5146C1217.81 73.8517 1217.58 74.3243 1217.58 74.8333V86.8333Z" fill="white" stroke="white"/>
<path d="M1217.58 98.8333C1217.58 100.695 1218.51 102.409 1220.09 103.91C1221.67 105.41 1223.94 106.729 1226.71 107.822C1232.26 110.01 1239.93 111.333 1248.5 111.333C1257.07 111.333 1264.74 110.01 1270.29 107.822C1273.06 106.729 1275.33 105.41 1276.91 103.91C1278.49 102.409 1279.42 100.695 1279.42 98.8333V86.8333C1279.42 86.3243 1279.19 85.8517 1278.8 85.5146C1278.42 85.1792 1277.91 85 1277.4 85C1276.88 85 1276.37 85.1792 1275.99 85.5146C1275.61 85.8517 1275.37 86.3243 1275.37 86.8333V98.8333C1275.37 99.9717 1274.63 101.112 1273.12 102.208C1271.63 103.296 1269.48 104.271 1266.89 105.086C1261.72 106.714 1254.93 107.667 1248.5 107.667C1242.07 107.667 1235.28 106.714 1230.11 105.086C1227.52 104.271 1225.37 103.296 1223.88 102.208C1222.37 101.112 1221.62 99.9717 1221.62 98.8333V86.8333C1221.62 86.3243 1221.39 85.8517 1221.01 85.5146C1220.63 85.1792 1220.12 85 1219.6 85C1219.09 85 1218.58 85.1792 1218.2 85.5146C1217.81 85.8517 1217.58 86.3243 1217.58 86.8333V98.8333Z" fill="white" stroke="white"/>
</svg>
