<svg width="1363" height="163" viewBox="0 0 1363 163" fill="none" xmlns="http://www.w3.org/2000/svg">
<path d="M0 15C0 6.71573 6.71573 0 15 0H37V163H15C6.71573 163 0 156.284 0 148V15Z" fill="#424242"/>
<rect width="1097" height="163" transform="translate(37)" fill="#F0F0F0"/>
<path d="M101.906 53.9219L94.3945 51.2383V48.0859L104.602 52.375V54.6367L101.906 53.9219ZM94.3945 56.1719L101.918 53.4297L104.602 52.7852V55.0352L94.3945 59.3242V56.1719ZM116.414 43.9375V61H112.898V43.9375H116.414ZM123.211 51.2266V53.9688H115.453V51.2266H123.211ZM124.031 43.9375V46.6914H115.453V43.9375H124.031ZM129.422 48.3203V61H126.035V48.3203H129.422ZM125.824 45.0156C125.824 44.5234 125.996 44.1172 126.34 43.7969C126.684 43.4766 127.145 43.3164 127.723 43.3164C128.293 43.3164 128.75 43.4766 129.094 43.7969C129.445 44.1172 129.621 44.5234 129.621 45.0156C129.621 45.5078 129.445 45.9141 129.094 46.2344C128.75 46.5547 128.293 46.7148 127.723 46.7148C127.145 46.7148 126.684 46.5547 126.34 46.2344C125.996 45.9141 125.824 45.5078 125.824 45.0156ZM135.516 51.0273V61H132.141V48.3203H135.305L135.516 51.0273ZM135.023 54.2148H134.109C134.109 53.2773 134.23 52.4336 134.473 51.6836C134.715 50.9258 135.055 50.2812 135.492 49.75C135.93 49.2109 136.449 48.8008 137.051 48.5195C137.66 48.2305 138.34 48.0859 139.09 48.0859C139.684 48.0859 140.227 48.1719 140.719 48.3438C141.211 48.5156 141.633 48.7891 141.984 49.1641C142.344 49.5391 142.617 50.0352 142.805 50.6523C143 51.2695 143.098 52.0234 143.098 52.9141V61H139.699V52.9023C139.699 52.3398 139.621 51.9023 139.465 51.5898C139.309 51.2773 139.078 51.0586 138.773 50.9336C138.477 50.8008 138.109 50.7344 137.672 50.7344C137.219 50.7344 136.824 50.8242 136.488 51.0039C136.16 51.1836 135.887 51.4336 135.668 51.7539C135.457 52.0664 135.297 52.4336 135.188 52.8555C135.078 53.2773 135.023 53.7305 135.023 54.2148ZM152.508 58.1406V52.4922C152.508 52.0859 152.441 51.7383 152.309 51.4492C152.176 51.1523 151.969 50.9219 151.688 50.7578C151.414 50.5938 151.059 50.5117 150.621 50.5117C150.246 50.5117 149.922 50.5781 149.648 50.7109C149.375 50.8359 149.164 51.0195 149.016 51.2617C148.867 51.4961 148.793 51.7734 148.793 52.0938H145.418C145.418 51.5547 145.543 51.043 145.793 50.5586C146.043 50.0742 146.406 49.6484 146.883 49.2812C147.359 48.9062 147.926 48.6133 148.582 48.4023C149.246 48.1914 149.988 48.0859 150.809 48.0859C151.793 48.0859 152.668 48.25 153.434 48.5781C154.199 48.9062 154.801 49.3984 155.238 50.0547C155.684 50.7109 155.906 51.5312 155.906 52.5156V57.9414C155.906 58.6367 155.949 59.207 156.035 59.6523C156.121 60.0898 156.246 60.4727 156.41 60.8008V61H153C152.836 60.6562 152.711 60.2266 152.625 59.7109C152.547 59.1875 152.508 58.6641 152.508 58.1406ZM152.953 53.2773L152.977 55.1875H151.09C150.645 55.1875 150.258 55.2383 149.93 55.3398C149.602 55.4414 149.332 55.5859 149.121 55.7734C148.91 55.9531 148.754 56.1641 148.652 56.4062C148.559 56.6484 148.512 56.9141 148.512 57.2031C148.512 57.4922 148.578 57.7539 148.711 57.9883C148.844 58.2148 149.035 58.3945 149.285 58.5273C149.535 58.6523 149.828 58.7148 150.164 58.7148C150.672 58.7148 151.113 58.6133 151.488 58.4102C151.863 58.207 152.152 57.957 152.355 57.6602C152.566 57.3633 152.676 57.082 152.684 56.8164L153.574 58.2461C153.449 58.5664 153.277 58.8984 153.059 59.2422C152.848 59.5859 152.578 59.9102 152.25 60.2148C151.922 60.5117 151.527 60.7578 151.066 60.9531C150.605 61.1406 150.059 61.2344 149.426 61.2344C148.621 61.2344 147.891 61.0742 147.234 60.7539C146.586 60.4258 146.07 59.9766 145.688 59.4062C145.312 58.8281 145.125 58.1719 145.125 57.4375C145.125 56.7734 145.25 56.1836 145.5 55.668C145.75 55.1523 146.117 54.7188 146.602 54.3672C147.094 54.0078 147.707 53.7383 148.441 53.5586C149.176 53.3711 150.027 53.2773 150.996 53.2773H152.953ZM161.812 51.0273V61H158.438V48.3203H161.602L161.812 51.0273ZM161.32 54.2148H160.406C160.406 53.2773 160.527 52.4336 160.77 51.6836C161.012 50.9258 161.352 50.2812 161.789 49.75C162.227 49.2109 162.746 48.8008 163.348 48.5195C163.957 48.2305 164.637 48.0859 165.387 48.0859C165.98 48.0859 166.523 48.1719 167.016 48.3438C167.508 48.5156 167.93 48.7891 168.281 49.1641C168.641 49.5391 168.914 50.0352 169.102 50.6523C169.297 51.2695 169.395 52.0234 169.395 52.9141V61H165.996V52.9023C165.996 52.3398 165.918 51.9023 165.762 51.5898C165.605 51.2773 165.375 51.0586 165.07 50.9336C164.773 50.8008 164.406 50.7344 163.969 50.7344C163.516 50.7344 163.121 50.8242 162.785 51.0039C162.457 51.1836 162.184 51.4336 161.965 51.7539C161.754 52.0664 161.594 52.4336 161.484 52.8555C161.375 53.2773 161.32 53.7305 161.32 54.2148ZM177.199 58.5977C177.613 58.5977 177.98 58.5195 178.301 58.3633C178.621 58.1992 178.871 57.9727 179.051 57.6836C179.238 57.3867 179.336 57.0391 179.344 56.6406H182.52C182.512 57.5312 182.273 58.3242 181.805 59.0195C181.336 59.707 180.707 60.25 179.918 60.6484C179.129 61.0391 178.246 61.2344 177.27 61.2344C176.285 61.2344 175.426 61.0703 174.691 60.7422C173.965 60.4141 173.359 59.9609 172.875 59.3828C172.391 58.7969 172.027 58.1172 171.785 57.3438C171.543 56.5625 171.422 55.7266 171.422 54.8359V54.4961C171.422 53.5977 171.543 52.7617 171.785 51.9883C172.027 51.207 172.391 50.5273 172.875 49.9492C173.359 49.3633 173.965 48.9062 174.691 48.5781C175.418 48.25 176.27 48.0859 177.246 48.0859C178.285 48.0859 179.195 48.2852 179.977 48.6836C180.766 49.082 181.383 49.6523 181.828 50.3945C182.281 51.1289 182.512 52 182.52 53.0078H179.344C179.336 52.5859 179.246 52.2031 179.074 51.8594C178.91 51.5156 178.668 51.2422 178.348 51.0391C178.035 50.8281 177.648 50.7227 177.188 50.7227C176.695 50.7227 176.293 50.8281 175.98 51.0391C175.668 51.2422 175.426 51.5234 175.254 51.8828C175.082 52.2344 174.961 52.6367 174.891 53.0898C174.828 53.5352 174.797 54.0039 174.797 54.4961V54.8359C174.797 55.3281 174.828 55.8008 174.891 56.2539C174.953 56.707 175.07 57.1094 175.242 57.4609C175.422 57.8125 175.668 58.0898 175.98 58.293C176.293 58.4961 176.699 58.5977 177.199 58.5977ZM188.039 48.3203V61H184.652V48.3203H188.039ZM184.441 45.0156C184.441 44.5234 184.613 44.1172 184.957 43.7969C185.301 43.4766 185.762 43.3164 186.34 43.3164C186.91 43.3164 187.367 43.4766 187.711 43.7969C188.062 44.1172 188.238 44.5234 188.238 45.0156C188.238 45.5078 188.062 45.9141 187.711 46.2344C187.367 46.5547 186.91 46.7148 186.34 46.7148C185.762 46.7148 185.301 46.5547 184.957 46.2344C184.613 45.9141 184.441 45.5078 184.441 45.0156ZM197.672 58.1406V52.4922C197.672 52.0859 197.605 51.7383 197.473 51.4492C197.34 51.1523 197.133 50.9219 196.852 50.7578C196.578 50.5938 196.223 50.5117 195.785 50.5117C195.41 50.5117 195.086 50.5781 194.812 50.7109C194.539 50.8359 194.328 51.0195 194.18 51.2617C194.031 51.4961 193.957 51.7734 193.957 52.0938H190.582C190.582 51.5547 190.707 51.043 190.957 50.5586C191.207 50.0742 191.57 49.6484 192.047 49.2812C192.523 48.9062 193.09 48.6133 193.746 48.4023C194.41 48.1914 195.152 48.0859 195.973 48.0859C196.957 48.0859 197.832 48.25 198.598 48.5781C199.363 48.9062 199.965 49.3984 200.402 50.0547C200.848 50.7109 201.07 51.5312 201.07 52.5156V57.9414C201.07 58.6367 201.113 59.207 201.199 59.6523C201.285 60.0898 201.41 60.4727 201.574 60.8008V61H198.164C198 60.6562 197.875 60.2266 197.789 59.7109C197.711 59.1875 197.672 58.6641 197.672 58.1406ZM198.117 53.2773L198.141 55.1875H196.254C195.809 55.1875 195.422 55.2383 195.094 55.3398C194.766 55.4414 194.496 55.5859 194.285 55.7734C194.074 55.9531 193.918 56.1641 193.816 56.4062C193.723 56.6484 193.676 56.9141 193.676 57.2031C193.676 57.4922 193.742 57.7539 193.875 57.9883C194.008 58.2148 194.199 58.3945 194.449 58.5273C194.699 58.6523 194.992 58.7148 195.328 58.7148C195.836 58.7148 196.277 58.6133 196.652 58.4102C197.027 58.207 197.316 57.957 197.52 57.6602C197.73 57.3633 197.84 57.082 197.848 56.8164L198.738 58.2461C198.613 58.5664 198.441 58.8984 198.223 59.2422C198.012 59.5859 197.742 59.9102 197.414 60.2148C197.086 60.5117 196.691 60.7578 196.23 60.9531C195.77 61.1406 195.223 61.2344 194.59 61.2344C193.785 61.2344 193.055 61.0742 192.398 60.7539C191.75 60.4258 191.234 59.9766 190.852 59.4062C190.477 58.8281 190.289 58.1719 190.289 57.4375C190.289 56.7734 190.414 56.1836 190.664 55.668C190.914 55.1523 191.281 54.7188 191.766 54.3672C192.258 54.0078 192.871 53.7383 193.605 53.5586C194.34 53.3711 195.191 53.2773 196.16 53.2773H198.117ZM207.234 43V61H203.848V43H207.234ZM216.211 43.9375H222.574C223.879 43.9375 225 44.1328 225.938 44.5234C226.883 44.9141 227.609 45.4922 228.117 46.2578C228.625 47.0234 228.879 47.9648 228.879 49.082C228.879 49.9961 228.723 50.7812 228.41 51.4375C228.105 52.0859 227.672 52.6289 227.109 53.0664C226.555 53.4961 225.902 53.8398 225.152 54.0977L224.039 54.6836H218.508L218.484 51.9414H222.598C223.215 51.9414 223.727 51.832 224.133 51.6133C224.539 51.3945 224.844 51.0898 225.047 50.6992C225.258 50.3086 225.363 49.8555 225.363 49.3398C225.363 48.793 225.262 48.3203 225.059 47.9219C224.855 47.5234 224.547 47.2188 224.133 47.0078C223.719 46.7969 223.199 46.6914 222.574 46.6914H219.727V61H216.211V43.9375ZM225.75 61L221.859 53.3945L225.574 53.3711L229.512 60.8359V61H225.75ZM234.938 48.3203V61H231.551V48.3203H234.938ZM231.34 45.0156C231.34 44.5234 231.512 44.1172 231.855 43.7969C232.199 43.4766 232.66 43.3164 233.238 43.3164C233.809 43.3164 234.266 43.4766 234.609 43.7969C234.961 44.1172 235.137 44.5234 235.137 45.0156C235.137 45.5078 234.961 45.9141 234.609 46.2344C234.266 46.5547 233.809 46.7148 233.238 46.7148C232.66 46.7148 232.199 46.5547 231.855 46.2344C231.512 45.9141 231.34 45.5078 231.34 45.0156ZM244.582 57.4961C244.582 57.2539 244.512 57.0352 244.371 56.8398C244.23 56.6445 243.969 56.4648 243.586 56.3008C243.211 56.1289 242.668 55.9727 241.957 55.832C241.316 55.6914 240.719 55.5156 240.164 55.3047C239.617 55.0859 239.141 54.8242 238.734 54.5195C238.336 54.2148 238.023 53.8555 237.797 53.4414C237.57 53.0195 237.457 52.5391 237.457 52C237.457 51.4688 237.57 50.9688 237.797 50.5C238.031 50.0312 238.363 49.6172 238.793 49.2578C239.23 48.8906 239.762 48.6055 240.387 48.4023C241.02 48.1914 241.73 48.0859 242.52 48.0859C243.621 48.0859 244.566 48.2617 245.355 48.6133C246.152 48.9648 246.762 49.4492 247.184 50.0664C247.613 50.6758 247.828 51.3711 247.828 52.1523H244.453C244.453 51.8242 244.383 51.5312 244.242 51.2734C244.109 51.0078 243.898 50.8008 243.609 50.6523C243.328 50.4961 242.961 50.418 242.508 50.418C242.133 50.418 241.809 50.4844 241.535 50.6172C241.262 50.7422 241.051 50.9141 240.902 51.1328C240.762 51.3438 240.691 51.5781 240.691 51.8359C240.691 52.0312 240.73 52.207 240.809 52.3633C240.895 52.5117 241.031 52.6484 241.219 52.7734C241.406 52.8984 241.648 53.0156 241.945 53.125C242.25 53.2266 242.625 53.3203 243.07 53.4062C243.984 53.5938 244.801 53.8398 245.52 54.1445C246.238 54.4414 246.809 54.8477 247.23 55.3633C247.652 55.8711 247.863 56.5391 247.863 57.3672C247.863 57.9297 247.738 58.4453 247.488 58.9141C247.238 59.3828 246.879 59.793 246.41 60.1445C245.941 60.4883 245.379 60.7578 244.723 60.9531C244.074 61.1406 243.344 61.2344 242.531 61.2344C241.352 61.2344 240.352 61.0234 239.531 60.6016C238.719 60.1797 238.102 59.6445 237.68 58.9961C237.266 58.3398 237.059 57.668 237.059 56.9805H240.258C240.273 57.4414 240.391 57.8125 240.609 58.0938C240.836 58.375 241.121 58.5781 241.465 58.7031C241.816 58.8281 242.195 58.8906 242.602 58.8906C243.039 58.8906 243.402 58.832 243.691 58.7148C243.98 58.5898 244.199 58.4258 244.348 58.2227C244.504 58.0117 244.582 57.7695 244.582 57.4961ZM253.43 42.9883V61H250.055V42.9883H253.43ZM261.422 48.3203L255.914 54.6016L252.961 57.5898L251.73 55.1523L254.074 52.1758L257.367 48.3203H261.422ZM257.918 61L254.168 55.1406L256.5 53.1016L261.809 61H257.918ZM269.062 43.9375H275.426C276.73 43.9375 277.852 44.1328 278.789 44.5234C279.734 44.9141 280.461 45.4922 280.969 46.2578C281.477 47.0234 281.73 47.9648 281.73 49.082C281.73 49.9961 281.574 50.7812 281.262 51.4375C280.957 52.0859 280.523 52.6289 279.961 53.0664C279.406 53.4961 278.754 53.8398 278.004 54.0977L276.891 54.6836H271.359L271.336 51.9414H275.449C276.066 51.9414 276.578 51.832 276.984 51.6133C277.391 51.3945 277.695 51.0898 277.898 50.6992C278.109 50.3086 278.215 49.8555 278.215 49.3398C278.215 48.793 278.113 48.3203 277.91 47.9219C277.707 47.5234 277.398 47.2188 276.984 47.0078C276.57 46.7969 276.051 46.6914 275.426 46.6914H272.578V61H269.062V43.9375ZM278.602 61L274.711 53.3945L278.426 53.3711L282.363 60.8359V61H278.602ZM291.07 58.1406V52.4922C291.07 52.0859 291.004 51.7383 290.871 51.4492C290.738 51.1523 290.531 50.9219 290.25 50.7578C289.977 50.5938 289.621 50.5117 289.184 50.5117C288.809 50.5117 288.484 50.5781 288.211 50.7109C287.938 50.8359 287.727 51.0195 287.578 51.2617C287.43 51.4961 287.355 51.7734 287.355 52.0938H283.98C283.98 51.5547 284.105 51.043 284.355 50.5586C284.605 50.0742 284.969 49.6484 285.445 49.2812C285.922 48.9062 286.488 48.6133 287.145 48.4023C287.809 48.1914 288.551 48.0859 289.371 48.0859C290.355 48.0859 291.23 48.25 291.996 48.5781C292.762 48.9062 293.363 49.3984 293.801 50.0547C294.246 50.7109 294.469 51.5312 294.469 52.5156V57.9414C294.469 58.6367 294.512 59.207 294.598 59.6523C294.684 60.0898 294.809 60.4727 294.973 60.8008V61H291.562C291.398 60.6562 291.273 60.2266 291.188 59.7109C291.109 59.1875 291.07 58.6641 291.07 58.1406ZM291.516 53.2773L291.539 55.1875H289.652C289.207 55.1875 288.82 55.2383 288.492 55.3398C288.164 55.4414 287.895 55.5859 287.684 55.7734C287.473 55.9531 287.316 56.1641 287.215 56.4062C287.121 56.6484 287.074 56.9141 287.074 57.2031C287.074 57.4922 287.141 57.7539 287.273 57.9883C287.406 58.2148 287.598 58.3945 287.848 58.5273C288.098 58.6523 288.391 58.7148 288.727 58.7148C289.234 58.7148 289.676 58.6133 290.051 58.4102C290.426 58.207 290.715 57.957 290.918 57.6602C291.129 57.3633 291.238 57.082 291.246 56.8164L292.137 58.2461C292.012 58.5664 291.84 58.8984 291.621 59.2422C291.41 59.5859 291.141 59.9102 290.812 60.2148C290.484 60.5117 290.09 60.7578 289.629 60.9531C289.168 61.1406 288.621 61.2344 287.988 61.2344C287.184 61.2344 286.453 61.0742 285.797 60.7539C285.148 60.4258 284.633 59.9766 284.25 59.4062C283.875 58.8281 283.688 58.1719 283.688 57.4375C283.688 56.7734 283.812 56.1836 284.062 55.668C284.312 55.1523 284.68 54.7188 285.164 54.3672C285.656 54.0078 286.27 53.7383 287.004 53.5586C287.738 53.3711 288.59 53.2773 289.559 53.2773H291.516ZM304.559 58.2344V43H307.957V61H304.898L304.559 58.2344ZM296.543 54.8125V54.5664C296.543 53.5977 296.652 52.7188 296.871 51.9297C297.09 51.1328 297.41 50.4492 297.832 49.8789C298.254 49.3086 298.773 48.8672 299.391 48.5547C300.008 48.2422 300.711 48.0859 301.5 48.0859C302.242 48.0859 302.891 48.2422 303.445 48.5547C304.008 48.8672 304.484 49.3125 304.875 49.8906C305.273 50.4609 305.594 51.1367 305.836 51.918C306.078 52.6914 306.254 53.5391 306.363 54.4609V55C306.254 55.8828 306.078 56.7031 305.836 57.4609C305.594 58.2188 305.273 58.8828 304.875 59.4531C304.484 60.0156 304.008 60.4531 303.445 60.7656C302.883 61.0781 302.227 61.2344 301.477 61.2344C300.688 61.2344 299.984 61.0742 299.367 60.7539C298.758 60.4336 298.242 59.9844 297.82 59.4062C297.406 58.8281 297.09 58.1484 296.871 57.3672C296.652 56.5859 296.543 55.7344 296.543 54.8125ZM299.918 54.5664V54.8125C299.918 55.3359 299.957 55.8242 300.035 56.2773C300.121 56.7305 300.258 57.1328 300.445 57.4844C300.641 57.8281 300.891 58.0977 301.195 58.293C301.508 58.4805 301.887 58.5742 302.332 58.5742C302.91 58.5742 303.387 58.4453 303.762 58.1875C304.137 57.9219 304.422 57.5586 304.617 57.0977C304.82 56.6367 304.938 56.1055 304.969 55.5039V53.9688C304.945 53.4766 304.875 53.0352 304.758 52.6445C304.648 52.2461 304.484 51.9062 304.266 51.625C304.055 51.3438 303.789 51.125 303.469 50.9688C303.156 50.8125 302.785 50.7344 302.355 50.7344C301.918 50.7344 301.543 50.8359 301.23 51.0391C300.918 51.2344 300.664 51.5039 300.469 51.8477C300.281 52.1914 300.141 52.5977 300.047 53.0664C299.961 53.5273 299.918 54.0273 299.918 54.5664ZM317.438 58.1406V52.4922C317.438 52.0859 317.371 51.7383 317.238 51.4492C317.105 51.1523 316.898 50.9219 316.617 50.7578C316.344 50.5938 315.988 50.5117 315.551 50.5117C315.176 50.5117 314.852 50.5781 314.578 50.7109C314.305 50.8359 314.094 51.0195 313.945 51.2617C313.797 51.4961 313.723 51.7734 313.723 52.0938H310.348C310.348 51.5547 310.473 51.043 310.723 50.5586C310.973 50.0742 311.336 49.6484 311.812 49.2812C312.289 48.9062 312.855 48.6133 313.512 48.4023C314.176 48.1914 314.918 48.0859 315.738 48.0859C316.723 48.0859 317.598 48.25 318.363 48.5781C319.129 48.9062 319.73 49.3984 320.168 50.0547C320.613 50.7109 320.836 51.5312 320.836 52.5156V57.9414C320.836 58.6367 320.879 59.207 320.965 59.6523C321.051 60.0898 321.176 60.4727 321.34 60.8008V61H317.93C317.766 60.6562 317.641 60.2266 317.555 59.7109C317.477 59.1875 317.438 58.6641 317.438 58.1406ZM317.883 53.2773L317.906 55.1875H316.02C315.574 55.1875 315.188 55.2383 314.859 55.3398C314.531 55.4414 314.262 55.5859 314.051 55.7734C313.84 55.9531 313.684 56.1641 313.582 56.4062C313.488 56.6484 313.441 56.9141 313.441 57.2031C313.441 57.4922 313.508 57.7539 313.641 57.9883C313.773 58.2148 313.965 58.3945 314.215 58.5273C314.465 58.6523 314.758 58.7148 315.094 58.7148C315.602 58.7148 316.043 58.6133 316.418 58.4102C316.793 58.207 317.082 57.957 317.285 57.6602C317.496 57.3633 317.605 57.082 317.613 56.8164L318.504 58.2461C318.379 58.5664 318.207 58.8984 317.988 59.2422C317.777 59.5859 317.508 59.9102 317.18 60.2148C316.852 60.5117 316.457 60.7578 315.996 60.9531C315.535 61.1406 314.988 61.2344 314.355 61.2344C313.551 61.2344 312.82 61.0742 312.164 60.7539C311.516 60.4258 311 59.9766 310.617 59.4062C310.242 58.8281 310.055 58.1719 310.055 57.4375C310.055 56.7734 310.18 56.1836 310.43 55.668C310.68 55.1523 311.047 54.7188 311.531 54.3672C312.023 54.0078 312.637 53.7383 313.371 53.5586C314.105 53.3711 314.957 53.2773 315.926 53.2773H317.883ZM326.812 51.0859V61H323.438V48.3203H326.613L326.812 51.0859ZM330.633 48.2383L330.574 51.3672C330.41 51.3438 330.211 51.3242 329.977 51.3086C329.75 51.2852 329.543 51.2734 329.355 51.2734C328.879 51.2734 328.465 51.3359 328.113 51.4609C327.77 51.5781 327.48 51.7539 327.246 51.9883C327.02 52.2227 326.848 52.5078 326.73 52.8438C326.621 53.1797 326.559 53.5625 326.543 53.9922L325.863 53.7812C325.863 52.9609 325.945 52.207 326.109 51.5195C326.273 50.8242 326.512 50.2188 326.824 49.7031C327.145 49.1875 327.535 48.7891 327.996 48.5078C328.457 48.2266 328.984 48.0859 329.578 48.0859C329.766 48.0859 329.957 48.1016 330.152 48.1328C330.348 48.1562 330.508 48.1914 330.633 48.2383Z" fill="#888888"/>
<path d="M104.344 84.875V119H96.1406V84.875H104.344ZM117.727 99.0078V119H109.828V93.6406H117.234L117.727 99.0078ZM116.766 105.453L114.961 105.5C114.961 103.719 115.172 102.078 115.594 100.578C116.016 99.0781 116.641 97.7734 117.469 96.6641C118.297 95.5547 119.312 94.6953 120.516 94.0859C121.734 93.4766 123.141 93.1719 124.734 93.1719C125.844 93.1719 126.852 93.3438 127.758 93.6875C128.664 94.0156 129.445 94.5391 130.102 95.2578C130.758 95.9609 131.258 96.8828 131.602 98.0234C131.961 99.1484 132.141 100.5 132.141 102.078V119H124.242V103.086C124.242 102.008 124.117 101.195 123.867 100.648C123.633 100.102 123.289 99.7344 122.836 99.5469C122.383 99.3594 121.828 99.2656 121.172 99.2656C120.484 99.2656 119.867 99.4219 119.32 99.7344C118.773 100.047 118.305 100.484 117.914 101.047C117.539 101.594 117.25 102.242 117.047 102.992C116.859 103.742 116.766 104.562 116.766 105.453ZM131.25 105.453L129.047 105.5C129.047 103.719 129.242 102.078 129.633 100.578C130.039 99.0781 130.641 97.7734 131.438 96.6641C132.25 95.5547 133.258 94.6953 134.461 94.0859C135.664 93.4766 137.062 93.1719 138.656 93.1719C139.812 93.1719 140.875 93.3438 141.844 93.6875C142.812 94.0312 143.648 94.5859 144.352 95.3516C145.055 96.1172 145.602 97.1328 145.992 98.3984C146.383 99.6484 146.578 101.195 146.578 103.039V119H138.656V103.039C138.656 101.992 138.531 101.203 138.281 100.672C138.047 100.125 137.703 99.7578 137.25 99.5703C136.797 99.3672 136.258 99.2656 135.633 99.2656C134.883 99.2656 134.234 99.4219 133.688 99.7344C133.141 100.047 132.68 100.484 132.305 101.047C131.945 101.594 131.68 102.242 131.508 102.992C131.336 103.742 131.25 104.562 131.25 105.453ZM159.07 98.5156V128.75H151.172V93.6406H158.531L159.07 98.5156ZM174.633 106.016V106.508C174.633 108.352 174.422 110.062 174 111.641C173.578 113.219 172.953 114.594 172.125 115.766C171.297 116.938 170.266 117.852 169.031 118.508C167.812 119.148 166.398 119.469 164.789 119.469C163.273 119.469 161.969 119.133 160.875 118.461C159.781 117.789 158.867 116.859 158.133 115.672C157.398 114.484 156.805 113.125 156.352 111.594C155.898 110.062 155.539 108.445 155.273 106.742V106.109C155.539 104.281 155.898 102.586 156.352 101.023C156.805 99.4453 157.398 98.0703 158.133 96.8984C158.867 95.7266 159.773 94.8125 160.852 94.1562C161.945 93.5 163.25 93.1719 164.766 93.1719C166.375 93.1719 167.789 93.4766 169.008 94.0859C170.242 94.6953 171.273 95.5703 172.102 96.7109C172.945 97.8359 173.578 99.1875 174 100.766C174.422 102.344 174.633 104.094 174.633 106.016ZM166.734 106.508V106.016C166.734 105.031 166.664 104.133 166.523 103.32C166.383 102.492 166.156 101.773 165.844 101.164C165.547 100.555 165.148 100.086 164.648 99.7578C164.148 99.4297 163.531 99.2656 162.797 99.2656C161.953 99.2656 161.242 99.3984 160.664 99.6641C160.102 99.9141 159.648 100.305 159.305 100.836C158.977 101.352 158.742 102 158.602 102.781C158.477 103.547 158.422 104.445 158.438 105.477V107.398C158.406 108.586 158.523 109.633 158.789 110.539C159.055 111.43 159.516 112.125 160.172 112.625C160.828 113.125 161.719 113.375 162.844 113.375C163.594 113.375 164.219 113.203 164.719 112.859C165.219 112.5 165.617 112.008 165.914 111.383C166.211 110.742 166.422 110.008 166.547 109.18C166.672 108.352 166.734 107.461 166.734 106.508ZM186.492 83V119H178.57V83H186.492ZM203.648 119.469C201.586 119.469 199.742 119.148 198.117 118.508C196.492 117.852 195.117 116.953 193.992 115.812C192.883 114.672 192.031 113.359 191.438 111.875C190.859 110.391 190.57 108.82 190.57 107.164V106.273C190.57 104.414 190.828 102.695 191.344 101.117C191.859 99.5234 192.625 98.1328 193.641 96.9453C194.656 95.7578 195.93 94.8359 197.461 94.1797C198.992 93.5078 200.773 93.1719 202.805 93.1719C204.602 93.1719 206.211 93.4609 207.633 94.0391C209.055 94.6172 210.258 95.4453 211.242 96.5234C212.242 97.6016 213 98.9062 213.516 100.438C214.047 101.969 214.312 103.688 214.312 105.594V108.805H193.594V103.859H206.602V103.25C206.617 102.406 206.469 101.688 206.156 101.094C205.859 100.5 205.422 100.047 204.844 99.7344C204.266 99.4219 203.562 99.2656 202.734 99.2656C201.875 99.2656 201.164 99.4531 200.602 99.8281C200.055 100.203 199.625 100.719 199.312 101.375C199.016 102.016 198.805 102.758 198.68 103.602C198.555 104.445 198.492 105.336 198.492 106.273V107.164C198.492 108.102 198.617 108.953 198.867 109.719C199.133 110.484 199.508 111.141 199.992 111.688C200.492 112.219 201.086 112.633 201.773 112.93C202.477 113.227 203.273 113.375 204.164 113.375C205.242 113.375 206.305 113.172 207.352 112.766C208.398 112.359 209.297 111.688 210.047 110.75L213.633 115.016C213.117 115.75 212.383 116.461 211.43 117.148C210.492 117.836 209.367 118.398 208.055 118.836C206.742 119.258 205.273 119.469 203.648 119.469ZM225.492 99.0078V119H217.594V93.6406H225L225.492 99.0078ZM224.531 105.453L222.727 105.5C222.727 103.719 222.938 102.078 223.359 100.578C223.781 99.0781 224.406 97.7734 225.234 96.6641C226.062 95.5547 227.078 94.6953 228.281 94.0859C229.5 93.4766 230.906 93.1719 232.5 93.1719C233.609 93.1719 234.617 93.3438 235.523 93.6875C236.43 94.0156 237.211 94.5391 237.867 95.2578C238.523 95.9609 239.023 96.8828 239.367 98.0234C239.727 99.1484 239.906 100.5 239.906 102.078V119H232.008V103.086C232.008 102.008 231.883 101.195 231.633 100.648C231.398 100.102 231.055 99.7344 230.602 99.5469C230.148 99.3594 229.594 99.2656 228.938 99.2656C228.25 99.2656 227.633 99.4219 227.086 99.7344C226.539 100.047 226.07 100.484 225.68 101.047C225.305 101.594 225.016 102.242 224.812 102.992C224.625 103.742 224.531 104.562 224.531 105.453ZM239.016 105.453L236.812 105.5C236.812 103.719 237.008 102.078 237.398 100.578C237.805 99.0781 238.406 97.7734 239.203 96.6641C240.016 95.5547 241.023 94.6953 242.227 94.0859C243.43 93.4766 244.828 93.1719 246.422 93.1719C247.578 93.1719 248.641 93.3438 249.609 93.6875C250.578 94.0312 251.414 94.5859 252.117 95.3516C252.82 96.1172 253.367 97.1328 253.758 98.3984C254.148 99.6484 254.344 101.195 254.344 103.039V119H246.422V103.039C246.422 101.992 246.297 101.203 246.047 100.672C245.812 100.125 245.469 99.7578 245.016 99.5703C244.562 99.3672 244.023 99.2656 243.398 99.2656C242.648 99.2656 242 99.4219 241.453 99.7344C240.906 100.047 240.445 100.484 240.07 101.047C239.711 101.594 239.445 102.242 239.273 102.992C239.102 103.742 239.016 104.562 239.016 105.453ZM271.148 119.469C269.086 119.469 267.242 119.148 265.617 118.508C263.992 117.852 262.617 116.953 261.492 115.812C260.383 114.672 259.531 113.359 258.938 111.875C258.359 110.391 258.07 108.82 258.07 107.164V106.273C258.07 104.414 258.328 102.695 258.844 101.117C259.359 99.5234 260.125 98.1328 261.141 96.9453C262.156 95.7578 263.43 94.8359 264.961 94.1797C266.492 93.5078 268.273 93.1719 270.305 93.1719C272.102 93.1719 273.711 93.4609 275.133 94.0391C276.555 94.6172 277.758 95.4453 278.742 96.5234C279.742 97.6016 280.5 98.9062 281.016 100.438C281.547 101.969 281.812 103.688 281.812 105.594V108.805H261.094V103.859H274.102V103.25C274.117 102.406 273.969 101.688 273.656 101.094C273.359 100.5 272.922 100.047 272.344 99.7344C271.766 99.4219 271.062 99.2656 270.234 99.2656C269.375 99.2656 268.664 99.4531 268.102 99.8281C267.555 100.203 267.125 100.719 266.812 101.375C266.516 102.016 266.305 102.758 266.18 103.602C266.055 104.445 265.992 105.336 265.992 106.273V107.164C265.992 108.102 266.117 108.953 266.367 109.719C266.633 110.484 267.008 111.141 267.492 111.688C267.992 112.219 268.586 112.633 269.273 112.93C269.977 113.227 270.773 113.375 271.664 113.375C272.742 113.375 273.805 113.172 274.852 112.766C275.898 112.359 276.797 111.688 277.547 110.75L281.133 115.016C280.617 115.75 279.883 116.461 278.93 117.148C277.992 117.836 276.867 118.398 275.555 118.836C274.242 119.258 272.773 119.469 271.148 119.469ZM292.781 99.0547V119H284.883V93.6406H292.289L292.781 99.0547ZM291.844 105.453L289.992 105.5C289.992 103.562 290.227 101.836 290.695 100.32C291.164 98.7891 291.828 97.4922 292.688 96.4297C293.547 95.3672 294.57 94.5625 295.758 94.0156C296.961 93.4531 298.297 93.1719 299.766 93.1719C300.938 93.1719 302.008 93.3438 302.977 93.6875C303.961 94.0312 304.805 94.5859 305.508 95.3516C306.227 96.1172 306.773 97.1328 307.148 98.3984C307.539 99.6484 307.734 101.195 307.734 103.039V119H299.789V103.016C299.789 102 299.648 101.227 299.367 100.695C299.086 100.148 298.68 99.7734 298.148 99.5703C297.617 99.3672 296.969 99.2656 296.203 99.2656C295.391 99.2656 294.703 99.4219 294.141 99.7344C293.578 100.047 293.125 100.484 292.781 101.047C292.453 101.594 292.211 102.242 292.055 102.992C291.914 103.742 291.844 104.562 291.844 105.453ZM325.477 93.6406V99.125H310.195V93.6406H325.477ZM313.406 87.3359H321.305V110.727C321.305 111.398 321.383 111.922 321.539 112.297C321.695 112.656 321.961 112.914 322.336 113.07C322.727 113.211 323.242 113.281 323.883 113.281C324.336 113.281 324.711 113.273 325.008 113.258C325.305 113.227 325.586 113.188 325.852 113.141V118.789C325.18 119.008 324.477 119.172 323.742 119.281C323.008 119.406 322.227 119.469 321.398 119.469C319.711 119.469 318.266 119.203 317.062 118.672C315.875 118.141 314.969 117.305 314.344 116.164C313.719 115.023 313.406 113.539 313.406 111.711V87.3359ZM341.789 112.625V102.172C341.789 101.453 341.688 100.836 341.484 100.32C341.281 99.8047 340.961 99.4062 340.523 99.125C340.086 98.8281 339.5 98.6797 338.766 98.6797C338.172 98.6797 337.664 98.7812 337.242 98.9844C336.82 99.1875 336.5 99.4922 336.281 99.8984C336.062 100.305 335.953 100.82 335.953 101.445H328.055C328.055 100.273 328.312 99.1875 328.828 98.1875C329.359 97.1719 330.109 96.2891 331.078 95.5391C332.062 94.7891 333.234 94.2109 334.594 93.8047C335.969 93.3828 337.5 93.1719 339.188 93.1719C341.203 93.1719 343 93.5078 344.578 94.1797C346.172 94.8516 347.43 95.8594 348.352 97.2031C349.273 98.5312 349.734 100.203 349.734 102.219V112.602C349.734 114.258 349.828 115.516 350.016 116.375C350.203 117.219 350.469 117.961 350.812 118.602V119H342.891C342.516 118.219 342.234 117.266 342.047 116.141C341.875 115 341.789 113.828 341.789 112.625ZM342.75 103.508L342.797 107.727H339.305C338.57 107.727 337.945 107.828 337.43 108.031C336.93 108.234 336.523 108.516 336.211 108.875C335.914 109.219 335.695 109.609 335.555 110.047C335.43 110.484 335.367 110.945 335.367 111.43C335.367 111.898 335.477 112.32 335.695 112.695C335.93 113.055 336.242 113.336 336.633 113.539C337.023 113.742 337.461 113.844 337.945 113.844C338.82 113.844 339.562 113.68 340.172 113.352C340.797 113.008 341.273 112.594 341.602 112.109C341.93 111.625 342.094 111.172 342.094 110.75L343.828 113.984C343.516 114.609 343.156 115.242 342.75 115.883C342.359 116.523 341.867 117.117 341.273 117.664C340.695 118.195 339.984 118.633 339.141 118.977C338.297 119.305 337.273 119.469 336.07 119.469C334.508 119.469 333.07 119.148 331.758 118.508C330.461 117.867 329.422 116.977 328.641 115.836C327.859 114.68 327.469 113.352 327.469 111.852C327.469 110.539 327.703 109.367 328.172 108.336C328.656 107.305 329.383 106.43 330.352 105.711C331.32 104.992 332.555 104.445 334.055 104.07C335.555 103.695 337.32 103.508 339.352 103.508H342.75ZM367.477 93.6406V99.125H352.195V93.6406H367.477ZM355.406 87.3359H363.305V110.727C363.305 111.398 363.383 111.922 363.539 112.297C363.695 112.656 363.961 112.914 364.336 113.07C364.727 113.211 365.242 113.281 365.883 113.281C366.336 113.281 366.711 113.273 367.008 113.258C367.305 113.227 367.586 113.188 367.852 113.141V118.789C367.18 119.008 366.477 119.172 365.742 119.281C365.008 119.406 364.227 119.469 363.398 119.469C361.711 119.469 360.266 119.203 359.062 118.672C357.875 118.141 356.969 117.305 356.344 116.164C355.719 115.023 355.406 113.539 355.406 111.711V87.3359ZM378.961 93.6406V119H371.039V93.6406H378.961ZM370.57 87.1016C370.57 85.9766 370.977 85.0547 371.789 84.3359C372.602 83.6172 373.656 83.2578 374.953 83.2578C376.25 83.2578 377.305 83.6172 378.117 84.3359C378.93 85.0547 379.336 85.9766 379.336 87.1016C379.336 88.2266 378.93 89.1484 378.117 89.8672C377.305 90.5859 376.25 90.9453 374.953 90.9453C373.656 90.9453 372.602 90.5859 371.789 89.8672C370.977 89.1484 370.57 88.2266 370.57 87.1016ZM382.852 106.578V106.086C382.852 104.227 383.117 102.516 383.648 100.953C384.18 99.375 384.961 98.0078 385.992 96.8516C387.023 95.6953 388.297 94.7969 389.812 94.1562C391.328 93.5 393.078 93.1719 395.062 93.1719C397.062 93.1719 398.82 93.5 400.336 94.1562C401.867 94.7969 403.148 95.6953 404.18 96.8516C405.211 98.0078 405.992 99.375 406.523 100.953C407.055 102.516 407.32 104.227 407.32 106.086V106.578C407.32 108.422 407.055 110.133 406.523 111.711C405.992 113.273 405.211 114.641 404.18 115.812C403.148 116.969 401.875 117.867 400.359 118.508C398.844 119.148 397.094 119.469 395.109 119.469C393.125 119.469 391.367 119.148 389.836 118.508C388.305 117.867 387.023 116.969 385.992 115.812C384.961 114.641 384.18 113.273 383.648 111.711C383.117 110.133 382.852 108.422 382.852 106.578ZM390.75 106.086V106.578C390.75 107.531 390.82 108.422 390.961 109.25C391.102 110.078 391.336 110.805 391.664 111.43C391.992 112.039 392.438 112.516 393 112.859C393.562 113.203 394.266 113.375 395.109 113.375C395.938 113.375 396.625 113.203 397.172 112.859C397.734 112.516 398.18 112.039 398.508 111.43C398.836 110.805 399.07 110.078 399.211 109.25C399.352 108.422 399.422 107.531 399.422 106.578V106.086C399.422 105.164 399.352 104.297 399.211 103.484C399.07 102.656 398.836 101.93 398.508 101.305C398.18 100.664 397.734 100.164 397.172 99.8047C396.609 99.4453 395.906 99.2656 395.062 99.2656C394.234 99.2656 393.539 99.4453 392.977 99.8047C392.43 100.164 391.992 100.664 391.664 101.305C391.336 101.93 391.102 102.656 390.961 103.484C390.82 104.297 390.75 105.164 390.75 106.086ZM418.594 99.0547V119H410.695V93.6406H418.102L418.594 99.0547ZM417.656 105.453L415.805 105.5C415.805 103.562 416.039 101.836 416.508 100.32C416.977 98.7891 417.641 97.4922 418.5 96.4297C419.359 95.3672 420.383 94.5625 421.57 94.0156C422.773 93.4531 424.109 93.1719 425.578 93.1719C426.75 93.1719 427.82 93.3438 428.789 93.6875C429.773 94.0312 430.617 94.5859 431.32 95.3516C432.039 96.1172 432.586 97.1328 432.961 98.3984C433.352 99.6484 433.547 101.195 433.547 103.039V119H425.602V103.016C425.602 102 425.461 101.227 425.18 100.695C424.898 100.148 424.492 99.7734 423.961 99.5703C423.43 99.3672 422.781 99.2656 422.016 99.2656C421.203 99.2656 420.516 99.4219 419.953 99.7344C419.391 100.047 418.938 100.484 418.594 101.047C418.266 101.594 418.023 102.242 417.867 102.992C417.727 103.742 417.656 104.562 417.656 105.453Z" fill="black"/>
<path d="M1134 0H1348C1356.28 0 1363 6.71573 1363 15V148C1363 156.284 1356.28 163 1348 163H1134V0Z" fill="#4653C9"/>
<path d="M1280.07 47.5H1216.93L1214.5 49.9286V113.071L1216.93 115.5H1280.07L1282.5 113.071V49.9286L1280.07 47.5ZM1277.64 110.643H1233.93V100.929H1245.1C1246.56 103.843 1249.96 105.786 1253.36 105.786C1258.7 105.786 1263.07 101.414 1263.07 96.0714C1263.07 90.7286 1258.7 86.3571 1253.36 86.3571C1248.01 86.3571 1243.64 90.7286 1243.64 96.0714H1229.07V110.643H1219.36V52.3571H1229.07V63.5286C1226.16 64.9857 1224.21 68.3857 1224.21 71.7857C1224.21 77.1286 1228.59 81.5 1233.93 81.5C1239.27 81.5 1243.64 77.1286 1243.64 71.7857H1253.36C1253.36 77.1286 1257.73 81.5 1263.07 81.5C1268.41 81.5 1272.79 77.1286 1272.79 71.7857C1272.79 66.4429 1268.41 62.0714 1263.07 62.0714C1259.67 62.0714 1256.27 64.0143 1254.81 66.9286H1242.19C1240.73 64.0143 1237.33 62.0714 1233.93 62.0714V52.3571H1277.64V110.643ZM1248.5 96.0714C1248.5 93.1571 1250.44 91.2143 1253.36 91.2143C1256.27 91.2143 1258.21 93.1571 1258.21 96.0714C1258.21 98.9857 1256.27 100.929 1253.36 100.929C1250.44 100.929 1248.5 98.9857 1248.5 96.0714ZM1233.93 66.9286C1236.84 66.9286 1238.79 68.8714 1238.79 71.7857C1238.79 74.7 1236.84 76.6429 1233.93 76.6429C1231.01 76.6429 1229.07 74.7 1229.07 71.7857C1229.07 68.8714 1231.01 66.9286 1233.93 66.9286ZM1263.07 66.9286C1265.99 66.9286 1267.93 68.8714 1267.93 71.7857C1267.93 74.7 1265.99 76.6429 1263.07 76.6429C1260.16 76.6429 1258.21 74.7 1258.21 71.7857C1258.21 68.8714 1260.16 66.9286 1263.07 66.9286Z" fill="white"/>
</svg>
