<svg width="1363" height="163" viewBox="0 0 1363 163" fill="none" xmlns="http://www.w3.org/2000/svg">
<path d="M0 15C0 6.71573 6.71573 0 15 0H37V163H15C6.71573 163 0 156.284 0 148V15Z" fill="#424242"/>
<rect width="1097" height="163" transform="translate(37)" fill="#F0F0F0"/>
<path d="M98.0391 43.9375V61H94.5234V43.9375H98.0391ZM104.836 51.2266V53.9688H97.0781V51.2266H104.836ZM105.656 43.9375V46.6914H97.0781V43.9375H105.656ZM111.047 48.3203V61H107.66V48.3203H111.047ZM107.449 45.0156C107.449 44.5234 107.621 44.1172 107.965 43.7969C108.309 43.4766 108.77 43.3164 109.348 43.3164C109.918 43.3164 110.375 43.4766 110.719 43.7969C111.07 44.1172 111.246 44.5234 111.246 45.0156C111.246 45.5078 111.07 45.9141 110.719 46.2344C110.375 46.5547 109.918 46.7148 109.348 46.7148C108.77 46.7148 108.309 46.5547 107.965 46.2344C107.621 45.9141 107.449 45.5078 107.449 45.0156ZM117.141 51.0273V61H113.766V48.3203H116.93L117.141 51.0273ZM116.648 54.2148H115.734C115.734 53.2773 115.855 52.4336 116.098 51.6836C116.34 50.9258 116.68 50.2812 117.117 49.75C117.555 49.2109 118.074 48.8008 118.676 48.5195C119.285 48.2305 119.965 48.0859 120.715 48.0859C121.309 48.0859 121.852 48.1719 122.344 48.3438C122.836 48.5156 123.258 48.7891 123.609 49.1641C123.969 49.5391 124.242 50.0352 124.43 50.6523C124.625 51.2695 124.723 52.0234 124.723 52.9141V61H121.324V52.9023C121.324 52.3398 121.246 51.9023 121.09 51.5898C120.934 51.2773 120.703 51.0586 120.398 50.9336C120.102 50.8008 119.734 50.7344 119.297 50.7344C118.844 50.7344 118.449 50.8242 118.113 51.0039C117.785 51.1836 117.512 51.4336 117.293 51.7539C117.082 52.0664 116.922 52.4336 116.812 52.8555C116.703 53.2773 116.648 53.7305 116.648 54.2148ZM134.133 58.1406V52.4922C134.133 52.0859 134.066 51.7383 133.934 51.4492C133.801 51.1523 133.594 50.9219 133.312 50.7578C133.039 50.5938 132.684 50.5117 132.246 50.5117C131.871 50.5117 131.547 50.5781 131.273 50.7109C131 50.8359 130.789 51.0195 130.641 51.2617C130.492 51.4961 130.418 51.7734 130.418 52.0938H127.043C127.043 51.5547 127.168 51.043 127.418 50.5586C127.668 50.0742 128.031 49.6484 128.508 49.2812C128.984 48.9062 129.551 48.6133 130.207 48.4023C130.871 48.1914 131.613 48.0859 132.434 48.0859C133.418 48.0859 134.293 48.25 135.059 48.5781C135.824 48.9062 136.426 49.3984 136.863 50.0547C137.309 50.7109 137.531 51.5312 137.531 52.5156V57.9414C137.531 58.6367 137.574 59.207 137.66 59.6523C137.746 60.0898 137.871 60.4727 138.035 60.8008V61H134.625C134.461 60.6562 134.336 60.2266 134.25 59.7109C134.172 59.1875 134.133 58.6641 134.133 58.1406ZM134.578 53.2773L134.602 55.1875H132.715C132.27 55.1875 131.883 55.2383 131.555 55.3398C131.227 55.4414 130.957 55.5859 130.746 55.7734C130.535 55.9531 130.379 56.1641 130.277 56.4062C130.184 56.6484 130.137 56.9141 130.137 57.2031C130.137 57.4922 130.203 57.7539 130.336 57.9883C130.469 58.2148 130.66 58.3945 130.91 58.5273C131.16 58.6523 131.453 58.7148 131.789 58.7148C132.297 58.7148 132.738 58.6133 133.113 58.4102C133.488 58.207 133.777 57.957 133.98 57.6602C134.191 57.3633 134.301 57.082 134.309 56.8164L135.199 58.2461C135.074 58.5664 134.902 58.8984 134.684 59.2422C134.473 59.5859 134.203 59.9102 133.875 60.2148C133.547 60.5117 133.152 60.7578 132.691 60.9531C132.23 61.1406 131.684 61.2344 131.051 61.2344C130.246 61.2344 129.516 61.0742 128.859 60.7539C128.211 60.4258 127.695 59.9766 127.312 59.4062C126.938 58.8281 126.75 58.1719 126.75 57.4375C126.75 56.7734 126.875 56.1836 127.125 55.668C127.375 55.1523 127.742 54.7188 128.227 54.3672C128.719 54.0078 129.332 53.7383 130.066 53.5586C130.801 53.3711 131.652 53.2773 132.621 53.2773H134.578ZM143.438 51.0273V61H140.062V48.3203H143.227L143.438 51.0273ZM142.945 54.2148H142.031C142.031 53.2773 142.152 52.4336 142.395 51.6836C142.637 50.9258 142.977 50.2812 143.414 49.75C143.852 49.2109 144.371 48.8008 144.973 48.5195C145.582 48.2305 146.262 48.0859 147.012 48.0859C147.605 48.0859 148.148 48.1719 148.641 48.3438C149.133 48.5156 149.555 48.7891 149.906 49.1641C150.266 49.5391 150.539 50.0352 150.727 50.6523C150.922 51.2695 151.02 52.0234 151.02 52.9141V61H147.621V52.9023C147.621 52.3398 147.543 51.9023 147.387 51.5898C147.23 51.2773 147 51.0586 146.695 50.9336C146.398 50.8008 146.031 50.7344 145.594 50.7344C145.141 50.7344 144.746 50.8242 144.41 51.0039C144.082 51.1836 143.809 51.4336 143.59 51.7539C143.379 52.0664 143.219 52.4336 143.109 52.8555C143 53.2773 142.945 53.7305 142.945 54.2148ZM158.824 58.5977C159.238 58.5977 159.605 58.5195 159.926 58.3633C160.246 58.1992 160.496 57.9727 160.676 57.6836C160.863 57.3867 160.961 57.0391 160.969 56.6406H164.145C164.137 57.5312 163.898 58.3242 163.43 59.0195C162.961 59.707 162.332 60.25 161.543 60.6484C160.754 61.0391 159.871 61.2344 158.895 61.2344C157.91 61.2344 157.051 61.0703 156.316 60.7422C155.59 60.4141 154.984 59.9609 154.5 59.3828C154.016 58.7969 153.652 58.1172 153.41 57.3438C153.168 56.5625 153.047 55.7266 153.047 54.8359V54.4961C153.047 53.5977 153.168 52.7617 153.41 51.9883C153.652 51.207 154.016 50.5273 154.5 49.9492C154.984 49.3633 155.59 48.9062 156.316 48.5781C157.043 48.25 157.895 48.0859 158.871 48.0859C159.91 48.0859 160.82 48.2852 161.602 48.6836C162.391 49.082 163.008 49.6523 163.453 50.3945C163.906 51.1289 164.137 52 164.145 53.0078H160.969C160.961 52.5859 160.871 52.2031 160.699 51.8594C160.535 51.5156 160.293 51.2422 159.973 51.0391C159.66 50.8281 159.273 50.7227 158.812 50.7227C158.32 50.7227 157.918 50.8281 157.605 51.0391C157.293 51.2422 157.051 51.5234 156.879 51.8828C156.707 52.2344 156.586 52.6367 156.516 53.0898C156.453 53.5352 156.422 54.0039 156.422 54.4961V54.8359C156.422 55.3281 156.453 55.8008 156.516 56.2539C156.578 56.707 156.695 57.1094 156.867 57.4609C157.047 57.8125 157.293 58.0898 157.605 58.293C157.918 58.4961 158.324 58.5977 158.824 58.5977ZM169.664 48.3203V61H166.277V48.3203H169.664ZM166.066 45.0156C166.066 44.5234 166.238 44.1172 166.582 43.7969C166.926 43.4766 167.387 43.3164 167.965 43.3164C168.535 43.3164 168.992 43.4766 169.336 43.7969C169.688 44.1172 169.863 44.5234 169.863 45.0156C169.863 45.5078 169.688 45.9141 169.336 46.2344C168.992 46.5547 168.535 46.7148 167.965 46.7148C167.387 46.7148 166.926 46.5547 166.582 46.2344C166.238 45.9141 166.066 45.5078 166.066 45.0156ZM179.297 58.1406V52.4922C179.297 52.0859 179.23 51.7383 179.098 51.4492C178.965 51.1523 178.758 50.9219 178.477 50.7578C178.203 50.5938 177.848 50.5117 177.41 50.5117C177.035 50.5117 176.711 50.5781 176.438 50.7109C176.164 50.8359 175.953 51.0195 175.805 51.2617C175.656 51.4961 175.582 51.7734 175.582 52.0938H172.207C172.207 51.5547 172.332 51.043 172.582 50.5586C172.832 50.0742 173.195 49.6484 173.672 49.2812C174.148 48.9062 174.715 48.6133 175.371 48.4023C176.035 48.1914 176.777 48.0859 177.598 48.0859C178.582 48.0859 179.457 48.25 180.223 48.5781C180.988 48.9062 181.59 49.3984 182.027 50.0547C182.473 50.7109 182.695 51.5312 182.695 52.5156V57.9414C182.695 58.6367 182.738 59.207 182.824 59.6523C182.91 60.0898 183.035 60.4727 183.199 60.8008V61H179.789C179.625 60.6562 179.5 60.2266 179.414 59.7109C179.336 59.1875 179.297 58.6641 179.297 58.1406ZM179.742 53.2773L179.766 55.1875H177.879C177.434 55.1875 177.047 55.2383 176.719 55.3398C176.391 55.4414 176.121 55.5859 175.91 55.7734C175.699 55.9531 175.543 56.1641 175.441 56.4062C175.348 56.6484 175.301 56.9141 175.301 57.2031C175.301 57.4922 175.367 57.7539 175.5 57.9883C175.633 58.2148 175.824 58.3945 176.074 58.5273C176.324 58.6523 176.617 58.7148 176.953 58.7148C177.461 58.7148 177.902 58.6133 178.277 58.4102C178.652 58.207 178.941 57.957 179.145 57.6602C179.355 57.3633 179.465 57.082 179.473 56.8164L180.363 58.2461C180.238 58.5664 180.066 58.8984 179.848 59.2422C179.637 59.5859 179.367 59.9102 179.039 60.2148C178.711 60.5117 178.316 60.7578 177.855 60.9531C177.395 61.1406 176.848 61.2344 176.215 61.2344C175.41 61.2344 174.68 61.0742 174.023 60.7539C173.375 60.4258 172.859 59.9766 172.477 59.4062C172.102 58.8281 171.914 58.1719 171.914 57.4375C171.914 56.7734 172.039 56.1836 172.289 55.668C172.539 55.1523 172.906 54.7188 173.391 54.3672C173.883 54.0078 174.496 53.7383 175.23 53.5586C175.965 53.3711 176.816 53.2773 177.785 53.2773H179.742ZM188.859 43V61H185.473V43H188.859ZM197.836 43.9375H204.199C205.504 43.9375 206.625 44.1328 207.562 44.5234C208.508 44.9141 209.234 45.4922 209.742 46.2578C210.25 47.0234 210.504 47.9648 210.504 49.082C210.504 49.9961 210.348 50.7812 210.035 51.4375C209.73 52.0859 209.297 52.6289 208.734 53.0664C208.18 53.4961 207.527 53.8398 206.777 54.0977L205.664 54.6836H200.133L200.109 51.9414H204.223C204.84 51.9414 205.352 51.832 205.758 51.6133C206.164 51.3945 206.469 51.0898 206.672 50.6992C206.883 50.3086 206.988 49.8555 206.988 49.3398C206.988 48.793 206.887 48.3203 206.684 47.9219C206.48 47.5234 206.172 47.2188 205.758 47.0078C205.344 46.7969 204.824 46.6914 204.199 46.6914H201.352V61H197.836V43.9375ZM207.375 61L203.484 53.3945L207.199 53.3711L211.137 60.8359V61H207.375ZM216.562 48.3203V61H213.176V48.3203H216.562ZM212.965 45.0156C212.965 44.5234 213.137 44.1172 213.48 43.7969C213.824 43.4766 214.285 43.3164 214.863 43.3164C215.434 43.3164 215.891 43.4766 216.234 43.7969C216.586 44.1172 216.762 44.5234 216.762 45.0156C216.762 45.5078 216.586 45.9141 216.234 46.2344C215.891 46.5547 215.434 46.7148 214.863 46.7148C214.285 46.7148 213.824 46.5547 213.48 46.2344C213.137 45.9141 212.965 45.5078 212.965 45.0156ZM226.207 57.4961C226.207 57.2539 226.137 57.0352 225.996 56.8398C225.855 56.6445 225.594 56.4648 225.211 56.3008C224.836 56.1289 224.293 55.9727 223.582 55.832C222.941 55.6914 222.344 55.5156 221.789 55.3047C221.242 55.0859 220.766 54.8242 220.359 54.5195C219.961 54.2148 219.648 53.8555 219.422 53.4414C219.195 53.0195 219.082 52.5391 219.082 52C219.082 51.4688 219.195 50.9688 219.422 50.5C219.656 50.0312 219.988 49.6172 220.418 49.2578C220.855 48.8906 221.387 48.6055 222.012 48.4023C222.645 48.1914 223.355 48.0859 224.145 48.0859C225.246 48.0859 226.191 48.2617 226.98 48.6133C227.777 48.9648 228.387 49.4492 228.809 50.0664C229.238 50.6758 229.453 51.3711 229.453 52.1523H226.078C226.078 51.8242 226.008 51.5312 225.867 51.2734C225.734 51.0078 225.523 50.8008 225.234 50.6523C224.953 50.4961 224.586 50.418 224.133 50.418C223.758 50.418 223.434 50.4844 223.16 50.6172C222.887 50.7422 222.676 50.9141 222.527 51.1328C222.387 51.3438 222.316 51.5781 222.316 51.8359C222.316 52.0312 222.355 52.207 222.434 52.3633C222.52 52.5117 222.656 52.6484 222.844 52.7734C223.031 52.8984 223.273 53.0156 223.57 53.125C223.875 53.2266 224.25 53.3203 224.695 53.4062C225.609 53.5938 226.426 53.8398 227.145 54.1445C227.863 54.4414 228.434 54.8477 228.855 55.3633C229.277 55.8711 229.488 56.5391 229.488 57.3672C229.488 57.9297 229.363 58.4453 229.113 58.9141C228.863 59.3828 228.504 59.793 228.035 60.1445C227.566 60.4883 227.004 60.7578 226.348 60.9531C225.699 61.1406 224.969 61.2344 224.156 61.2344C222.977 61.2344 221.977 61.0234 221.156 60.6016C220.344 60.1797 219.727 59.6445 219.305 58.9961C218.891 58.3398 218.684 57.668 218.684 56.9805H221.883C221.898 57.4414 222.016 57.8125 222.234 58.0938C222.461 58.375 222.746 58.5781 223.09 58.7031C223.441 58.8281 223.82 58.8906 224.227 58.8906C224.664 58.8906 225.027 58.832 225.316 58.7148C225.605 58.5898 225.824 58.4258 225.973 58.2227C226.129 58.0117 226.207 57.7695 226.207 57.4961ZM235.055 42.9883V61H231.68V42.9883H235.055ZM243.047 48.3203L237.539 54.6016L234.586 57.5898L233.355 55.1523L235.699 52.1758L238.992 48.3203H243.047ZM239.543 61L235.793 55.1406L238.125 53.1016L243.434 61H239.543ZM250.688 43.9375H257.051C258.355 43.9375 259.477 44.1328 260.414 44.5234C261.359 44.9141 262.086 45.4922 262.594 46.2578C263.102 47.0234 263.355 47.9648 263.355 49.082C263.355 49.9961 263.199 50.7812 262.887 51.4375C262.582 52.0859 262.148 52.6289 261.586 53.0664C261.031 53.4961 260.379 53.8398 259.629 54.0977L258.516 54.6836H252.984L252.961 51.9414H257.074C257.691 51.9414 258.203 51.832 258.609 51.6133C259.016 51.3945 259.32 51.0898 259.523 50.6992C259.734 50.3086 259.84 49.8555 259.84 49.3398C259.84 48.793 259.738 48.3203 259.535 47.9219C259.332 47.5234 259.023 47.2188 258.609 47.0078C258.195 46.7969 257.676 46.6914 257.051 46.6914H254.203V61H250.688V43.9375ZM260.227 61L256.336 53.3945L260.051 53.3711L263.988 60.8359V61H260.227ZM272.695 58.1406V52.4922C272.695 52.0859 272.629 51.7383 272.496 51.4492C272.363 51.1523 272.156 50.9219 271.875 50.7578C271.602 50.5938 271.246 50.5117 270.809 50.5117C270.434 50.5117 270.109 50.5781 269.836 50.7109C269.562 50.8359 269.352 51.0195 269.203 51.2617C269.055 51.4961 268.98 51.7734 268.98 52.0938H265.605C265.605 51.5547 265.73 51.043 265.98 50.5586C266.23 50.0742 266.594 49.6484 267.07 49.2812C267.547 48.9062 268.113 48.6133 268.77 48.4023C269.434 48.1914 270.176 48.0859 270.996 48.0859C271.98 48.0859 272.855 48.25 273.621 48.5781C274.387 48.9062 274.988 49.3984 275.426 50.0547C275.871 50.7109 276.094 51.5312 276.094 52.5156V57.9414C276.094 58.6367 276.137 59.207 276.223 59.6523C276.309 60.0898 276.434 60.4727 276.598 60.8008V61H273.188C273.023 60.6562 272.898 60.2266 272.812 59.7109C272.734 59.1875 272.695 58.6641 272.695 58.1406ZM273.141 53.2773L273.164 55.1875H271.277C270.832 55.1875 270.445 55.2383 270.117 55.3398C269.789 55.4414 269.52 55.5859 269.309 55.7734C269.098 55.9531 268.941 56.1641 268.84 56.4062C268.746 56.6484 268.699 56.9141 268.699 57.2031C268.699 57.4922 268.766 57.7539 268.898 57.9883C269.031 58.2148 269.223 58.3945 269.473 58.5273C269.723 58.6523 270.016 58.7148 270.352 58.7148C270.859 58.7148 271.301 58.6133 271.676 58.4102C272.051 58.207 272.34 57.957 272.543 57.6602C272.754 57.3633 272.863 57.082 272.871 56.8164L273.762 58.2461C273.637 58.5664 273.465 58.8984 273.246 59.2422C273.035 59.5859 272.766 59.9102 272.438 60.2148C272.109 60.5117 271.715 60.7578 271.254 60.9531C270.793 61.1406 270.246 61.2344 269.613 61.2344C268.809 61.2344 268.078 61.0742 267.422 60.7539C266.773 60.4258 266.258 59.9766 265.875 59.4062C265.5 58.8281 265.312 58.1719 265.312 57.4375C265.312 56.7734 265.438 56.1836 265.688 55.668C265.938 55.1523 266.305 54.7188 266.789 54.3672C267.281 54.0078 267.895 53.7383 268.629 53.5586C269.363 53.3711 270.215 53.2773 271.184 53.2773H273.141ZM286.184 58.2344V43H289.582V61H286.523L286.184 58.2344ZM278.168 54.8125V54.5664C278.168 53.5977 278.277 52.7188 278.496 51.9297C278.715 51.1328 279.035 50.4492 279.457 49.8789C279.879 49.3086 280.398 48.8672 281.016 48.5547C281.633 48.2422 282.336 48.0859 283.125 48.0859C283.867 48.0859 284.516 48.2422 285.07 48.5547C285.633 48.8672 286.109 49.3125 286.5 49.8906C286.898 50.4609 287.219 51.1367 287.461 51.918C287.703 52.6914 287.879 53.5391 287.988 54.4609V55C287.879 55.8828 287.703 56.7031 287.461 57.4609C287.219 58.2188 286.898 58.8828 286.5 59.4531C286.109 60.0156 285.633 60.4531 285.07 60.7656C284.508 61.0781 283.852 61.2344 283.102 61.2344C282.312 61.2344 281.609 61.0742 280.992 60.7539C280.383 60.4336 279.867 59.9844 279.445 59.4062C279.031 58.8281 278.715 58.1484 278.496 57.3672C278.277 56.5859 278.168 55.7344 278.168 54.8125ZM281.543 54.5664V54.8125C281.543 55.3359 281.582 55.8242 281.66 56.2773C281.746 56.7305 281.883 57.1328 282.07 57.4844C282.266 57.8281 282.516 58.0977 282.82 58.293C283.133 58.4805 283.512 58.5742 283.957 58.5742C284.535 58.5742 285.012 58.4453 285.387 58.1875C285.762 57.9219 286.047 57.5586 286.242 57.0977C286.445 56.6367 286.562 56.1055 286.594 55.5039V53.9688C286.57 53.4766 286.5 53.0352 286.383 52.6445C286.273 52.2461 286.109 51.9062 285.891 51.625C285.68 51.3438 285.414 51.125 285.094 50.9688C284.781 50.8125 284.41 50.7344 283.98 50.7344C283.543 50.7344 283.168 50.8359 282.855 51.0391C282.543 51.2344 282.289 51.5039 282.094 51.8477C281.906 52.1914 281.766 52.5977 281.672 53.0664C281.586 53.5273 281.543 54.0273 281.543 54.5664ZM299.062 58.1406V52.4922C299.062 52.0859 298.996 51.7383 298.863 51.4492C298.73 51.1523 298.523 50.9219 298.242 50.7578C297.969 50.5938 297.613 50.5117 297.176 50.5117C296.801 50.5117 296.477 50.5781 296.203 50.7109C295.93 50.8359 295.719 51.0195 295.57 51.2617C295.422 51.4961 295.348 51.7734 295.348 52.0938H291.973C291.973 51.5547 292.098 51.043 292.348 50.5586C292.598 50.0742 292.961 49.6484 293.438 49.2812C293.914 48.9062 294.48 48.6133 295.137 48.4023C295.801 48.1914 296.543 48.0859 297.363 48.0859C298.348 48.0859 299.223 48.25 299.988 48.5781C300.754 48.9062 301.355 49.3984 301.793 50.0547C302.238 50.7109 302.461 51.5312 302.461 52.5156V57.9414C302.461 58.6367 302.504 59.207 302.59 59.6523C302.676 60.0898 302.801 60.4727 302.965 60.8008V61H299.555C299.391 60.6562 299.266 60.2266 299.18 59.7109C299.102 59.1875 299.062 58.6641 299.062 58.1406ZM299.508 53.2773L299.531 55.1875H297.645C297.199 55.1875 296.812 55.2383 296.484 55.3398C296.156 55.4414 295.887 55.5859 295.676 55.7734C295.465 55.9531 295.309 56.1641 295.207 56.4062C295.113 56.6484 295.066 56.9141 295.066 57.2031C295.066 57.4922 295.133 57.7539 295.266 57.9883C295.398 58.2148 295.59 58.3945 295.84 58.5273C296.09 58.6523 296.383 58.7148 296.719 58.7148C297.227 58.7148 297.668 58.6133 298.043 58.4102C298.418 58.207 298.707 57.957 298.91 57.6602C299.121 57.3633 299.23 57.082 299.238 56.8164L300.129 58.2461C300.004 58.5664 299.832 58.8984 299.613 59.2422C299.402 59.5859 299.133 59.9102 298.805 60.2148C298.477 60.5117 298.082 60.7578 297.621 60.9531C297.16 61.1406 296.613 61.2344 295.98 61.2344C295.176 61.2344 294.445 61.0742 293.789 60.7539C293.141 60.4258 292.625 59.9766 292.242 59.4062C291.867 58.8281 291.68 58.1719 291.68 57.4375C291.68 56.7734 291.805 56.1836 292.055 55.668C292.305 55.1523 292.672 54.7188 293.156 54.3672C293.648 54.0078 294.262 53.7383 294.996 53.5586C295.73 53.3711 296.582 53.2773 297.551 53.2773H299.508ZM308.438 51.0859V61H305.062V48.3203H308.238L308.438 51.0859ZM312.258 48.2383L312.199 51.3672C312.035 51.3438 311.836 51.3242 311.602 51.3086C311.375 51.2852 311.168 51.2734 310.98 51.2734C310.504 51.2734 310.09 51.3359 309.738 51.4609C309.395 51.5781 309.105 51.7539 308.871 51.9883C308.645 52.2227 308.473 52.5078 308.355 52.8438C308.246 53.1797 308.184 53.5625 308.168 53.9922L307.488 53.7812C307.488 52.9609 307.57 52.207 307.734 51.5195C307.898 50.8242 308.137 50.2188 308.449 49.7031C308.77 49.1875 309.16 48.7891 309.621 48.5078C310.082 48.2266 310.609 48.0859 311.203 48.0859C311.391 48.0859 311.582 48.1016 311.777 48.1328C311.973 48.1562 312.133 48.1914 312.258 48.2383Z" fill="#888888"/>
<path d="M112.125 84.875V119H103.898V84.875H112.125ZM122.391 84.875V91.2266H93.8672V84.875H122.391ZM135.68 119.469C133.617 119.469 131.773 119.148 130.148 118.508C128.523 117.852 127.148 116.953 126.023 115.812C124.914 114.672 124.062 113.359 123.469 111.875C122.891 110.391 122.602 108.82 122.602 107.164V106.273C122.602 104.414 122.859 102.695 123.375 101.117C123.891 99.5234 124.656 98.1328 125.672 96.9453C126.688 95.7578 127.961 94.8359 129.492 94.1797C131.023 93.5078 132.805 93.1719 134.836 93.1719C136.633 93.1719 138.242 93.4609 139.664 94.0391C141.086 94.6172 142.289 95.4453 143.273 96.5234C144.273 97.6016 145.031 98.9062 145.547 100.438C146.078 101.969 146.344 103.688 146.344 105.594V108.805H125.625V103.859H138.633V103.25C138.648 102.406 138.5 101.688 138.188 101.094C137.891 100.5 137.453 100.047 136.875 99.7344C136.297 99.4219 135.594 99.2656 134.766 99.2656C133.906 99.2656 133.195 99.4531 132.633 99.8281C132.086 100.203 131.656 100.719 131.344 101.375C131.047 102.016 130.836 102.758 130.711 103.602C130.586 104.445 130.523 105.336 130.523 106.273V107.164C130.523 108.102 130.648 108.953 130.898 109.719C131.164 110.484 131.539 111.141 132.023 111.688C132.523 112.219 133.117 112.633 133.805 112.93C134.508 113.227 135.305 113.375 136.195 113.375C137.273 113.375 138.336 113.172 139.383 112.766C140.43 112.359 141.328 111.688 142.078 110.75L145.664 115.016C145.148 115.75 144.414 116.461 143.461 117.148C142.523 117.836 141.398 118.398 140.086 118.836C138.773 119.258 137.305 119.469 135.68 119.469ZM160.266 113.375C161 113.375 161.625 113.242 162.141 112.977C162.672 112.695 163.07 112.305 163.336 111.805C163.617 111.289 163.75 110.672 163.734 109.953H171.164C171.18 111.859 170.711 113.531 169.758 114.969C168.82 116.391 167.539 117.5 165.914 118.297C164.305 119.078 162.484 119.469 160.453 119.469C158.469 119.469 156.734 119.148 155.25 118.508C153.766 117.852 152.523 116.945 151.523 115.789C150.539 114.617 149.797 113.25 149.297 111.688C148.812 110.125 148.57 108.43 148.57 106.602V106.062C148.57 104.234 148.812 102.539 149.297 100.977C149.797 99.3984 150.539 98.0312 151.523 96.875C152.523 95.7031 153.758 94.7969 155.227 94.1562C156.711 93.5 158.438 93.1719 160.406 93.1719C162.516 93.1719 164.375 93.5703 165.984 94.3672C167.609 95.1641 168.883 96.3203 169.805 97.8359C170.727 99.3516 171.18 101.188 171.164 103.344H163.734C163.75 102.578 163.633 101.891 163.383 101.281C163.133 100.672 162.742 100.188 162.211 99.8281C161.695 99.4531 161.031 99.2656 160.219 99.2656C159.406 99.2656 158.75 99.4453 158.25 99.8047C157.75 100.164 157.367 100.664 157.102 101.305C156.852 101.93 156.68 102.648 156.586 103.461C156.508 104.273 156.469 105.141 156.469 106.062V106.602C156.469 107.539 156.508 108.422 156.586 109.25C156.68 110.062 156.859 110.781 157.125 111.406C157.391 112.016 157.773 112.5 158.273 112.859C158.773 113.203 159.438 113.375 160.266 113.375ZM182.273 83V119H174.375V83H182.273ZM181.336 105.453L179.484 105.5C179.484 103.719 179.703 102.078 180.141 100.578C180.578 99.0781 181.203 97.7734 182.016 96.6641C182.828 95.5547 183.805 94.6953 184.945 94.0859C186.086 93.4766 187.352 93.1719 188.742 93.1719C189.992 93.1719 191.133 93.3516 192.164 93.7109C193.211 94.0703 194.109 94.6484 194.859 95.4453C195.625 96.2422 196.211 97.2812 196.617 98.5625C197.039 99.8438 197.25 101.406 197.25 103.25V119H189.305V103.203C189.305 102.172 189.156 101.375 188.859 100.812C188.578 100.234 188.172 99.8359 187.641 99.6172C187.109 99.3828 186.461 99.2656 185.695 99.2656C184.773 99.2656 184.023 99.4219 183.445 99.7344C182.867 100.047 182.422 100.484 182.109 101.047C181.812 101.594 181.609 102.242 181.5 102.992C181.391 103.742 181.336 104.562 181.336 105.453ZM231.539 109.93C231.539 109.398 231.461 108.922 231.305 108.5C231.148 108.062 230.859 107.656 230.438 107.281C230.016 106.906 229.406 106.531 228.609 106.156C227.828 105.766 226.797 105.359 225.516 104.938C224.016 104.438 222.57 103.875 221.18 103.25C219.789 102.609 218.547 101.867 217.453 101.023C216.359 100.164 215.492 99.1641 214.852 98.0234C214.211 96.8672 213.891 95.5234 213.891 93.9922C213.891 92.5234 214.219 91.2031 214.875 90.0312C215.531 88.8438 216.445 87.8359 217.617 87.0078C218.805 86.1641 220.195 85.5234 221.789 85.0859C223.383 84.6328 225.125 84.4062 227.016 84.4062C229.516 84.4062 231.719 84.8438 233.625 85.7188C235.547 86.5781 237.047 87.8047 238.125 89.3984C239.219 90.9766 239.766 92.8438 239.766 95H231.586C231.586 94.1406 231.406 93.3828 231.047 92.7266C230.703 92.0703 230.18 91.5547 229.477 91.1797C228.773 90.8047 227.891 90.6172 226.828 90.6172C225.797 90.6172 224.93 90.7734 224.227 91.0859C223.523 91.3984 222.992 91.8203 222.633 92.3516C222.273 92.8672 222.094 93.4375 222.094 94.0625C222.094 94.5781 222.234 95.0469 222.516 95.4688C222.812 95.875 223.227 96.2578 223.758 96.6172C224.305 96.9766 224.961 97.3203 225.727 97.6484C226.508 97.9766 227.383 98.2969 228.352 98.6094C230.164 99.1875 231.773 99.8359 233.18 100.555C234.602 101.258 235.797 102.062 236.766 102.969C237.75 103.859 238.492 104.875 238.992 106.016C239.508 107.156 239.766 108.445 239.766 109.883C239.766 111.414 239.469 112.773 238.875 113.961C238.281 115.148 237.43 116.156 236.32 116.984C235.211 117.797 233.883 118.414 232.336 118.836C230.789 119.258 229.062 119.469 227.156 119.469C225.406 119.469 223.68 119.25 221.977 118.812C220.289 118.359 218.758 117.672 217.383 116.75C216.008 115.812 214.906 114.617 214.078 113.164C213.266 111.695 212.859 109.953 212.859 107.938H221.109C221.109 108.938 221.242 109.781 221.508 110.469C221.773 111.156 222.164 111.711 222.68 112.133C223.195 112.539 223.828 112.836 224.578 113.023C225.328 113.195 226.188 113.281 227.156 113.281C228.203 113.281 229.047 113.133 229.688 112.836C230.328 112.523 230.797 112.117 231.094 111.617C231.391 111.102 231.539 110.539 231.539 109.93ZM256.992 93.6406V99.125H241.711V93.6406H256.992ZM244.922 87.3359H252.82V110.727C252.82 111.398 252.898 111.922 253.055 112.297C253.211 112.656 253.477 112.914 253.852 113.07C254.242 113.211 254.758 113.281 255.398 113.281C255.852 113.281 256.227 113.273 256.523 113.258C256.82 113.227 257.102 113.188 257.367 113.141V118.789C256.695 119.008 255.992 119.172 255.258 119.281C254.523 119.406 253.742 119.469 252.914 119.469C251.227 119.469 249.781 119.203 248.578 118.672C247.391 118.141 246.484 117.305 245.859 116.164C245.234 115.023 244.922 113.539 244.922 111.711V87.3359ZM273.305 112.625V102.172C273.305 101.453 273.203 100.836 273 100.32C272.797 99.8047 272.477 99.4062 272.039 99.125C271.602 98.8281 271.016 98.6797 270.281 98.6797C269.688 98.6797 269.18 98.7812 268.758 98.9844C268.336 99.1875 268.016 99.4922 267.797 99.8984C267.578 100.305 267.469 100.82 267.469 101.445H259.57C259.57 100.273 259.828 99.1875 260.344 98.1875C260.875 97.1719 261.625 96.2891 262.594 95.5391C263.578 94.7891 264.75 94.2109 266.109 93.8047C267.484 93.3828 269.016 93.1719 270.703 93.1719C272.719 93.1719 274.516 93.5078 276.094 94.1797C277.688 94.8516 278.945 95.8594 279.867 97.2031C280.789 98.5312 281.25 100.203 281.25 102.219V112.602C281.25 114.258 281.344 115.516 281.531 116.375C281.719 117.219 281.984 117.961 282.328 118.602V119H274.406C274.031 118.219 273.75 117.266 273.562 116.141C273.391 115 273.305 113.828 273.305 112.625ZM274.266 103.508L274.312 107.727H270.82C270.086 107.727 269.461 107.828 268.945 108.031C268.445 108.234 268.039 108.516 267.727 108.875C267.43 109.219 267.211 109.609 267.07 110.047C266.945 110.484 266.883 110.945 266.883 111.43C266.883 111.898 266.992 112.32 267.211 112.695C267.445 113.055 267.758 113.336 268.148 113.539C268.539 113.742 268.977 113.844 269.461 113.844C270.336 113.844 271.078 113.68 271.688 113.352C272.312 113.008 272.789 112.594 273.117 112.109C273.445 111.625 273.609 111.172 273.609 110.75L275.344 113.984C275.031 114.609 274.672 115.242 274.266 115.883C273.875 116.523 273.383 117.117 272.789 117.664C272.211 118.195 271.5 118.633 270.656 118.977C269.812 119.305 268.789 119.469 267.586 119.469C266.023 119.469 264.586 119.148 263.273 118.508C261.977 117.867 260.938 116.977 260.156 115.836C259.375 114.68 258.984 113.352 258.984 111.852C258.984 110.539 259.219 109.367 259.688 108.336C260.172 107.305 260.898 106.43 261.867 105.711C262.836 104.992 264.07 104.445 265.57 104.07C267.07 103.695 268.836 103.508 270.867 103.508H274.266ZM296.344 113.375C297.078 113.375 297.703 113.242 298.219 112.977C298.75 112.695 299.148 112.305 299.414 111.805C299.695 111.289 299.828 110.672 299.812 109.953H307.242C307.258 111.859 306.789 113.531 305.836 114.969C304.898 116.391 303.617 117.5 301.992 118.297C300.383 119.078 298.562 119.469 296.531 119.469C294.547 119.469 292.812 119.148 291.328 118.508C289.844 117.852 288.602 116.945 287.602 115.789C286.617 114.617 285.875 113.25 285.375 111.688C284.891 110.125 284.648 108.43 284.648 106.602V106.062C284.648 104.234 284.891 102.539 285.375 100.977C285.875 99.3984 286.617 98.0312 287.602 96.875C288.602 95.7031 289.836 94.7969 291.305 94.1562C292.789 93.5 294.516 93.1719 296.484 93.1719C298.594 93.1719 300.453 93.5703 302.062 94.3672C303.688 95.1641 304.961 96.3203 305.883 97.8359C306.805 99.3516 307.258 101.188 307.242 103.344H299.812C299.828 102.578 299.711 101.891 299.461 101.281C299.211 100.672 298.82 100.188 298.289 99.8281C297.773 99.4531 297.109 99.2656 296.297 99.2656C295.484 99.2656 294.828 99.4453 294.328 99.8047C293.828 100.164 293.445 100.664 293.18 101.305C292.93 101.93 292.758 102.648 292.664 103.461C292.586 104.273 292.547 105.141 292.547 106.062V106.602C292.547 107.539 292.586 108.422 292.664 109.25C292.758 110.062 292.938 110.781 293.203 111.406C293.469 112.016 293.852 112.5 294.352 112.859C294.852 113.203 295.516 113.375 296.344 113.375ZM318.586 82.9766V119H310.688V82.9766H318.586ZM334.805 93.6406L323.789 106.555L318.023 112.32L314.578 107.305L319.383 101.047L325.336 93.6406H334.805ZM326.344 119L319.57 107.445L325.406 103.297L335.391 119H326.344ZM350.156 111.875C350.156 111.438 350.008 111.062 349.711 110.75C349.43 110.422 348.93 110.125 348.211 109.859C347.492 109.578 346.484 109.297 345.188 109.016C343.953 108.75 342.789 108.398 341.695 107.961C340.617 107.523 339.672 106.992 338.859 106.367C338.047 105.742 337.406 105 336.938 104.141C336.484 103.281 336.258 102.297 336.258 101.188C336.258 100.109 336.484 99.0938 336.938 98.1406C337.406 97.1719 338.086 96.3203 338.977 95.5859C339.883 94.8359 340.984 94.25 342.281 93.8281C343.578 93.3906 345.055 93.1719 346.711 93.1719C348.992 93.1719 350.961 93.5234 352.617 94.2266C354.273 94.9141 355.547 95.8828 356.438 97.1328C357.344 98.3672 357.797 99.7969 357.797 101.422H349.898C349.898 100.781 349.789 100.234 349.57 99.7812C349.367 99.3281 349.031 98.9844 348.562 98.75C348.094 98.5 347.469 98.375 346.688 98.375C346.141 98.375 345.641 98.4766 345.188 98.6797C344.75 98.8828 344.398 99.1641 344.133 99.5234C343.867 99.8828 343.734 100.305 343.734 100.789C343.734 101.133 343.812 101.445 343.969 101.727C344.141 101.992 344.398 102.242 344.742 102.477C345.086 102.695 345.523 102.898 346.055 103.086C346.586 103.258 347.227 103.414 347.977 103.555C349.68 103.867 351.273 104.312 352.758 104.891C354.242 105.469 355.445 106.289 356.367 107.352C357.305 108.414 357.773 109.844 357.773 111.641C357.773 112.766 357.516 113.805 357 114.758C356.484 115.695 355.742 116.523 354.773 117.242C353.805 117.945 352.641 118.492 351.281 118.883C349.922 119.273 348.391 119.469 346.688 119.469C344.266 119.469 342.219 119.039 340.547 118.18C338.875 117.305 337.609 116.211 336.75 114.898C335.906 113.57 335.484 112.227 335.484 110.867H342.844C342.875 111.648 343.062 112.289 343.406 112.789C343.766 113.289 344.242 113.656 344.836 113.891C345.43 114.125 346.117 114.242 346.898 114.242C347.617 114.242 348.211 114.141 348.68 113.938C349.164 113.734 349.531 113.461 349.781 113.117C350.031 112.758 350.156 112.344 350.156 111.875Z" fill="black"/>
<path d="M1134 0H1348C1356.28 0 1363 6.71573 1363 15V148C1363 156.284 1356.28 163 1348 163H1134V0Z" fill="#28EEA7"/>
<path fill-rule="evenodd" clip-rule="evenodd" d="M1219.98 53C1219.85 53 1219.73 53.0527 1219.64 53.1464C1219.55 53.2402 1219.5 53.3674 1219.5 53.5V109.5C1219.5 109.633 1219.55 109.76 1219.64 109.854C1219.73 109.947 1219.85 110 1219.98 110H1277.02C1277.15 110 1277.27 109.947 1277.36 109.854C1277.45 109.76 1277.5 109.633 1277.5 109.5V64C1277.5 63.8674 1277.45 63.7402 1277.36 63.6464C1277.27 63.5527 1277.15 63.5 1277.02 63.5H1248.5C1247.65 63.5 1246.84 63.1045 1246.29 62.4206L1238.77 53H1219.98ZM1215.58 48.9038C1216.74 47.6848 1218.33 47 1219.98 47H1240.11C1240.97 47 1241.77 47.3955 1242.32 48.0794L1249.85 57.5H1277.02C1278.67 57.5 1280.26 58.1848 1281.42 59.4038C1282.59 60.6228 1283.25 62.2761 1283.25 64V109.5C1283.25 111.224 1282.59 112.877 1281.42 114.096C1280.26 115.315 1278.67 116 1277.02 116H1219.98C1218.33 116 1216.74 115.315 1215.58 114.096C1214.41 112.877 1213.75 111.224 1213.75 109.5V53.5C1213.75 51.7761 1214.41 50.1228 1215.58 48.9038Z" fill="white"/>
<path fill-rule="evenodd" clip-rule="evenodd" d="M1244.16 75.5251C1245.47 76.892 1245.47 79.108 1244.16 80.4749L1238.15 86.75L1244.16 93.0251C1245.47 94.392 1245.47 96.608 1244.16 97.9749C1242.85 99.3417 1240.73 99.3417 1239.42 97.9749L1231.03 89.2249C1229.72 87.858 1229.72 85.642 1231.03 84.2751L1239.42 75.5251C1240.73 74.1583 1242.85 74.1583 1244.16 75.5251Z" fill="white"/>
<path fill-rule="evenodd" clip-rule="evenodd" d="M1252.12 97.9749C1250.81 96.608 1250.81 94.392 1252.12 93.0251L1258.13 86.75L1252.12 80.4749C1250.81 79.108 1250.81 76.892 1252.12 75.5251C1253.43 74.1583 1255.55 74.1583 1256.86 75.5251L1265.25 84.2751C1266.56 85.642 1266.56 87.858 1265.25 89.2249L1256.86 97.9749C1255.55 99.3417 1253.43 99.3417 1252.12 97.9749Z" fill="white"/>
</svg>
